<?xml version="1.0" encoding="utf-8"?>
<!-- Generator: Adobe Illustrator 22.0.1, SVG Export Plug-In . SVG Version: 6.00 Build 0)  -->
<svg version="1.1" xmlns="http://www.w3.org/2000/svg" xmlns:xlink="http://www.w3.org/1999/xlink" x="0px" y="0px"
	 viewBox="0 0 1564.5 50.6" style="enable-background:new 0 0 1564.5 50.6;" xml:space="preserve">
<style type="text/css">
	.st0{fill:#003082;}
</style>
<g id="Laag_3">
	<g>
		<g>
			<path class="st0" d="M1544.7,50.6c-0.3-0.4-0.5-0.8-0.7-1.2c-2-3.4-3.9-6.8-5.9-10.1c-0.2-0.3-0.4-0.5-0.6-0.6
				c-2.4-1-4.6-2.3-6.5-4.1c-2.7-2.6-4.7-5.8-5.6-9.4c-1.7-7-0.1-13.3,4.7-18.7c3.1-3.4,7-5.5,11.6-6.1c6-0.9,11.4,0.6,16,4.5
				c3.6,3,5.8,6.8,6.7,11.4c1.1,6-0.2,11.4-3.9,16.2c-2.2,2.9-5.1,5-8.5,6.3c-0.3,0.1-0.5,0.3-0.7,0.6c-2.1,3.7-4.2,7.3-6.3,11
				C1544.9,50.3,1544.8,50.4,1544.7,50.6z M1544.7,34.9c8.4-0.1,14.9-6.7,14.9-14.9c0-8.5-7-14.8-14.8-14.8
				c-8.1,0-14.9,6.6-14.9,14.8C1529.8,28.1,1536.2,34.8,1544.7,34.9z"/>
		</g>
		<path id="path25442" class="st0" d="M1542.5,19.8c-0.5-0.5-1.1-0.8-1.9-0.8h-5.1l1.9-1.9h4.8c0.2,0,0.4,0.1,0.5,0.2l2.8,2.8
			c0.5,0.5,1.1,0.8,1.9,0.8h5.1l-1.9,1.9h-4.8c-0.2,0-0.4-0.1-0.5-0.2L1542.5,19.8z M1544,24c0.5,0.5,1.1,0.8,1.9,0.8h5.6l4.7-4.7
			l-4.7-4.7h-2.7l3.8,3.8h-5.1c-0.2,0-0.4-0.1-0.5-0.2l-2.8-2.8c-0.5-0.5-1.1-0.8-1.9-0.8h-5.6l-4.7,4.7l4.7,4.7h2.7l-3.8-3.8h5.1
			c0.2,0,0.4,0.1,0.5,0.2L1544,24"/>
	</g>
</g>
<g id="Laag_2">
</g>
<g id="Laag_1">
</g>
</svg>
