<?xml version="1.0" encoding="utf-8"?>
<!-- Generator: Adobe Illustrator 22.0.1, SVG Export Plug-In . SVG Version: 6.00 Build 0)  -->
<svg version="1.1" id="Laag_1" xmlns="http://www.w3.org/2000/svg" xmlns:xlink="http://www.w3.org/1999/xlink" x="0px" y="0px"
	 viewBox="0 0 535.9 536.1" style="enable-background:new 0 0 535.9 536.1;" xml:space="preserve">
<style type="text/css">
	.st0{fill:#FF0000;}
</style>
<g>
	<path class="st0" d="M535.7,535.9v-56.4H298.1V346.8h181v0.2h56.6v-56.9H0l0,245.7H535.7z M56.6,479.2V347.2
		c-0.2-0.1-0.2-0.1-0.2-0.1h0.2v-0.2h184.9v132.7H56.4L56.6,479.2z"/>
	<path class="st0" d="M0,0.2v245.7h535.7v-56.4H298.1v-69.6l237.3-92.2V0.4h-85.4l-151.9,59v-59h-1V0.2H0z M56.4,189.5l0.2-0.3V57.2
		c-0.2-0.1-0.2-0.1-0.2-0.1h0.2v-0.2L241.5,57v132.5H56.4z"/>
</g>
</svg>
