<?xml version="1.0" encoding="utf-8"?>
<!-- Generator: Adobe Illustrator 22.0.1, SVG Export Plug-In . SVG Version: 6.00 Build 0)  -->
<svg version="1.1" id="Laag_1" xmlns="http://www.w3.org/2000/svg" xmlns:xlink="http://www.w3.org/1999/xlink" x="0px" y="0px"
	 viewBox="0 0 535.9 536.1" style="enable-background:new 0 0 535.9 536.1;" xml:space="preserve">
<style type="text/css">
	.st0{fill:#FF0000;}
</style>
<g>
	<polygon class="st0" points="98.5,536 122.2,536 137.6,536 137.6,497.1 137.5,497.1 137.5,483.8 156.2,483.8 214.2,483.8 
		214.2,497.1 150.4,497.1 150.4,536 253.1,536 253.1,483.8 253.1,444.9 156.2,444.9 98.5,444.9 98.5,497.1 38.9,497.1 38.9,483.8 
		86.4,483.8 86.4,444.9 0,444.9 0,536 	"/>
	<polygon class="st0" points="99,372.9 99,385.2 0.1,385.2 0.1,424.1 253.1,424.1 253.1,385.2 137.9,385.2 137.9,372.9 253.1,372.9 
		253.1,334 0.1,334 0.1,372.9 	"/>
	<polygon class="st0" points="214.3,260.1 214.3,276 137.8,276 137.8,222.3 99,222.3 99,276 38.9,276 38.9,260.1 85.4,260.1 
		85.4,221.3 36.7,221.3 36.7,221.3 0.1,221.3 0.1,297.7 0.1,297.7 0.1,314.8 253.1,314.8 253.1,297.7 253.1,276 253.1,221.3 
		223.1,221.3 223.1,221.3 150.1,221.3 150.1,260.1 	"/>
	<polygon class="st0" points="214.3,148.3 214.3,164.1 137.8,164.1 137.8,110.4 99,110.4 99,164.1 38.9,164.1 38.9,148.3 
		85.4,148.3 85.4,109.5 36.7,109.5 36.7,109.5 0.1,109.5 0.1,185.8 0.1,185.8 0.1,202.9 253.1,202.9 253.1,185.8 253.1,164.1 
		253.1,109.5 223.1,109.5 223.1,109.5 150.1,109.5 150.1,148.3 	"/>
	<polygon class="st0" points="36.7,0.1 0.1,0.1 0.1,76.5 0.1,93.6 253.1,93.6 253.1,54.8 38.9,54.8 38.9,38.9 253.1,38.9 253.1,0.1 
			"/>
</g>
<g>
	<path class="st0" d="M535.9,0h-57.5h-36.5h-57.5h-32.2h-61.3v57.2h61.3h32.2l-0.1,0.1h0.1h0.1v129.4h-32.3v0.1h-3.9v-0.1h-57.4
		v57.4h61.3h32.2h57.5h36.5h57.5V0z M442,57.2h36.5l-0.1,0.1h0.1h0.1v129.4h-0.1H442V57.2z"/>
	<path class="st0" d="M535.9,536V377.4v-30.6V267H291.7v57.6h57.4v-0.2h35.4v0.2h0.1V536H535.9z M441.9,324.4h36.7v22.5v30.6v101.1
		h-36.7V324.4z"/>
	<polygon class="st0" points="403.9,394.4 403.9,297.5 291.7,439.1 291.7,536 	"/>
</g>
</svg>
