<?xml version="1.0" encoding="utf-8"?>
<!-- Generator: Adobe Illustrator 22.0.1, SVG Export Plug-In . SVG Version: 6.00 Build 0)  -->
<svg version="1.1" id="Laag_1" xmlns="http://www.w3.org/2000/svg" xmlns:xlink="http://www.w3.org/1999/xlink" x="0px" y="0px"
	 viewBox="0 0 76.8 74.4" style="enable-background:new 0 0 76.8 74.4;" xml:space="preserve">
<style type="text/css">
	.st0{fill:#FFFFFF;}
</style>
<g>
	<path class="st0" d="M75.6,67.6c-1.1-1.2-2.3-2.3-3.4-3.4c-2.9-2.9-5.8-5.8-8.7-8.7c0.1-0.2,0.2-0.4,0.3-0.6
		c2.4-4,3.3-8.3,2.6-12.9c-1.1-7.6-6.8-14-14.2-15.9c-7.8-2-15.7,0.8-20.4,7.2c-5.7,7.7-4.9,18.4,1.8,25.1
		c6.5,6.4,16.1,7.6,23.9,2.8c0.4-0.2,0.6-0.2,0.8,0.1c3.8,3.8,7.6,7.6,11.4,11.4c0.2,0.2,0.5,0.5,0.7,0.7c0.9,0.7,1.9,1,3.1,0.8
		c1.5-0.3,2.5-1.2,3-2.6C77,70.1,76.6,68.8,75.6,67.6z M47.7,57.7c-7.5,0.1-13.2-5.5-13.3-12.9c-0.1-7,5.7-12.7,12.8-12.8
		c7.1-0.1,12.9,5.7,13,12.9C60.3,51.7,54.5,57.7,47.7,57.7z"/>
	<path class="st0" d="M62.5,69.9c-1.4-1.4-2.7-2.8-4.1-4.1c-11.5,5.8-24,1.8-30.5-6.9c-6.4-8.6-6.2-20.9,0.6-29.3
		c3.4-4.1,7.6-7,12.9-8.2c7.8-1.8,14.9-0.1,21.2,4.9c0-3.9,0-7.7,0-11.6c0,0,0,0,0,0v-3.5H7L7,7h55.6V3.5c0-0.3,0-0.5,0-0.7
		c0-0.7,0-1.3,0-2V0h-56L6.4,0C3.2,0.2,0,2.6,0,6.6v5.2v50.5v3.9v1.3l0,0.2c0.2,3.1,2.4,6.2,6.3,6.2h56.3v0c0,0,0,0,0,0
		c0-1.3,0-2.5,0-3.7C62.6,70.1,62.5,70,62.5,69.9z M11.2,67.5H6.9V16.9h4.2V67.5z"/>
</g>
</svg>
