<?xml version="1.0" encoding="utf-8"?>
<!-- Generator: Adobe Illustrator 22.0.1, SVG Export Plug-In . SVG Version: 6.00 Build 0)  -->
<svg version="1.1" id="Laag_1" xmlns="http://www.w3.org/2000/svg" xmlns:xlink="http://www.w3.org/1999/xlink" x="0px" y="0px"
	 viewBox="0 0 535.9 536.1" style="enable-background:new 0 0 535.9 536.1;" xml:space="preserve">
<style type="text/css">
	.st0{fill:#FF0000;}
</style>
<g>
	<g>
		<polygon class="st0" points="186.3,146.7 186.3,187 57.2,187 57.2,57.2 186.3,57.2 186.3,97.5 243.6,97.5 243.6,0 0,0 0,244.2 
			243.6,244.2 243.6,146.7 		"/>
		<polygon class="st0" points="424.4,0 424.4,57.2 477.3,57.2 477.3,93.8 323.6,93.8 323.6,57.2 376.5,57.2 376.5,0 266.4,0 
			266.4,243.6 376.5,243.6 376.5,186.3 323.6,186.3 323.6,151.1 477.3,151.1 477.3,186.3 424.4,186.3 424.4,243.6 534.6,243.6 
			534.6,0 		"/>
	</g>
	<g>
		<polygon class="st0" points="406.6,349.4 478.5,349.4 479.2,350.1 479.2,536.4 535.7,536.4 535.7,292.2 349.4,292.2 349.4,389.6 
			406.6,389.6 		"/>
		<polygon class="st0" points="239.6,349.4 239.6,535.7 296.1,535.7 296.1,292.2 239.6,292.2 		"/>
		<polygon class="st0" points="0.7,536.4 130.4,536.4 187,536.4 187,358 187,292.2 0.7,292.2 0.7,349.2 129.7,349.2 129.3,349.4 
			129.8,349.4 130.4,350.1 130.4,358 130.4,385.7 110.1,385.7 1.3,385.7 1.3,442.2 130.4,442.2 130.4,478.5 129.8,479.2 
			129.4,479.2 129.7,479.3 0.7,479.3 		"/>
	</g>
</g>
</svg>
