<?xml version="1.0" encoding="utf-8"?>
<!-- Generator: Adobe Illustrator 22.0.1, SVG Export Plug-In . SVG Version: 6.00 Build 0)  -->
<svg version="1.1" id="Laag_1" xmlns="http://www.w3.org/2000/svg" xmlns:xlink="http://www.w3.org/1999/xlink" x="0px" y="0px"
	 viewBox="0 0 220.6 220.4" style="enable-background:new 0 0 220.6 220.4;" xml:space="preserve">
<style type="text/css">
	.st0{fill:#0C6377;}
	.st1{fill:#30303A;}
	.st2{fill:none;}
	.st3{fill:#FFFFFF;}
	.st4{font-family:'Raleway-Medium';}
	.st5{font-size:16px;}
</style>
<g>
	<g>
		<circle class="st0" cx="1712.6" cy="161.4" r="110.1"/>
		
			<ellipse transform="matrix(0.2898 -0.9571 0.9571 0.2898 1061.881 1753.7819)" class="st1" cx="1712.6" cy="161.4" rx="88.3" ry="88.3"/>
	</g>
	<rect x="1643.1" y="113.3" class="st2" width="139" height="133.1"/>
	<text transform="matrix(1 0 0 1 1655.55 124.9777)"><tspan x="0" y="0" class="st3 st4 st5">door eenvrouw </tspan><tspan x="-11.1" y="20" class="st3 st4 st5">met krullend haar, </tspan><tspan x="1.2" y="40" class="st3 st4 st5">zo zwart als de </tspan><tspan x="-8.2" y="60" class="st3 st4 st5">longen van Hum</tspan><tspan x="115.6" y="60" class="st3 st4 st5">-</tspan><tspan x="6.5" y="80" class="st3 st4 st5">prhey Bogart.</tspan></text>
</g>
<g>
	<g>
		<circle class="st0" cx="110.3" cy="110.2" r="110.1"/>
		
			<ellipse transform="matrix(0.2898 -0.9571 0.9571 0.2898 -27.1268 183.7969)" class="st1" cx="110.3" cy="110.2" rx="88.3" ry="88.3"/>
	</g>
	<rect x="40.8" y="62.1" class="st2" width="139" height="133.1"/>
	<text transform="matrix(1 0 0 1 53.1841 73.763)"><tspan x="0" y="0" class="st3 st4 st5">door eenvrouw </tspan><tspan x="-11.1" y="20" class="st3 st4 st5">met krullend haar, </tspan><tspan x="1.2" y="40" class="st3 st4 st5">zo zwart als de </tspan><tspan x="-8.2" y="60" class="st3 st4 st5">longen van Hum</tspan><tspan x="115.6" y="60" class="st3 st4 st5">-</tspan><tspan x="6.5" y="80" class="st3 st4 st5">prhey Bogart.</tspan></text>
</g>
</svg>
