<?xml version="1.0" encoding="utf-8"?>
<!-- Generator: Adobe Illustrator 22.0.1, SVG Export Plug-In . SVG Version: 6.00 Build 0)  -->
<svg version="1.1" id="Laag_1" xmlns="http://www.w3.org/2000/svg" xmlns:xlink="http://www.w3.org/1999/xlink" x="0px" y="0px"
	 viewBox="0 0 70.1 215.2" style="enable-background:new 0 0 70.1 215.2;" xml:space="preserve">
<style type="text/css">
	.st0{fill-rule:evenodd;clip-rule:evenodd;fill:#0C6377;}
	.st1{fill-rule:evenodd;clip-rule:evenodd;fill:#157A95;}
	.st2{fill-rule:evenodd;clip-rule:evenodd;fill:#1FA9BE;}
	.st3{fill-rule:evenodd;clip-rule:evenodd;fill:#79CBC4;}
</style>
<g>
	<g>
		<polygon class="st0" points="0,55.9 35,46.5 70,57.3 35,66.7 		"/>
		<g>
			<polygon class="st1" points="34.9,66.7 10,68 15.1,189.6 35,215.2 70,205.9 70,57.3 			"/>
		</g>
		<g>
			<polygon class="st2" points="34.9,66.7 0,55.9 0,204.4 34.9,215.2 34.9,66.7 			"/>
		</g>
	</g>
	<g>
		<polygon class="st3" points="35,20.2 70.1,31.1 35,40.5 0,29.7 		"/>
		<polygon class="st2" points="70.1,31.1 70.1,10.9 35,0 35,20.2 		"/>
		<polygon class="st1" points="0,49.9 35,40.5 70.1,51.3 35,60.7 		"/>
		<polygon class="st2" points="35,60.7 35,20.3 0,9.4 0,49.9 		"/>
		<polygon class="st3" points="0,9.4 35,0 70.1,10.9 35,20.3 		"/>
	</g>
</g>
</svg>
