<?xml version="1.0" encoding="utf-8"?>
<!-- Generator: Adobe Illustrator 22.0.1, SVG Export Plug-In . SVG Version: 6.00 Build 0)  -->
<svg version="1.1" id="Laag_1" xmlns="http://www.w3.org/2000/svg" xmlns:xlink="http://www.w3.org/1999/xlink" x="0px" y="0px"
	 viewBox="0 0 70.1 208" style="enable-background:new 0 0 70.1 208;" xml:space="preserve">
<style type="text/css">
	.st0{fill-rule:evenodd;clip-rule:evenodd;fill:#027838;}
	.st1{fill-rule:evenodd;clip-rule:evenodd;fill:#1F9631;}
	.st2{fill-rule:evenodd;clip-rule:evenodd;fill:#50AD26;}
	.st3{fill-rule:evenodd;clip-rule:evenodd;fill:#A3D419;}
</style>
<g>
	<g>
		<polygon class="st0" points="0,56.5 35,47.1 70,58 35,67.4 		"/>
		<g>
			<polygon class="st1" points="34.9,67.3 10,68.6 15.2,175.6 35,208 70,198.6 70,57.9 			"/>
		</g>
		<g>
			<polygon class="st2" points="34.9,67.3 0,56.6 0,197.2 34.9,208 34.9,67.3 			"/>
		</g>
	</g>
	<g>
		<polygon class="st3" points="35,20.2 70,31 35,40.4 0,29.6 		"/>
		<polygon class="st2" points="70,31 70,10.8 35,0 35,20.2 		"/>
		<polygon class="st1" points="0,49.8 35,40.4 70,51.2 35,60.6 		"/>
		<polygon class="st2" points="35,60.6 35,20.2 0,9.4 0,49.8 		"/>
		<polygon class="st3" points="0,9.4 35,0 70,10.8 35,20.2 		"/>
	</g>
</g>
</svg>
