<?xml version="1.0" encoding="utf-8"?>
<!-- Generator: Adobe Illustrator 22.0.1, SVG Export Plug-In . SVG Version: 6.00 Build 0)  -->
<svg version="1.1" id="Laag_1" xmlns="http://www.w3.org/2000/svg" xmlns:xlink="http://www.w3.org/1999/xlink" x="0px" y="0px"
	 viewBox="0 0 70.1 252.8" style="enable-background:new 0 0 70.1 252.8;" xml:space="preserve">
<style type="text/css">
	.st0{fill-rule:evenodd;clip-rule:evenodd;fill:#BF2804;}
	.st1{fill-rule:evenodd;clip-rule:evenodd;fill:#FE621E;}
	.st2{fill-rule:evenodd;clip-rule:evenodd;fill:#FF3D05;}
	.st3{fill-rule:evenodd;clip-rule:evenodd;fill:#FEB32A;}
</style>
<g>
	<g>
		<polygon class="st0" points="0,86.7 35,77.3 70,88.2 35,97.6 		"/>
		<g>
			<polygon class="st1" points="34.9,97.5 10,98.8 15.2,220.4 35,252.8 70,243.4 70,88.1 			"/>
		</g>
		<g>
			<polygon class="st2" points="34.9,97.5 0,86.7 0,242 34.9,252.8 34.9,97.5 			"/>
		</g>
	</g>
	<g>
		<polygon class="st1" points="69.9,81.7 69.9,50.9 35.1,40.1 35.1,70.9 		"/>
		<polygon class="st3" points="0.4,49.5 35.1,40.1 69.9,50.9 35.1,60.2 		"/>
		<polygon class="st2" points="35.1,60.2 35.1,20.1 0.4,9.3 0.4,49.5 		"/>
		<polygon class="st1" points="69.9,50.9 69.9,10.8 35.1,0 35.1,40.1 		"/>
		<polygon class="st3" points="0.4,9.3 35.1,0 69.9,10.8 35.1,20.1 		"/>
		<polygon class="st2" points="0.4,80.3 35.1,70.9 69.9,81.7 35.1,91 		"/>
	</g>
</g>
</svg>
