<?xml version="1.0" encoding="utf-8"?>
<!-- Generator: Adobe Illustrator 22.0.1, SVG Export Plug-In . SVG Version: 6.00 Build 0)  -->
<svg version="1.1" id="Laag_1" xmlns="http://www.w3.org/2000/svg" xmlns:xlink="http://www.w3.org/1999/xlink" x="0px" y="0px"
	 viewBox="0 0 14 111.6" style="enable-background:new 0 0 14 111.6;" xml:space="preserve">
<style type="text/css">
	.st0{fill:#2A3984;}
	.st1{fill:#FFC917;}
</style>
<g>
	<path class="st0" d="M0.2,0v2.4v7.2h0.7h12.2h0.7V2.4V0H0.2z M4.2,5.5L1.3,8V3.4L4.2,5.5z M5.1,6.1l1,0.7C6.3,7,6.7,7.1,7,7.1
		S7.7,7,8,6.8l1-0.7l2.8,2.4H2.3L5.1,6.1z M9.8,5.5l2.9-2.1V8L9.8,5.5z M12.7,1.1v1L8.7,5L7.3,6C7.1,6.1,6.9,6.1,6.7,6L5.3,5l-4-2.9
		v-1C1.3,1.1,12.7,1.1,12.7,1.1z"/>
	<path class="st1" d="M0.2,18.4v2.4V28h0.7h12.2h0.7v-7.2v-2.4H0.2z M4.2,23.9l-2.9,2.5v-4.6L4.2,23.9z M5.1,24.5l1,0.7
		c0.3,0.2,0.6,0.3,1,0.3c0.3,0,0.7-0.1,1-0.3l1-0.7l2.8,2.4H2.3L5.1,24.5z M9.8,23.9l2.9-2.1v4.6L9.8,23.9z M12.7,19.5v1l-4,2.9
		l-1.3,1c-0.2,0.1-0.5,0.1-0.7,0l-1.3-1l-4-2.9v-1H12.7z"/>
	<path class="st1" d="M3.3,70.3h7.4c1,0,1.7-0.8,1.7-1.7V62h-2v-2c0-1.9-1.5-3.4-3.4-3.4S3.6,58,3.6,59.9v2h-2v6.6
		C1.5,69.5,2.3,70.3,3.3,70.3z M4.6,59.9c0-1.3,1.1-2.4,2.4-2.4s2.4,1.1,2.4,2.4v2h-1H5.6h-1V59.9z M2.6,63h3h2.8h1.5h1.5v5.5
		c0,0.4-0.3,0.7-0.7,0.7H3.3c-0.4,0-0.7-0.3-0.7-0.7V63z"/>
	<path class="st0" d="M3.3,49.8h7.4c1,0,1.7-0.8,1.7-1.7v-6.6h-2v-2c0-1.9-1.5-3.4-3.4-3.4s-3.4,1.5-3.4,3.4v2h-2V48
		C1.5,49,2.3,49.8,3.3,49.8z M4.6,39.5c0-1.3,1.1-2.4,2.4-2.4s2.4,1.1,2.4,2.4v2h-1H5.6h-1V39.5z M2.6,42.5h3h2.8h1.5h1.5V48
		c0,0.4-0.3,0.7-0.7,0.7H3.3c-0.4,0-0.7-0.3-0.7-0.7V42.5z"/>
	<g>
		<path class="st0" d="M3.2,80.7c0,2.1,1.7,3.8,3.8,3.8s3.8-1.7,3.8-3.8c0-2.1-1.7-3.8-3.8-3.8C4.9,76.9,3.2,78.6,3.2,80.7z
			 M9.7,80.7c0,1.5-1.2,2.7-2.7,2.7s-2.7-1.2-2.7-2.7S5.5,78,7,78C8.5,77.9,9.7,79.2,9.7,80.7z"/>
		<path class="st0" d="M10.3,84.3L10.3,84.3c-0.2-0.1-0.5-0.1-0.6,0.1C9,85.1,8,85.5,7,85.5s-2-0.4-2.7-1.1
			c-0.2-0.2-0.4-0.2-0.6-0.1l0,0l0,0l0,0c-2.2,1.2-3.5,3.5-3.6,5.9v0.5h13.8v-0.5C13.9,87.7,12.5,85.4,10.3,84.3z M1.2,89.7
			c0.2-1.8,1.2-3.3,2.7-4.3c0.9,0.7,2,1.2,3.1,1.2s2.2-0.4,3.1-1.2c1.5,0.9,2.5,2.5,2.7,4.3H1.2z"/>
	</g>
	<g>
		<path class="st1" d="M3.2,101.5c0,2.1,1.7,3.8,3.8,3.8s3.8-1.7,3.8-3.8c0-2.1-1.7-3.8-3.8-3.8C4.9,97.6,3.2,99.4,3.2,101.5z
			 M9.7,101.5c0,1.5-1.2,2.7-2.7,2.7s-2.7-1.2-2.7-2.7s1.2-2.7,2.7-2.7C8.5,98.7,9.7,99.9,9.7,101.5z"/>
		<path class="st1" d="M10.3,105L10.3,105c-0.2-0.1-0.5-0.1-0.6,0.1C9,105.8,8,106.2,7,106.2s-2-0.4-2.7-1.1
			c-0.2-0.2-0.4-0.2-0.6-0.1l0,0l0,0l0,0c-2.2,1.2-3.5,3.5-3.6,5.9v0.5h13.8v-0.5C13.9,108.5,12.5,106.2,10.3,105z M1.2,110.5
			c0.2-1.8,1.2-3.3,2.7-4.3c0.9,0.7,2,1.2,3.1,1.2s2.2-0.4,3.1-1.2c1.5,0.9,2.5,2.5,2.7,4.3H1.2z"/>
	</g>
</g>
</svg>
