<?xml version="1.0" encoding="utf-8"?>
<!-- Generator: Adobe Illustrator 22.0.1, SVG Export Plug-In . SVG Version: 6.00 Build 0)  -->
<svg version="1.1" xmlns="http://www.w3.org/2000/svg" xmlns:xlink="http://www.w3.org/1999/xlink" x="0px" y="0px"
	 viewBox="0 0 324 19.1" style="enable-background:new 0 0 324 19.1;" xml:space="preserve">
<style type="text/css">
	.st0{fill:#003082;}
	.st1{fill:#FFC917;}
	.st2{fill:#FFD56E;}
	.st3{fill:#4A585C;}
	.st4{fill:#1E1E1C;}
</style>
<g id="Laag_1">
	<rect x="115.1" y="17.7" class="st0" width="19.4" height="1.4"/>
	<g>
		<rect x="193.2" y="17.7" class="st0" width="19.4" height="1.4"/>
		<polygon class="st1" points="213.2,9.1 212.6,7.8 210.3,3.3 208.6,1.5 207.5,0.5 161.4,0.6 161.4,0.6 161.4,0.6 115.4,0.5 
			114.2,1.5 112.6,3.3 110.2,7.8 109.7,9.1 109.6,11.2 110.4,13.4 112.5,14.7 116.7,14.5 118,15.9 161.4,16.2 161.4,16.2 
			162.7,16.2 164,16.2 164,16.2 204.8,15.9 206.1,14.5 210.3,14.7 212.4,13.4 213.3,11.2 		"/>
		<path class="st2" d="M209.6,2.7l-5.9-0.3l-0.4,0.1h-41.9h-1.5h-40.4l-0.4-0.1l-5.9,0.3l-4,6.6l0.5,1.6c1.6-3.4,6.4-3.5,6.4-3.5
			h2.7h0h41.4h1.2h42.6h0h2.7c0,0,4.8,0.1,6.4,3.5l0.5-1.6L209.6,2.7z"/>
		<path class="st3" d="M210.8,4.1l-2.2-3.2H205l-0.2,0l-0.1,0h-0.8h-42.4l0,0v0H119h-0.8l-0.1,0l-0.2,0h-3.6L112,4.1l-2.1,3.6
			l0.3,1.9c0,0,2.7-6,6.6-6h2.1v0l0,0h15.8l1.8-0.9c0.2-0.1,0.4-0.1,0.5-0.1h22.9h1.5h24.4c0.2,0,0.4,0,0.5,0.1l1.8,0.9H204l0,0v0
			h2.1c3.9,0,6.6,6,6.6,6l0.3-1.9L210.8,4.1z"/>
		<path class="st0" d="M209.2,17.7c1.1-0.2,1.9-1.1,1.9-2.3h0.6c0.3,0,0.5-0.2,0.7-0.4l0.6-1.4h0.6c0.4,0,0.7-0.3,0.7-0.7
			c0-0.4-0.3-0.7-0.7-0.7l0.7-1.6c0.1-0.2,0.1-0.4,0-0.6l-2.9-6.2c0-0.1-0.1-0.1-0.1-0.2l-3-3.4C208.2,0.1,208,0,207.8,0h-3.4H204
			h-42.6h-0.8h-41.8h-0.4h-3.4c-0.2,0-0.4,0.1-0.5,0.2l-3,3.4c0,0.1-0.1,0.1-0.1,0.2l-2.9,6.2c-0.1,0.2-0.1,0.4,0,0.6l0.7,1.6
			c-0.4,0-0.7,0.3-0.7,0.7c0,0.4,0.3,0.7,0.7,0.7h0.6l0.6,1.4c0.1,0.3,0.4,0.4,0.7,0.4h0.6c0,1.1,0.8,2.1,1.9,2.3h-7.8v1.4h19.4v0
			H324v-1.4H209.2z M164.9,17.6c0.1,0,0.1,0,0.2,0c0,0,0.1,0,0.2,0H162c0.1,0,0.1,0,0.2,0c0.1,0,0.1,0,0.2-0.1
			c0.1,0,0.2-0.1,0.3-0.1c0.1,0,0.1-0.1,0.2-0.1c0.1,0,0.1-0.1,0.2-0.1c0.1-0.1,0.1-0.1,0.2-0.2c0.1-0.1,0.1-0.1,0.1-0.2
			c0.1-0.1,0.1-0.1,0.2-0.2c0.3,0.4,0.7,0.7,1.1,0.9v0C164.8,17.6,164.8,17.6,164.9,17.6z M168.8,17.6c0.1,0,0.1,0,0.2,0.1
			c0,0,0.1,0,0.1,0h-3.2c0.1,0,0.1,0,0.2,0c0.1,0,0.1,0,0.1,0c0.1,0,0.2-0.1,0.4-0.1c0.1,0,0.1-0.1,0.1-0.1c0.1-0.1,0.2-0.1,0.3-0.2
			c0,0,0.1-0.1,0.1-0.1c0.1-0.1,0.2-0.2,0.3-0.4c0.3,0.4,0.7,0.7,1.1,0.9v0C168.7,17.6,168.7,17.6,168.8,17.6z M172.7,17.6
			c0.1,0,0.1,0,0.2,0c0,0,0.1,0,0.2,0h-3.2c0.1,0,0.1,0,0.2,0c0.1,0,0.1,0,0.2-0.1c0.1,0,0.2-0.1,0.3-0.1c0.1,0,0.1-0.1,0.2-0.1
			c0.1,0,0.1-0.1,0.2-0.1c0.1-0.1,0.1-0.1,0.2-0.2c0.1-0.1,0.1-0.1,0.1-0.2c0.1-0.1,0.1-0.1,0.2-0.2c0.3,0.4,0.7,0.7,1.1,0.9v0
			C172.6,17.6,172.7,17.6,172.7,17.6z M176.6,17.6c0.1,0,0.1,0,0.2,0.1c0,0,0.1,0,0.1,0h-3.2c0.1,0,0.1,0,0.2,0c0.1,0,0.1,0,0.1,0
			c0.1,0,0.2-0.1,0.4-0.1c0.1,0,0.1-0.1,0.1-0.1c0.1-0.1,0.2-0.1,0.3-0.2c0,0,0.1-0.1,0.1-0.1c0.1-0.1,0.2-0.2,0.3-0.4
			c0.3,0.4,0.7,0.7,1.1,0.9v0C176.5,17.6,176.6,17.6,176.6,17.6z M180.6,17.6c0.1,0,0.1,0,0.2,0c0,0,0.1,0,0.2,0h-3.2
			c0.1,0,0.1,0,0.2,0c0.1,0,0.1,0,0.2-0.1c0.1,0,0.2-0.1,0.3-0.1c0.1,0,0.2-0.1,0.2-0.1c0.1,0,0.1-0.1,0.2-0.1
			c0.1-0.1,0.1-0.1,0.2-0.2c0,0,0.1-0.1,0.1-0.1c0.1-0.1,0.1-0.1,0.2-0.2c0.3,0.4,0.7,0.7,1.1,0.9v0
			C180.5,17.6,180.5,17.6,180.6,17.6z M184.5,17.6c0.1,0,0.1,0,0.2,0.1c0,0,0.1,0,0.1,0h-3.2c0.1,0,0.1,0,0.2,0c0.1,0,0.1,0,0.1,0
			c0.1,0,0.2-0.1,0.4-0.1c0.1,0,0.1-0.1,0.1-0.1c0.1-0.1,0.2-0.1,0.3-0.2c0,0,0.1-0.1,0.1-0.1c0.1-0.1,0.2-0.2,0.3-0.4
			c0.3,0.4,0.7,0.7,1.1,0.9v0C184.4,17.6,184.4,17.6,184.5,17.6z M188.4,17.6c0.1,0,0.1,0,0.2,0c0,0,0.1,0,0.2,0h-3.2
			c0.1,0,0.1,0,0.2,0c0.1,0,0.1,0,0.2-0.1c0.1,0,0.2-0.1,0.3-0.1c0.1,0,0.1-0.1,0.2-0.1c0.1,0,0.1-0.1,0.2-0.1
			c0.1-0.1,0.1-0.1,0.2-0.2c0.1-0.1,0.1-0.1,0.1-0.2c0.1-0.1,0.1-0.1,0.2-0.2c0.3,0.4,0.7,0.7,1.1,0.9v0
			C188.3,17.6,188.4,17.6,188.4,17.6z M192.3,17.6c0.1,0,0.1,0,0.2,0.1c0,0,0.1,0,0.1,0h-3.2c0.1,0,0.1,0,0.2,0c0.1,0,0.1,0,0.1,0
			c0.1,0,0.2-0.1,0.4-0.1c0.1,0,0.1-0.1,0.1-0.1c0.1-0.1,0.2-0.1,0.3-0.2c0,0,0.1-0.1,0.1-0.1c0.1-0.1,0.2-0.2,0.3-0.4
			c0.3,0.4,0.7,0.7,1.1,0.9v0C192.2,17.6,192.3,17.6,192.3,17.6z M196.3,17.6c0.1,0,0.1,0,0.2,0c0,0,0.1,0,0.2,0h-3.2
			c0.1,0,0.1,0,0.2,0c0.1,0,0.1,0,0.2-0.1c0.1,0,0.2-0.1,0.3-0.1c0.1,0,0.1-0.1,0.2-0.1c0.1,0,0.1-0.1,0.2-0.1
			c0.1-0.1,0.1-0.1,0.2-0.2c0.1-0.1,0.1-0.1,0.1-0.2c0.1-0.1,0.1-0.1,0.2-0.2c0.3,0.4,0.7,0.7,1.1,0.9v0
			C196.2,17.6,196.2,17.6,196.3,17.6z M200.1,17.6c0.1,0,0.1,0,0.2,0.1c0,0,0.1,0,0.1,0h-3.2c0.1,0,0.1,0,0.2,0c0.1,0,0.1,0,0.1,0
			c0.1,0,0.2-0.1,0.4-0.1c0.1,0,0.1-0.1,0.1-0.1c0.1-0.1,0.2-0.1,0.3-0.2c0,0,0.1-0.1,0.1-0.1c0.1-0.1,0.2-0.2,0.3-0.4
			c0.3,0.4,0.7,0.7,1.1,0.9v0C200.1,17.6,200.1,17.6,200.1,17.6z M204.1,17.6c0.1,0,0.1,0,0.2,0c0,0,0.1,0,0.2,0h-3.2
			c0.1,0,0.1,0,0.2,0c0.1,0,0.1,0,0.2-0.1c0.1,0,0.2-0.1,0.3-0.1c0.1,0,0.1-0.1,0.2-0.1c0.1,0,0.1-0.1,0.2-0.1
			c0.1-0.1,0.1-0.1,0.2-0.2c0.1-0.1,0.1-0.1,0.1-0.2c0.1-0.1,0.1-0.1,0.2-0.2c0.3,0.4,0.7,0.7,1.1,0.9v0
			C204,17.6,204.1,17.6,204.1,17.6z M111.6,14l-1.6-3.7l2.7-5.8l2.8-3.1h3.1v0h41.7h1.3h42.9v0h3.1l2.8,3.1l2.7,5.8l-1.6,3.7h-49.8
			h-1.1H111.6z M208.3,17.7h-3.2c0.1,0,0.1,0,0.2,0c0.1,0,0.1,0,0.1,0c0.1,0,0.2-0.1,0.4-0.1c0.1,0,0.1-0.1,0.1-0.1
			c0.1-0.1,0.2-0.1,0.3-0.2c0,0,0.1-0.1,0.1-0.1c0.1-0.1,0.2-0.2,0.3-0.4C207.1,17.2,207.7,17.6,208.3,17.7z M161.4,17.7L161.4,17.7
			L161.4,17.7L161.4,17.7z M160.8,17.7h-3.2c0.1,0,0.1,0,0.2,0c0.1,0,0.1,0,0.2,0c0.1,0,0.1,0,0.2,0v0c0.5-0.2,0.8-0.5,1.1-0.9
			c0,0.1,0.1,0.1,0.2,0.2c0,0.1,0.1,0.1,0.1,0.2c0.1,0.1,0.1,0.1,0.2,0.2c0.1,0.1,0.1,0.1,0.2,0.1c0.1,0,0.1,0.1,0.2,0.1
			c0.1,0,0.2,0.1,0.3,0.1c0.1,0,0.1,0,0.2,0.1C160.7,17.7,160.8,17.7,160.8,17.7z M156.9,17.7h-3.2c0,0,0.1,0,0.1,0
			c0.1,0,0.1,0,0.2-0.1c0,0,0.1,0,0.1,0v0c0.5-0.2,0.9-0.5,1.1-0.9c0.1,0.1,0.2,0.3,0.3,0.4c0,0,0.1,0.1,0.1,0.1
			c0.1,0.1,0.2,0.2,0.3,0.2c0,0,0.1,0.1,0.1,0.1c0.1,0.1,0.2,0.1,0.4,0.1c0,0,0.1,0,0.1,0C156.8,17.7,156.9,17.7,156.9,17.7z
			 M153,17.7h-3.2c0.1,0,0.1,0,0.2,0c0.1,0,0.1,0,0.2,0c0.1,0,0.1,0,0.2,0v0c0.5-0.2,0.8-0.5,1.1-0.9c0,0.1,0.1,0.1,0.2,0.2
			c0,0.1,0.1,0.1,0.1,0.2c0.1,0.1,0.1,0.1,0.2,0.2c0.1,0.1,0.1,0.1,0.2,0.1c0.1,0,0.1,0.1,0.2,0.1c0.1,0,0.2,0.1,0.3,0.1
			c0.1,0,0.1,0,0.2,0.1C152.9,17.7,152.9,17.7,153,17.7z M149.1,17.7h-3.2c0,0,0.1,0,0.1,0c0.1,0,0.1,0,0.2-0.1c0,0,0.1,0,0.1,0v0
			c0.5-0.2,0.9-0.5,1.1-0.9c0.1,0.1,0.2,0.3,0.3,0.4c0,0,0.1,0.1,0.1,0.1c0.1,0.1,0.2,0.2,0.3,0.2c0,0,0.1,0.1,0.1,0.1
			c0.1,0.1,0.2,0.1,0.4,0.1c0,0,0.1,0,0.1,0C148.9,17.7,149,17.7,149.1,17.7z M145.1,17.7H142c0.1,0,0.1,0,0.2,0c0.1,0,0.1,0,0.2,0
			c0.1,0,0.1,0,0.2,0v0c0.5-0.2,0.8-0.5,1.1-0.9c0.1,0.1,0.1,0.1,0.2,0.2c0,0,0.1,0.1,0.1,0.1c0.1,0.1,0.1,0.1,0.2,0.2
			c0.1,0,0.1,0.1,0.2,0.1c0.1,0,0.1,0.1,0.2,0.1c0.1,0,0.2,0.1,0.3,0.1c0.1,0,0.1,0,0.2,0.1C145,17.7,145.1,17.7,145.1,17.7z
			 M141.2,17.7H138c0,0,0.1,0,0.1,0c0.1,0,0.1,0,0.2-0.1c0,0,0.1,0,0.1,0v0c0.5-0.2,0.9-0.5,1.1-0.9c0.1,0.1,0.2,0.3,0.3,0.4
			c0,0,0.1,0.1,0.1,0.1c0.1,0.1,0.2,0.2,0.3,0.2c0,0,0.1,0.1,0.1,0.1c0.1,0.1,0.2,0.1,0.4,0.1c0,0,0.1,0,0.1,0
			C141.1,17.7,141.2,17.7,141.2,17.7z M137.3,17.7h-3.2c0.1,0,0.1,0,0.2,0c0.1,0,0.1,0,0.2,0c0.1,0,0.1,0,0.2,0v0
			c0.5-0.2,0.8-0.5,1.1-0.9c0,0.1,0.1,0.1,0.2,0.2c0,0.1,0.1,0.1,0.1,0.2c0.1,0.1,0.1,0.1,0.2,0.2c0.1,0.1,0.1,0.1,0.2,0.1
			c0.1,0,0.1,0.1,0.2,0.1c0.1,0,0.2,0.1,0.3,0.1c0.1,0,0.1,0,0.2,0.1C137.2,17.7,137.2,17.7,137.3,17.7z M133.4,17.7h-3.2
			c0,0,0.1,0,0.1,0c0.1,0,0.1,0,0.2-0.1c0,0,0.1,0,0.1,0v0c0.5-0.2,0.9-0.5,1.1-0.9c0.1,0.1,0.2,0.3,0.3,0.4c0,0,0.1,0.1,0.1,0.1
			c0.1,0.1,0.2,0.2,0.3,0.2c0,0,0.1,0.1,0.1,0.1c0.1,0.1,0.2,0.1,0.4,0.1c0,0,0.1,0,0.1,0C133.3,17.7,133.3,17.7,133.4,17.7z
			 M129.5,17.7h-3.2c0.1,0,0.1,0,0.2,0c0.1,0,0.1,0,0.2,0c0.1,0,0.1,0,0.2,0v0c0.5-0.2,0.8-0.5,1.1-0.9c0,0.1,0.1,0.1,0.2,0.2
			c0,0.1,0.1,0.1,0.1,0.2c0.1,0.1,0.1,0.1,0.2,0.2c0.1,0.1,0.1,0.1,0.2,0.1c0.1,0,0.1,0.1,0.2,0.1c0.1,0,0.2,0.1,0.3,0.1
			c0.1,0,0.1,0,0.2,0.1C129.3,17.7,129.4,17.7,129.5,17.7z M121.4,17.7c0.1,0,0.1,0,0.2,0h-3.2c0.1,0,0.1,0,0.2,0c0.1,0,0.1,0,0.2,0
			c0.1,0,0.1,0,0.2,0v0c0.5-0.2,0.8-0.5,1.1-0.9c0,0.1,0.1,0.1,0.2,0.2c0,0.1,0.1,0.1,0.1,0.2c0.1,0.1,0.1,0.1,0.2,0.2
			c0.1,0.1,0.1,0.1,0.2,0.1c0.1,0,0.1,0.1,0.2,0.1c0.1,0,0.2,0.1,0.3,0.1C121.3,17.6,121.4,17.7,121.4,17.7z M116.1,16.7
			c0.1,0.1,0.2,0.3,0.3,0.4c0,0,0.1,0.1,0.1,0.1c0.1,0.1,0.2,0.2,0.3,0.2c0,0,0.1,0.1,0.1,0.1c0.1,0.1,0.2,0.1,0.4,0.1
			c0,0,0.1,0,0.1,0c0.1,0,0.1,0,0.2,0h-3.2C115.2,17.6,115.7,17.2,116.1,16.7z M125.3,17.7h-2.9c0,0,0.1,0,0.1,0
			c0.1,0,0.1,0,0.2-0.1c0,0,0.1,0,0.1,0v0c0.5-0.2,0.9-0.5,1.1-0.9c0.1,0.1,0.2,0.3,0.3,0.4c0,0,0.1,0.1,0.1,0.1
			c0.1,0.1,0.2,0.2,0.3,0.2c0,0,0.1,0.1,0.1,0.1C125,17.5,125.1,17.6,125.3,17.7C125.3,17.6,125.3,17.7,125.3,17.7
			c0.1,0,0.2,0,0.3,0L125.3,17.7L125.3,17.7z"/>
		<g>
			<path class="st0" d="M203.4,6.9h-14.2c-0.1,0-0.2,0-0.3-0.1l-5.1-2.6c-0.3-0.1-0.6-0.2-0.9-0.2h-22c0,0-0.1,0-0.1,0
				c0,0-0.1,0-0.1,0H140c-0.3,0-0.6,0.1-0.9,0.2L134,6.8c-0.1,0.1-0.2,0.1-0.3,0.1h-14.2c-0.4,0-0.7,0.3-0.7,0.7v1
				c0,0.4,0.3,0.7,0.7,0.7H134c0.3,0,0.6-0.1,0.9-0.2l5.1-2.6c0.1-0.1,0.2-0.1,0.3-0.1h20.5c0,0,0.1,0,0.1,0c0,0,0.1,0,0.1,0h21.7
				c0.1,0,0.2,0,0.3,0.1l5.1,2.6c0.3,0.1,0.6,0.2,0.9,0.2h14.5c0.4,0,0.7-0.3,0.7-0.7v-1C204.1,7.2,203.7,6.9,203.4,6.9z"/>
			<path class="st0" d="M182.4,9.3h-21h-0.3h-20.7c-0.4,0-0.7,0.3-0.7,0.7V11c0,0.4,0.3,0.7,0.7,0.7h20.7h0.3h21
				c0.4,0,0.7-0.3,0.7-0.7V10C183.1,9.6,182.8,9.3,182.4,9.3z"/>
		</g>
		<rect x="194" y="6.1" class="st4" width="0.5" height="7.9"/>
		<g>
			<path class="st4" d="M116.6,6.9h-0.3c-0.4,0-0.7,0.3-0.7,0.7v1.3c0,0.4,0.3,0.7,0.7,0.7h0.3c0.4,0,0.7-0.3,0.7-0.7V7.6
				C117.3,7.2,117,6.9,116.6,6.9z"/>
			<path class="st4" d="M143.8,4.4h-1.6c-0.5,0-0.8,0.3-0.8,0.7v0.3c0,0.4,0.4,0.7,0.8,0.7h1.6c0.5,0,0.8-0.3,0.8-0.7V5.1
				C144.6,4.7,144.2,4.4,143.8,4.4z"/>
			<path class="st4" d="M143.8,9.7h-1.6c-0.5,0-0.8,0.3-0.8,0.7v0.3c0,0.4,0.4,0.7,0.8,0.7h1.6c0.5,0,0.8-0.3,0.8-0.7v-0.3
				C144.6,10,144.2,9.7,143.8,9.7z"/>
			<path class="st4" d="M122.7,7.2h-1.6c-0.5,0-0.8,0.3-0.8,0.7v0.3c0,0.4,0.4,0.7,0.8,0.7h1.6c0.5,0,0.8-0.3,0.8-0.7V7.9
				C123.5,7.5,123.2,7.2,122.7,7.2z"/>
			<path class="st4" d="M148.9,4.4h-1.6c-0.5,0-0.8,0.3-0.8,0.7v0.3c0,0.4,0.4,0.7,0.8,0.7h1.6c0.5,0,0.8-0.3,0.8-0.7V5.1
				C149.8,4.7,149.4,4.4,148.9,4.4z"/>
			<path class="st4" d="M148.9,9.7h-1.6c-0.5,0-0.8,0.3-0.8,0.7v0.3c0,0.4,0.4,0.7,0.8,0.7h1.6c0.5,0,0.8-0.3,0.8-0.7v-0.3
				C149.8,10,149.4,9.7,148.9,9.7z"/>
			<path class="st4" d="M154.1,4.4h-1.6c-0.5,0-0.8,0.3-0.8,0.7v0.3c0,0.4,0.4,0.7,0.8,0.7h1.6c0.5,0,0.8-0.3,0.8-0.7V5.1
				C154.9,4.7,154.6,4.4,154.1,4.4z"/>
			<path class="st4" d="M154.1,9.7h-1.6c-0.5,0-0.8,0.3-0.8,0.7v0.3c0,0.4,0.4,0.7,0.8,0.7h1.6c0.5,0,0.8-0.3,0.8-0.7v-0.3
				C154.9,10,154.6,9.7,154.1,9.7z"/>
			<path class="st4" d="M159.3,4.4h-1.6c-0.5,0-0.8,0.3-0.8,0.7v0.3c0,0.4,0.4,0.7,0.8,0.7h1.6c0.5,0,0.8-0.3,0.8-0.7V5.1
				C160.1,4.7,159.7,4.4,159.3,4.4z"/>
			<path class="st4" d="M159.3,9.7h-1.6c-0.5,0-0.8,0.3-0.8,0.7v0.3c0,0.4,0.4,0.7,0.8,0.7h1.6c0.5,0,0.8-0.3,0.8-0.7v-0.3
				C160.1,10,159.7,9.7,159.3,9.7z"/>
			<path class="st4" d="M130.6,5.9h-3.9c-0.6,0-1,0.5-1,1V14h0.5V6.9c0-0.3,0.2-0.5,0.5-0.5h1.7V14h0.5V6.4h1.7
				c0.3,0,0.5,0.2,0.5,0.5V14h0.5V6.9C131.6,6.3,131.1,5.9,130.6,5.9z"/>
			<path class="st4" d="M127.4,7.1h-0.2c-0.3,0-0.5,0.2-0.5,0.5v0.9c0,0.3,0.2,0.5,0.5,0.5h0.2c0.3,0,0.5-0.2,0.5-0.5V7.6
				C127.9,7.3,127.7,7.1,127.4,7.1z"/>
			<path class="st4" d="M130.1,7.1h-0.2c-0.3,0-0.5,0.2-0.5,0.5v0.9c0,0.3,0.2,0.5,0.5,0.5h0.2c0.3,0,0.5-0.2,0.5-0.5V7.6
				C130.6,7.3,130.4,7.1,130.1,7.1z"/>
			<path class="st4" d="M206.6,6.9h-0.3c-0.4,0-0.7,0.3-0.7,0.7v1.3c0,0.4,0.3,0.7,0.7,0.7h0.3c0.4,0,0.7-0.3,0.7-0.7V7.6
				C207.3,7.2,207,6.9,206.6,6.9z"/>
			<path class="st4" d="M180.6,4.4h-1.6c-0.5,0-0.8,0.3-0.8,0.7v0.3c0,0.4,0.4,0.7,0.8,0.7h1.6c0.5,0,0.8-0.3,0.8-0.7V5.1
				C181.5,4.7,181.1,4.4,180.6,4.4z"/>
			<path class="st4" d="M180.6,9.7h-1.6c-0.5,0-0.8,0.3-0.8,0.7v0.3c0,0.4,0.4,0.7,0.8,0.7h1.6c0.5,0,0.8-0.3,0.8-0.7v-0.3
				C181.5,10,181.1,9.7,180.6,9.7z"/>
			<path class="st4" d="M201.7,7.2h-1.6c-0.5,0-0.8,0.3-0.8,0.7v0.3c0,0.4,0.4,0.7,0.8,0.7h1.6c0.5,0,0.8-0.3,0.8-0.7V7.9
				C202.5,7.5,202.2,7.2,201.7,7.2z"/>
			<path class="st4" d="M175.5,4.4h-1.6c-0.5,0-0.8,0.3-0.8,0.7v0.3c0,0.4,0.4,0.7,0.8,0.7h1.6c0.5,0,0.8-0.3,0.8-0.7V5.1
				C176.3,4.7,175.9,4.4,175.5,4.4z"/>
			<path class="st4" d="M175.5,9.7h-1.6c-0.5,0-0.8,0.3-0.8,0.7v0.3c0,0.4,0.4,0.7,0.8,0.7h1.6c0.5,0,0.8-0.3,0.8-0.7v-0.3
				C176.3,10,175.9,9.7,175.5,9.7z"/>
			<path class="st4" d="M170.3,4.4h-1.6c-0.5,0-0.8,0.3-0.8,0.7v0.3c0,0.4,0.4,0.7,0.8,0.7h1.6c0.5,0,0.8-0.3,0.8-0.7V5.1
				C171.1,4.7,170.8,4.4,170.3,4.4z"/>
			<path class="st4" d="M170.3,9.7h-1.6c-0.5,0-0.8,0.3-0.8,0.7v0.3c0,0.4,0.4,0.7,0.8,0.7h1.6c0.5,0,0.8-0.3,0.8-0.7v-0.3
				C171.1,10,170.8,9.7,170.3,9.7z"/>
			<path class="st4" d="M165.1,4.4h-1.6c-0.5,0-0.8,0.3-0.8,0.7v0.3c0,0.4,0.4,0.7,0.8,0.7h1.6c0.5,0,0.8-0.3,0.8-0.7V5.1
				C166,4.7,165.6,4.4,165.1,4.4z"/>
			<path class="st4" d="M165.1,9.7h-1.6c-0.5,0-0.8,0.3-0.8,0.7v0.3c0,0.4,0.4,0.7,0.8,0.7h1.6c0.5,0,0.8-0.3,0.8-0.7v-0.3
				C166,10,165.6,9.7,165.1,9.7z"/>
			<path class="st4" d="M196.2,5.9h-3.9c-0.6,0-1,0.5-1,1V14h0.5V6.9c0-0.3,0.2-0.5,0.5-0.5h3.9c0.3,0,0.5,0.2,0.5,0.5V14h0.5V6.9
				C197.2,6.3,196.7,5.9,196.2,5.9z"/>
			<path class="st4" d="M195.7,7.1h-0.2c-0.3,0-0.5,0.2-0.5,0.5v0.9c0,0.3,0.2,0.5,0.5,0.5h0.2c0.3,0,0.5-0.2,0.5-0.5V7.6
				C196.2,7.3,196,7.1,195.7,7.1z"/>
			<path class="st4" d="M193,7.1h-0.2c-0.3,0-0.5,0.2-0.5,0.5v0.9c0,0.3,0.2,0.5,0.5,0.5h0.2c0.3,0,0.5-0.2,0.5-0.5V7.6
				C193.5,7.3,193.3,7.1,193,7.1z"/>
		</g>
	</g>
	<g>
		<rect x="299.1" y="17.7" class="st0" width="19.4" height="1.4"/>
		<polygon class="st1" points="319.1,9.1 318.6,7.8 316.2,3.3 314.6,1.5 313.4,0.5 267.4,0.6 267.4,0.6 267.4,0.6 221.3,0.5 
			220.2,1.5 218.5,3.3 216.2,7.8 215.6,9.1 215.5,11.2 216.4,13.4 218.5,14.7 222.7,14.5 224,15.9 267.4,16.2 267.4,16.2 
			268.6,16.2 270,16.2 270,16.2 310.8,15.9 312.1,14.5 316.3,14.7 318.4,13.4 319.2,11.2 		"/>
		<path class="st2" d="M315.6,2.7l-5.9-0.3l-0.4,0.1h-41.9h-1.5h-40.4l-0.4-0.1l-5.9,0.3l-4,6.6l0.5,1.6c1.6-3.4,6.4-3.5,6.4-3.5
			h2.7h0h41.4h1.2H310h0h2.7c0,0,4.8,0.1,6.4,3.5l0.5-1.6L315.6,2.7z"/>
		<path class="st3" d="M316.8,4.1l-2.2-3.2H311l-0.2,0l-0.1,0h-0.8h-42.4l0,0v0h-42.4h-0.8l-0.1,0l-0.2,0h-3.6L218,4.1l-2.1,3.6
			l0.3,1.9c0,0,2.7-6,6.6-6h2.1v0l0,0h15.8l1.8-0.9c0.2-0.1,0.4-0.1,0.5-0.1h22.9h1.5h24.4c0.2,0,0.4,0,0.5,0.1l1.8,0.9h15.8l0,0v0
			h2.1c3.9,0,6.6,6,6.6,6l0.3-1.9L316.8,4.1z"/>
		<path class="st0" d="M315.1,17.7c1.1-0.2,1.9-1.1,1.9-2.3h0.6c0.3,0,0.5-0.2,0.7-0.4l0.6-1.4h0.6c0.4,0,0.7-0.3,0.7-0.7
			c0-0.4-0.3-0.7-0.7-0.7l0.7-1.6c0.1-0.2,0.1-0.4,0-0.6l-2.9-6.2c0-0.1-0.1-0.1-0.1-0.2l-3-3.4c-0.1-0.2-0.3-0.2-0.5-0.2h-3.4h-0.4
			h-42.6h-0.8h-41.8h-0.4H221c-0.2,0-0.4,0.1-0.5,0.2l-3,3.4c0,0.1-0.1,0.1-0.1,0.2l-2.9,6.2c-0.1,0.2-0.1,0.4,0,0.6l0.7,1.6
			c-0.4,0-0.7,0.3-0.7,0.7c0,0.4,0.3,0.7,0.7,0.7h0.6l0.6,1.4c0.1,0.3,0.4,0.4,0.7,0.4h0.6c0,1.1,0.8,2.1,1.9,2.3h-7.8v1.4h19.4v0
			H324v-1.4H315.1z M270.8,17.6c0.1,0,0.1,0,0.2,0c0,0,0.1,0,0.2,0H268c0.1,0,0.1,0,0.2,0c0.1,0,0.1,0,0.2-0.1
			c0.1,0,0.2-0.1,0.3-0.1c0.1,0,0.1-0.1,0.2-0.1c0.1,0,0.1-0.1,0.2-0.1c0.1-0.1,0.1-0.1,0.2-0.2c0.1-0.1,0.1-0.1,0.1-0.2
			c0.1-0.1,0.1-0.1,0.2-0.2c0.3,0.4,0.7,0.7,1.1,0.9v0C270.7,17.6,270.8,17.6,270.8,17.6z M274.7,17.6c0.1,0,0.1,0,0.2,0.1
			c0,0,0.1,0,0.1,0h-3.2c0.1,0,0.1,0,0.2,0c0.1,0,0.1,0,0.1,0c0.1,0,0.2-0.1,0.4-0.1c0.1,0,0.1-0.1,0.1-0.1c0.1-0.1,0.2-0.1,0.3-0.2
			c0,0,0.1-0.1,0.1-0.1c0.1-0.1,0.2-0.2,0.3-0.4c0.3,0.4,0.7,0.7,1.1,0.9v0C274.6,17.6,274.7,17.6,274.7,17.6z M278.7,17.6
			c0.1,0,0.1,0,0.2,0c0,0,0.1,0,0.2,0h-3.2c0.1,0,0.1,0,0.2,0c0.1,0,0.1,0,0.2-0.1c0.1,0,0.2-0.1,0.3-0.1c0.1,0,0.1-0.1,0.2-0.1
			c0.1,0,0.1-0.1,0.2-0.1c0.1-0.1,0.1-0.1,0.2-0.2c0.1-0.1,0.1-0.1,0.1-0.2c0.1-0.1,0.1-0.1,0.2-0.2c0.3,0.4,0.7,0.7,1.1,0.9v0
			C278.6,17.6,278.6,17.6,278.7,17.6z M282.6,17.6c0.1,0,0.1,0,0.2,0.1c0,0,0.1,0,0.1,0h-3.2c0.1,0,0.1,0,0.2,0c0.1,0,0.1,0,0.1,0
			c0.1,0,0.2-0.1,0.4-0.1c0.1,0,0.1-0.1,0.1-0.1c0.1-0.1,0.2-0.1,0.3-0.2c0,0,0.1-0.1,0.1-0.1c0.1-0.1,0.2-0.2,0.3-0.4
			c0.3,0.4,0.7,0.7,1.1,0.9v0C282.5,17.6,282.5,17.6,282.6,17.6z M286.5,17.6c0.1,0,0.1,0,0.2,0c0,0,0.1,0,0.2,0h-3.2
			c0.1,0,0.1,0,0.2,0c0.1,0,0.1,0,0.2-0.1c0.1,0,0.2-0.1,0.3-0.1c0.1,0,0.2-0.1,0.2-0.1c0.1,0,0.1-0.1,0.2-0.1
			c0.1-0.1,0.1-0.1,0.2-0.2c0,0,0.1-0.1,0.1-0.1c0.1-0.1,0.1-0.1,0.2-0.2c0.3,0.4,0.7,0.7,1.1,0.9v0
			C286.4,17.6,286.5,17.6,286.5,17.6z M290.4,17.6c0.1,0,0.1,0,0.2,0.1c0,0,0.1,0,0.1,0h-3.2c0.1,0,0.1,0,0.2,0c0.1,0,0.1,0,0.1,0
			c0.1,0,0.2-0.1,0.4-0.1c0.1,0,0.1-0.1,0.1-0.1c0.1-0.1,0.2-0.1,0.3-0.2c0,0,0.1-0.1,0.1-0.1c0.1-0.1,0.2-0.2,0.3-0.4
			c0.3,0.4,0.7,0.7,1.1,0.9v0C290.3,17.6,290.4,17.6,290.4,17.6z M294.4,17.6c0.1,0,0.1,0,0.2,0c0,0,0.1,0,0.2,0h-3.2
			c0.1,0,0.1,0,0.2,0c0.1,0,0.1,0,0.2-0.1c0.1,0,0.2-0.1,0.3-0.1c0.1,0,0.1-0.1,0.2-0.1c0.1,0,0.1-0.1,0.2-0.1
			c0.1-0.1,0.1-0.1,0.2-0.2c0.1-0.1,0.1-0.1,0.1-0.2c0.1-0.1,0.1-0.1,0.2-0.2c0.3,0.4,0.7,0.7,1.1,0.9v0
			C294.3,17.6,294.3,17.6,294.4,17.6z M298.3,17.6c0.1,0,0.1,0,0.2,0.1c0,0,0.1,0,0.1,0h-3.2c0.1,0,0.1,0,0.2,0c0.1,0,0.1,0,0.1,0
			c0.1,0,0.2-0.1,0.4-0.1c0.1,0,0.1-0.1,0.1-0.1c0.1-0.1,0.2-0.1,0.3-0.2c0,0,0.1-0.1,0.1-0.1c0.1-0.1,0.2-0.2,0.3-0.4
			c0.3,0.4,0.7,0.7,1.1,0.9v0C298.2,17.6,298.2,17.6,298.3,17.6z M302.2,17.6c0.1,0,0.1,0,0.2,0c0,0,0.1,0,0.2,0h-3.2
			c0.1,0,0.1,0,0.2,0c0.1,0,0.1,0,0.2-0.1c0.1,0,0.2-0.1,0.3-0.1c0.1,0,0.1-0.1,0.2-0.1c0.1,0,0.1-0.1,0.2-0.1
			c0.1-0.1,0.1-0.1,0.2-0.2c0.1-0.1,0.1-0.1,0.1-0.2c0.1-0.1,0.1-0.1,0.2-0.2c0.3,0.4,0.7,0.7,1.1,0.9v0
			C302.1,17.6,302.2,17.6,302.2,17.6z M306.1,17.6c0.1,0,0.1,0,0.2,0.1c0,0,0.1,0,0.1,0h-3.2c0.1,0,0.1,0,0.2,0c0.1,0,0.1,0,0.1,0
			c0.1,0,0.2-0.1,0.4-0.1c0.1,0,0.1-0.1,0.1-0.1c0.1-0.1,0.2-0.1,0.3-0.2c0,0,0.1-0.1,0.1-0.1c0.1-0.1,0.2-0.2,0.3-0.4
			c0.3,0.4,0.7,0.7,1.1,0.9v0C306,17.6,306.1,17.6,306.1,17.6z M310.1,17.6c0.1,0,0.1,0,0.2,0c0,0,0.1,0,0.2,0h-3.2
			c0.1,0,0.1,0,0.2,0c0.1,0,0.1,0,0.2-0.1c0.1,0,0.2-0.1,0.3-0.1c0.1,0,0.1-0.1,0.2-0.1c0.1,0,0.1-0.1,0.2-0.1
			c0.1-0.1,0.1-0.1,0.2-0.2c0.1-0.1,0.1-0.1,0.1-0.2c0.1-0.1,0.1-0.1,0.2-0.2c0.3,0.4,0.7,0.7,1.1,0.9v0
			C309.9,17.6,310,17.6,310.1,17.6z M217.5,14l-1.6-3.7l2.7-5.8l2.8-3.1h3.1v0h41.7h1.3h42.9v0h3.1l2.8,3.1l2.7,5.8l-1.6,3.7h-49.8
			h-1.1H217.5z M314.3,17.7h-3.2c0.1,0,0.1,0,0.2,0c0.1,0,0.1,0,0.1,0c0.1,0,0.2-0.1,0.4-0.1c0.1,0,0.1-0.1,0.1-0.1
			c0.1-0.1,0.2-0.1,0.3-0.2c0,0,0.1-0.1,0.1-0.1c0.1-0.1,0.2-0.2,0.3-0.4C313.1,17.2,313.6,17.6,314.3,17.7z M267.4,17.7L267.4,17.7
			L267.4,17.7L267.4,17.7z M266.8,17.7h-3.2c0.1,0,0.1,0,0.2,0c0.1,0,0.1,0,0.2,0c0.1,0,0.1,0,0.2,0v0c0.5-0.2,0.8-0.5,1.1-0.9
			c0,0.1,0.1,0.1,0.2,0.2c0,0.1,0.1,0.1,0.1,0.2c0.1,0.1,0.1,0.1,0.2,0.2c0.1,0.1,0.1,0.1,0.2,0.1c0.1,0,0.1,0.1,0.2,0.1
			c0.1,0,0.2,0.1,0.3,0.1c0.1,0,0.1,0,0.2,0.1C266.7,17.7,266.7,17.7,266.8,17.7z M262.9,17.7h-3.2c0,0,0.1,0,0.1,0
			c0.1,0,0.1,0,0.2-0.1c0,0,0.1,0,0.1,0v0c0.5-0.2,0.9-0.5,1.1-0.9c0.1,0.1,0.2,0.3,0.3,0.4c0,0,0.1,0.1,0.1,0.1
			c0.1,0.1,0.2,0.2,0.3,0.2c0,0,0.1,0.1,0.1,0.1c0.1,0.1,0.2,0.1,0.4,0.1c0,0,0.1,0,0.1,0C262.7,17.7,262.8,17.7,262.9,17.7z
			 M258.9,17.7h-3.2c0.1,0,0.1,0,0.2,0c0.1,0,0.1,0,0.2,0c0.1,0,0.1,0,0.2,0v0c0.5-0.2,0.8-0.5,1.1-0.9c0,0.1,0.1,0.1,0.2,0.2
			c0,0.1,0.1,0.1,0.1,0.2c0.1,0.1,0.1,0.1,0.2,0.2c0.1,0.1,0.1,0.1,0.2,0.1c0.1,0,0.1,0.1,0.2,0.1c0.1,0,0.2,0.1,0.3,0.1
			c0.1,0,0.1,0,0.2,0.1C258.8,17.7,258.9,17.7,258.9,17.7z M255,17.7h-3.2c0,0,0.1,0,0.1,0c0.1,0,0.1,0,0.2-0.1c0,0,0.1,0,0.1,0v0
			c0.5-0.2,0.9-0.5,1.1-0.9c0.1,0.1,0.2,0.3,0.3,0.4c0,0,0.1,0.1,0.1,0.1c0.1,0.1,0.2,0.2,0.3,0.2c0,0,0.1,0.1,0.1,0.1
			c0.1,0.1,0.2,0.1,0.4,0.1c0,0,0.1,0,0.1,0C254.9,17.7,255,17.7,255,17.7z M251.1,17.7h-3.2c0.1,0,0.1,0,0.2,0c0.1,0,0.1,0,0.2,0
			c0.1,0,0.1,0,0.2,0v0c0.5-0.2,0.8-0.5,1.1-0.9c0.1,0.1,0.1,0.1,0.2,0.2c0,0,0.1,0.1,0.1,0.1c0.1,0.1,0.1,0.1,0.2,0.2
			c0.1,0,0.1,0.1,0.2,0.1c0.1,0,0.1,0.1,0.2,0.1c0.1,0,0.2,0.1,0.3,0.1c0.1,0,0.1,0,0.2,0.1C251,17.7,251,17.7,251.1,17.7z
			 M247.2,17.7H244c0,0,0.1,0,0.1,0c0.1,0,0.1,0,0.2-0.1c0,0,0.1,0,0.1,0v0c0.5-0.2,0.9-0.5,1.1-0.9c0.1,0.1,0.2,0.3,0.3,0.4
			c0,0,0.1,0.1,0.1,0.1c0.1,0.1,0.2,0.2,0.3,0.2c0,0,0.1,0.1,0.1,0.1c0.1,0.1,0.2,0.1,0.4,0.1c0,0,0.1,0,0.1,0
			C247.1,17.7,247.1,17.7,247.2,17.7z M243.2,17.7h-3.2c0.1,0,0.1,0,0.2,0c0.1,0,0.1,0,0.2,0c0.1,0,0.1,0,0.2,0v0
			c0.5-0.2,0.8-0.5,1.1-0.9c0,0.1,0.1,0.1,0.2,0.2c0,0.1,0.1,0.1,0.1,0.2c0.1,0.1,0.1,0.1,0.2,0.2c0.1,0.1,0.1,0.1,0.2,0.1
			c0.1,0,0.1,0.1,0.2,0.1c0.1,0,0.2,0.1,0.3,0.1c0.1,0,0.1,0,0.2,0.1C243.1,17.7,243.2,17.7,243.2,17.7z M239.3,17.7h-3.2
			c0,0,0.1,0,0.1,0c0.1,0,0.1,0,0.2-0.1c0,0,0.1,0,0.1,0v0c0.5-0.2,0.9-0.5,1.1-0.9c0.1,0.1,0.2,0.3,0.3,0.4c0,0,0.1,0.1,0.1,0.1
			c0.1,0.1,0.2,0.2,0.3,0.2c0,0,0.1,0.1,0.1,0.1c0.1,0.1,0.2,0.1,0.4,0.1c0,0,0.1,0,0.1,0C239.2,17.7,239.3,17.7,239.3,17.7z
			 M235.4,17.7h-3.2c0.1,0,0.1,0,0.2,0c0.1,0,0.1,0,0.2,0c0.1,0,0.1,0,0.2,0v0c0.5-0.2,0.8-0.5,1.1-0.9c0,0.1,0.1,0.1,0.2,0.2
			c0,0.1,0.1,0.1,0.1,0.2c0.1,0.1,0.1,0.1,0.2,0.2c0.1,0.1,0.1,0.1,0.2,0.1c0.1,0,0.1,0.1,0.2,0.1c0.1,0,0.2,0.1,0.3,0.1
			c0.1,0,0.1,0,0.2,0.1C235.3,17.7,235.4,17.7,235.4,17.7z M227.4,17.7c0.1,0,0.1,0,0.2,0h-3.2c0.1,0,0.1,0,0.2,0c0.1,0,0.1,0,0.2,0
			c0.1,0,0.1,0,0.2,0v0c0.5-0.2,0.8-0.5,1.1-0.9c0,0.1,0.1,0.1,0.2,0.2c0,0.1,0.1,0.1,0.1,0.2c0.1,0.1,0.1,0.1,0.2,0.2
			c0.1,0.1,0.1,0.1,0.2,0.1c0.1,0,0.1,0.1,0.2,0.1c0.1,0,0.2,0.1,0.3,0.1C227.3,17.6,227.3,17.7,227.4,17.7z M222.1,16.7
			c0.1,0.1,0.2,0.3,0.3,0.4c0,0,0.1,0.1,0.1,0.1c0.1,0.1,0.2,0.2,0.3,0.2c0,0,0.1,0.1,0.1,0.1c0.1,0.1,0.2,0.1,0.4,0.1
			c0,0,0.1,0,0.1,0c0.1,0,0.1,0,0.2,0h-3.2C221.1,17.6,221.7,17.2,222.1,16.7z M231.2,17.7h-2.9c0,0,0.1,0,0.1,0
			c0.1,0,0.1,0,0.2-0.1c0,0,0.1,0,0.1,0v0c0.5-0.2,0.9-0.5,1.1-0.9c0.1,0.1,0.2,0.3,0.3,0.4c0,0,0.1,0.1,0.1,0.1
			c0.1,0.1,0.2,0.2,0.3,0.2c0,0,0.1,0.1,0.1,0.1C230.9,17.5,231,17.6,231.2,17.7C231.2,17.6,231.3,17.7,231.2,17.7
			c0.1,0,0.2,0,0.3,0L231.2,17.7L231.2,17.7z"/>
		<g>
			<path class="st0" d="M309.3,6.9h-14.2c-0.1,0-0.2,0-0.3-0.1l-5.1-2.6c-0.3-0.1-0.6-0.2-0.9-0.2h-22c0,0-0.1,0-0.1,0
				c0,0-0.1,0-0.1,0h-20.8c-0.3,0-0.6,0.1-0.9,0.2L240,6.8c-0.1,0.1-0.2,0.1-0.3,0.1h-14.2c-0.4,0-0.7,0.3-0.7,0.7v1
				c0,0.4,0.3,0.7,0.7,0.7H240c0.3,0,0.6-0.1,0.9-0.2l5.1-2.6c0.1-0.1,0.2-0.1,0.3-0.1h20.5c0,0,0.1,0,0.1,0c0,0,0.1,0,0.1,0h21.7
				c0.1,0,0.2,0,0.3,0.1l5.1,2.6c0.3,0.1,0.6,0.2,0.9,0.2h14.5c0.4,0,0.7-0.3,0.7-0.7v-1C310,7.2,309.7,6.9,309.3,6.9z"/>
			<path class="st0" d="M288.4,9.3h-21H267h-20.7c-0.4,0-0.7,0.3-0.7,0.7V11c0,0.4,0.3,0.7,0.7,0.7H267h0.3h21
				c0.4,0,0.7-0.3,0.7-0.7V10C289,9.6,288.8,9.3,288.4,9.3z"/>
		</g>
		<rect x="299.9" y="6.1" class="st4" width="0.5" height="7.9"/>
		<g>
			<path class="st4" d="M222.5,6.9h-0.3c-0.4,0-0.7,0.3-0.7,0.7v1.3c0,0.4,0.3,0.7,0.7,0.7h0.3c0.4,0,0.7-0.3,0.7-0.7V7.6
				C223.2,7.2,222.9,6.9,222.5,6.9z"/>
			<path class="st4" d="M249.7,4.4h-1.6c-0.5,0-0.8,0.3-0.8,0.7v0.3c0,0.4,0.4,0.7,0.8,0.7h1.6c0.5,0,0.8-0.3,0.8-0.7V5.1
				C250.6,4.7,250.2,4.4,249.7,4.4z"/>
			<path class="st4" d="M249.7,9.7h-1.6c-0.5,0-0.8,0.3-0.8,0.7v0.3c0,0.4,0.4,0.7,0.8,0.7h1.6c0.5,0,0.8-0.3,0.8-0.7v-0.3
				C250.6,10,250.2,9.7,249.7,9.7z"/>
			<path class="st4" d="M228.7,7.2h-1.6c-0.5,0-0.8,0.3-0.8,0.7v0.3c0,0.4,0.4,0.7,0.8,0.7h1.6c0.5,0,0.8-0.3,0.8-0.7V7.9
				C229.5,7.5,229.1,7.2,228.7,7.2z"/>
			<path class="st4" d="M254.9,4.4h-1.6c-0.5,0-0.8,0.3-0.8,0.7v0.3c0,0.4,0.4,0.7,0.8,0.7h1.6c0.5,0,0.8-0.3,0.8-0.7V5.1
				C255.7,4.7,255.4,4.4,254.9,4.4z"/>
			<path class="st4" d="M254.9,9.7h-1.6c-0.5,0-0.8,0.3-0.8,0.7v0.3c0,0.4,0.4,0.7,0.8,0.7h1.6c0.5,0,0.8-0.3,0.8-0.7v-0.3
				C255.7,10,255.4,9.7,254.9,9.7z"/>
			<path class="st4" d="M260.1,4.4h-1.6c-0.5,0-0.8,0.3-0.8,0.7v0.3c0,0.4,0.4,0.7,0.8,0.7h1.6c0.5,0,0.8-0.3,0.8-0.7V5.1
				C260.9,4.7,260.5,4.4,260.1,4.4z"/>
			<path class="st4" d="M260.1,9.7h-1.6c-0.5,0-0.8,0.3-0.8,0.7v0.3c0,0.4,0.4,0.7,0.8,0.7h1.6c0.5,0,0.8-0.3,0.8-0.7v-0.3
				C260.9,10,260.5,9.7,260.1,9.7z"/>
			<path class="st4" d="M265.2,4.4h-1.6c-0.5,0-0.8,0.3-0.8,0.7v0.3c0,0.4,0.4,0.7,0.8,0.7h1.6c0.5,0,0.8-0.3,0.8-0.7V5.1
				C266.1,4.7,265.7,4.4,265.2,4.4z"/>
			<path class="st4" d="M265.2,9.7h-1.6c-0.5,0-0.8,0.3-0.8,0.7v0.3c0,0.4,0.4,0.7,0.8,0.7h1.6c0.5,0,0.8-0.3,0.8-0.7v-0.3
				C266.1,10,265.7,9.7,265.2,9.7z"/>
			<path class="st4" d="M236.5,5.9h-3.9c-0.6,0-1,0.5-1,1V14h0.5V6.9c0-0.3,0.2-0.5,0.5-0.5h1.7V14h0.5V6.4h1.7
				c0.3,0,0.5,0.2,0.5,0.5V14h0.5V6.9C237.5,6.3,237.1,5.9,236.5,5.9z"/>
			<path class="st4" d="M233.3,7.1h-0.2c-0.3,0-0.5,0.2-0.5,0.5v0.9c0,0.3,0.2,0.5,0.5,0.5h0.2c0.3,0,0.5-0.2,0.5-0.5V7.6
				C233.8,7.3,233.6,7.1,233.3,7.1z"/>
			<path class="st4" d="M236.1,7.1h-0.2c-0.3,0-0.5,0.2-0.5,0.5v0.9c0,0.3,0.2,0.5,0.5,0.5h0.2c0.3,0,0.5-0.2,0.5-0.5V7.6
				C236.6,7.3,236.3,7.1,236.1,7.1z"/>
			<path class="st4" d="M312.5,6.9h-0.3c-0.4,0-0.7,0.3-0.7,0.7v1.3c0,0.4,0.3,0.7,0.7,0.7h0.3c0.4,0,0.7-0.3,0.7-0.7V7.6
				C313.2,7.2,312.9,6.9,312.5,6.9z"/>
			<path class="st4" d="M286.6,4.4H285c-0.5,0-0.8,0.3-0.8,0.7v0.3c0,0.4,0.4,0.7,0.8,0.7h1.6c0.5,0,0.8-0.3,0.8-0.7V5.1
				C287.4,4.7,287.1,4.4,286.6,4.4z"/>
			<path class="st4" d="M286.6,9.7H285c-0.5,0-0.8,0.3-0.8,0.7v0.3c0,0.4,0.4,0.7,0.8,0.7h1.6c0.5,0,0.8-0.3,0.8-0.7v-0.3
				C287.4,10,287.1,9.7,286.6,9.7z"/>
			<path class="st4" d="M307.7,7.2h-1.6c-0.5,0-0.8,0.3-0.8,0.7v0.3c0,0.4,0.4,0.7,0.8,0.7h1.6c0.5,0,0.8-0.3,0.8-0.7V7.9
				C308.5,7.5,308.1,7.2,307.7,7.2z"/>
			<path class="st4" d="M281.4,4.4h-1.6c-0.5,0-0.8,0.3-0.8,0.7v0.3c0,0.4,0.4,0.7,0.8,0.7h1.6c0.5,0,0.8-0.3,0.8-0.7V5.1
				C282.3,4.7,281.9,4.4,281.4,4.4z"/>
			<path class="st4" d="M281.4,9.7h-1.6c-0.5,0-0.8,0.3-0.8,0.7v0.3c0,0.4,0.4,0.7,0.8,0.7h1.6c0.5,0,0.8-0.3,0.8-0.7v-0.3
				C282.3,10,281.9,9.7,281.4,9.7z"/>
			<path class="st4" d="M276.3,4.4h-1.6c-0.5,0-0.8,0.3-0.8,0.7v0.3c0,0.4,0.4,0.7,0.8,0.7h1.6c0.5,0,0.8-0.3,0.8-0.7V5.1
				C277.1,4.7,276.7,4.4,276.3,4.4z"/>
			<path class="st4" d="M276.3,9.7h-1.6c-0.5,0-0.8,0.3-0.8,0.7v0.3c0,0.4,0.4,0.7,0.8,0.7h1.6c0.5,0,0.8-0.3,0.8-0.7v-0.3
				C277.1,10,276.7,9.7,276.3,9.7z"/>
			<path class="st4" d="M271.1,4.4h-1.6c-0.5,0-0.8,0.3-0.8,0.7v0.3c0,0.4,0.4,0.7,0.8,0.7h1.6c0.5,0,0.8-0.3,0.8-0.7V5.1
				C271.9,4.7,271.6,4.4,271.1,4.4z"/>
			<path class="st4" d="M271.1,9.7h-1.6c-0.5,0-0.8,0.3-0.8,0.7v0.3c0,0.4,0.4,0.7,0.8,0.7h1.6c0.5,0,0.8-0.3,0.8-0.7v-0.3
				C271.9,10,271.6,9.7,271.1,9.7z"/>
			<path class="st4" d="M302.1,5.9h-3.9c-0.6,0-1,0.5-1,1V14h0.5V6.9c0-0.3,0.2-0.5,0.5-0.5h3.9c0.3,0,0.5,0.2,0.5,0.5V14h0.5V6.9
				C303.1,6.3,302.7,5.9,302.1,5.9z"/>
			<path class="st4" d="M301.7,7.1h-0.2c-0.3,0-0.5,0.2-0.5,0.5v0.9c0,0.3,0.2,0.5,0.5,0.5h0.2c0.3,0,0.5-0.2,0.5-0.5V7.6
				C302.2,7.3,301.9,7.1,301.7,7.1z"/>
			<path class="st4" d="M298.9,7.1h-0.2c-0.3,0-0.5,0.2-0.5,0.5v0.9c0,0.3,0.2,0.5,0.5,0.5h0.2c0.3,0,0.5-0.2,0.5-0.5V7.6
				C299.4,7.3,299.2,7.1,298.9,7.1z"/>
		</g>
	</g>
	<g>
		<rect x="87.3" y="17.7" class="st0" width="19.4" height="1.4"/>
		<polygon class="st1" points="107.3,9.1 106.7,7.8 104.3,3.3 102.7,1.5 101.6,0.5 55.5,0.6 55.5,0.6 55.5,0.6 9.5,0.5 8.3,1.5 
			6.7,3.3 4.3,7.8 3.8,9.1 3.7,11.2 4.5,13.4 6.6,14.7 10.8,14.5 12.1,15.9 55.5,16.2 55.5,16.2 56.8,16.2 58.1,16.2 58.1,16.2 
			98.9,15.9 100.2,14.5 104.4,14.7 106.5,13.4 107.4,11.2 		"/>
		<path class="st2" d="M103.7,2.7l-5.9-0.3l-0.4,0.1H55.5H54H13.6l-0.4-0.1L7.3,2.7l-4,6.6l0.5,1.6c1.6-3.4,6.4-3.5,6.4-3.5h2.7h0
			h41.4h1.2h42.6h0h2.7c0,0,4.8,0.1,6.4,3.5l0.5-1.6L103.7,2.7z"/>
		<path class="st3" d="M104.9,4.1l-2.2-3.2h-3.6l-0.2,0l-0.1,0H98H55.5l0,0v0H13.1h-0.8l-0.1,0l-0.2,0H8.3L6.1,4.1L4,7.7l0.3,1.9
			c0,0,2.7-6,6.6-6H13v0l0,0h15.8l1.8-0.9c0.2-0.1,0.4-0.1,0.5-0.1H54h1.5h24.4c0.2,0,0.4,0,0.5,0.1l1.8,0.9h15.8l0,0v0h2.1
			c3.9,0,6.6,6,6.6,6l0.3-1.9L104.9,4.1z"/>
		<path class="st0" d="M103.3,17.7c1.1-0.2,1.9-1.1,1.9-2.3h0.6c0.3,0,0.5-0.2,0.7-0.4l0.6-1.4h0.6c0.4,0,0.7-0.3,0.7-0.7
			c0-0.4-0.3-0.7-0.7-0.7l0.7-1.6c0.1-0.2,0.1-0.4,0-0.6l-2.9-6.2c0-0.1-0.1-0.1-0.1-0.2l-3-3.4c-0.1-0.2-0.3-0.2-0.5-0.2h-3.4h-0.4
			H55.5h-0.8H13h-0.4H9.2C9,0,8.8,0.1,8.6,0.3l-3,3.4c0,0.1-0.1,0.1-0.1,0.2L2.6,10c-0.1,0.2-0.1,0.4,0,0.6l0.7,1.6
			c-0.4,0-0.7,0.3-0.7,0.7c0,0.4,0.3,0.7,0.7,0.7H4L4.6,15c0.1,0.3,0.4,0.4,0.7,0.4h0.6c0,1.1,0.8,2.1,1.9,2.3H0v1.4h19.4v0H324
			v-1.4H103.3z M59,17.6c0.1,0,0.1,0,0.2,0c0,0,0.1,0,0.2,0h-3.2c0.1,0,0.1,0,0.2,0c0.1,0,0.1,0,0.2-0.1c0.1,0,0.2-0.1,0.3-0.1
			c0.1,0,0.1-0.1,0.2-0.1c0.1,0,0.1-0.1,0.2-0.1c0.1-0.1,0.1-0.1,0.2-0.2c0.1-0.1,0.1-0.1,0.1-0.2c0.1-0.1,0.1-0.1,0.2-0.2
			c0.3,0.4,0.7,0.7,1.1,0.9v0C58.9,17.6,58.9,17.6,59,17.6z M62.9,17.6c0.1,0,0.1,0,0.2,0.1c0,0,0.1,0,0.1,0H60c0.1,0,0.1,0,0.2,0
			c0.1,0,0.1,0,0.1,0c0.1,0,0.2-0.1,0.4-0.1c0.1,0,0.1-0.1,0.1-0.1c0.1-0.1,0.2-0.1,0.3-0.2c0,0,0.1-0.1,0.1-0.1
			c0.1-0.1,0.2-0.2,0.3-0.4c0.3,0.4,0.7,0.7,1.1,0.9v0C62.8,17.6,62.8,17.6,62.9,17.6z M66.8,17.6c0.1,0,0.1,0,0.2,0
			c0,0,0.1,0,0.2,0H64c0.1,0,0.1,0,0.2,0c0.1,0,0.1,0,0.2-0.1c0.1,0,0.2-0.1,0.3-0.1c0.1,0,0.1-0.1,0.2-0.1c0.1,0,0.1-0.1,0.2-0.1
			c0.1-0.1,0.1-0.1,0.2-0.2c0.1-0.1,0.1-0.1,0.1-0.2c0.1-0.1,0.1-0.1,0.2-0.2c0.3,0.4,0.7,0.7,1.1,0.9v0
			C66.7,17.6,66.8,17.6,66.8,17.6z M70.7,17.6c0.1,0,0.1,0,0.2,0.1c0,0,0.1,0,0.1,0h-3.2c0.1,0,0.1,0,0.2,0c0.1,0,0.1,0,0.1,0
			c0.1,0,0.2-0.1,0.4-0.1c0.1,0,0.1-0.1,0.1-0.1c0.1-0.1,0.2-0.1,0.3-0.2c0,0,0.1-0.1,0.1-0.1c0.1-0.1,0.2-0.2,0.3-0.4
			c0.3,0.4,0.7,0.7,1.1,0.9v0C70.6,17.6,70.7,17.6,70.7,17.6z M74.7,17.6c0.1,0,0.1,0,0.2,0c0,0,0.1,0,0.2,0h-3.2c0.1,0,0.1,0,0.2,0
			c0.1,0,0.1,0,0.2-0.1c0.1,0,0.2-0.1,0.3-0.1c0.1,0,0.2-0.1,0.2-0.1c0.1,0,0.1-0.1,0.2-0.1c0.1-0.1,0.1-0.1,0.2-0.2
			c0,0,0.1-0.1,0.1-0.1c0.1-0.1,0.1-0.1,0.2-0.2c0.3,0.4,0.7,0.7,1.1,0.9v0C74.6,17.6,74.6,17.6,74.7,17.6z M78.6,17.6
			c0.1,0,0.1,0,0.2,0.1c0,0,0.1,0,0.1,0h-3.2c0.1,0,0.1,0,0.2,0c0.1,0,0.1,0,0.1,0c0.1,0,0.2-0.1,0.4-0.1c0.1,0,0.1-0.1,0.1-0.1
			c0.1-0.1,0.2-0.1,0.3-0.2c0,0,0.1-0.1,0.1-0.1c0.1-0.1,0.2-0.2,0.3-0.4c0.3,0.4,0.7,0.7,1.1,0.9v0C78.5,17.6,78.5,17.6,78.6,17.6z
			 M82.5,17.6c0.1,0,0.1,0,0.2,0c0,0,0.1,0,0.2,0h-3.2c0.1,0,0.1,0,0.2,0c0.1,0,0.1,0,0.2-0.1c0.1,0,0.2-0.1,0.3-0.1
			c0.1,0,0.1-0.1,0.2-0.1c0.1,0,0.1-0.1,0.2-0.1c0.1-0.1,0.1-0.1,0.2-0.2C81,17,81,17,81.1,16.9c0.1-0.1,0.1-0.1,0.2-0.2
			c0.3,0.4,0.7,0.7,1.1,0.9v0C82.4,17.6,82.5,17.6,82.5,17.6z M86.4,17.6c0.1,0,0.1,0,0.2,0.1c0,0,0.1,0,0.1,0h-3.2
			c0.1,0,0.1,0,0.2,0c0.1,0,0.1,0,0.1,0c0.1,0,0.2-0.1,0.4-0.1c0.1,0,0.1-0.1,0.1-0.1c0.1-0.1,0.2-0.1,0.3-0.2c0,0,0.1-0.1,0.1-0.1
			c0.1-0.1,0.2-0.2,0.3-0.4c0.3,0.4,0.7,0.7,1.1,0.9v0C86.3,17.6,86.4,17.6,86.4,17.6z M90.4,17.6c0.1,0,0.1,0,0.2,0
			c0,0,0.1,0,0.2,0h-3.2c0.1,0,0.1,0,0.2,0c0.1,0,0.1,0,0.2-0.1c0.1,0,0.2-0.1,0.3-0.1c0.1,0,0.1-0.1,0.2-0.1c0.1,0,0.1-0.1,0.2-0.1
			c0.1-0.1,0.1-0.1,0.2-0.2c0.1-0.1,0.1-0.1,0.1-0.2c0.1-0.1,0.1-0.1,0.2-0.2c0.3,0.4,0.7,0.7,1.1,0.9v0
			C90.2,17.6,90.3,17.6,90.4,17.6z M94.2,17.6c0.1,0,0.1,0,0.2,0.1c0,0,0.1,0,0.1,0h-3.2c0.1,0,0.1,0,0.2,0c0.1,0,0.1,0,0.1,0
			c0.1,0,0.2-0.1,0.4-0.1c0.1,0,0.1-0.1,0.1-0.1c0.1-0.1,0.2-0.1,0.3-0.2c0,0,0.1-0.1,0.1-0.1c0.1-0.1,0.2-0.2,0.3-0.4
			c0.3,0.4,0.7,0.7,1.1,0.9v0C94.2,17.6,94.2,17.6,94.2,17.6z M98.2,17.6c0.1,0,0.1,0,0.2,0c0,0,0.1,0,0.2,0h-3.2c0.1,0,0.1,0,0.2,0
			c0.1,0,0.1,0,0.2-0.1c0.1,0,0.2-0.1,0.3-0.1c0.1,0,0.1-0.1,0.2-0.1c0.1,0,0.1-0.1,0.2-0.1c0.1-0.1,0.1-0.1,0.2-0.2
			c0.1-0.1,0.1-0.1,0.1-0.2c0.1-0.1,0.1-0.1,0.2-0.2c0.3,0.4,0.7,0.7,1.1,0.9v0C98.1,17.6,98.1,17.6,98.2,17.6z M5.7,14L4,10.3
			l2.7-5.8l2.8-3.1h3.1v0h41.7h1.3h42.9v0h3.1l2.8,3.1l2.7,5.8l-1.6,3.7H55.5h-1.1H5.7z M102.4,17.7h-3.2c0.1,0,0.1,0,0.2,0
			c0.1,0,0.1,0,0.1,0c0.1,0,0.2-0.1,0.4-0.1c0.1,0,0.1-0.1,0.1-0.1c0.1-0.1,0.2-0.1,0.3-0.2c0,0,0.1-0.1,0.1-0.1
			c0.1-0.1,0.2-0.2,0.3-0.4C101.2,17.2,101.8,17.6,102.4,17.7z M55.5,17.7L55.5,17.7L55.5,17.7L55.5,17.7z M54.9,17.7h-3.2
			c0.1,0,0.1,0,0.2,0c0.1,0,0.1,0,0.2,0c0.1,0,0.1,0,0.2,0v0c0.5-0.2,0.8-0.5,1.1-0.9c0,0.1,0.1,0.1,0.2,0.2c0,0.1,0.1,0.1,0.1,0.2
			c0.1,0.1,0.1,0.1,0.2,0.2c0.1,0.1,0.1,0.1,0.2,0.1c0.1,0,0.1,0.1,0.2,0.1c0.1,0,0.2,0.1,0.3,0.1c0.1,0,0.1,0,0.2,0.1
			C54.8,17.7,54.9,17.7,54.9,17.7z M51,17.7h-3.2c0,0,0.1,0,0.1,0c0.1,0,0.1,0,0.2-0.1c0,0,0.1,0,0.1,0v0c0.5-0.2,0.9-0.5,1.1-0.9
			c0.1,0.1,0.2,0.3,0.3,0.4c0,0,0.1,0.1,0.1,0.1c0.1,0.1,0.2,0.2,0.3,0.2c0,0,0.1,0.1,0.1,0.1c0.1,0.1,0.2,0.1,0.4,0.1
			c0,0,0.1,0,0.1,0C50.9,17.7,50.9,17.7,51,17.7z M47.1,17.7h-3.2c0.1,0,0.1,0,0.2,0c0.1,0,0.1,0,0.2,0c0.1,0,0.1,0,0.2,0v0
			c0.5-0.2,0.8-0.5,1.1-0.9c0,0.1,0.1,0.1,0.2,0.2c0,0.1,0.1,0.1,0.1,0.2c0.1,0.1,0.1,0.1,0.2,0.2c0.1,0.1,0.1,0.1,0.2,0.1
			c0.1,0,0.1,0.1,0.2,0.1c0.1,0,0.2,0.1,0.3,0.1c0.1,0,0.1,0,0.2,0.1C47,17.7,47,17.7,47.1,17.7z M43.2,17.7H40c0,0,0.1,0,0.1,0
			c0.1,0,0.1,0,0.2-0.1c0,0,0.1,0,0.1,0v0c0.5-0.2,0.9-0.5,1.1-0.9c0.1,0.1,0.2,0.3,0.3,0.4c0,0,0.1,0.1,0.1,0.1
			c0.1,0.1,0.2,0.2,0.3,0.2c0,0,0.1,0.1,0.1,0.1c0.1,0.1,0.2,0.1,0.4,0.1c0,0,0.1,0,0.1,0C43,17.7,43.1,17.7,43.2,17.7z M39.2,17.7
			H36c0.1,0,0.1,0,0.2,0c0.1,0,0.1,0,0.2,0c0.1,0,0.1,0,0.2,0v0c0.5-0.2,0.8-0.5,1.1-0.9c0.1,0.1,0.1,0.1,0.2,0.2
			c0,0,0.1,0.1,0.1,0.1c0.1,0.1,0.1,0.1,0.2,0.2c0.1,0,0.1,0.1,0.2,0.1c0.1,0,0.1,0.1,0.2,0.1c0.1,0,0.2,0.1,0.3,0.1
			c0.1,0,0.1,0,0.2,0.1C39.1,17.7,39.2,17.7,39.2,17.7z M35.3,17.7h-3.2c0,0,0.1,0,0.1,0c0.1,0,0.1,0,0.2-0.1c0,0,0.1,0,0.1,0v0
			c0.5-0.2,0.9-0.5,1.1-0.9c0.1,0.1,0.2,0.3,0.3,0.4c0,0,0.1,0.1,0.1,0.1c0.1,0.1,0.2,0.2,0.3,0.2c0,0,0.1,0.1,0.1,0.1
			c0.1,0.1,0.2,0.1,0.4,0.1c0,0,0.1,0,0.1,0C35.2,17.7,35.3,17.7,35.3,17.7z M31.4,17.7h-3.2c0.1,0,0.1,0,0.2,0c0.1,0,0.1,0,0.2,0
			c0.1,0,0.1,0,0.2,0v0c0.5-0.2,0.8-0.5,1.1-0.9c0,0.1,0.1,0.1,0.2,0.2c0,0.1,0.1,0.1,0.1,0.2c0.1,0.1,0.1,0.1,0.2,0.2
			c0.1,0.1,0.1,0.1,0.2,0.1c0.1,0,0.1,0.1,0.2,0.1c0.1,0,0.2,0.1,0.3,0.1c0.1,0,0.1,0,0.2,0.1C31.3,17.7,31.3,17.7,31.4,17.7z
			 M27.5,17.7h-3.2c0,0,0.1,0,0.1,0c0.1,0,0.1,0,0.2-0.1c0,0,0.1,0,0.1,0v0c0.5-0.2,0.9-0.5,1.1-0.9c0.1,0.1,0.2,0.3,0.3,0.4
			c0,0,0.1,0.1,0.1,0.1c0.1,0.1,0.2,0.2,0.3,0.2c0,0,0.1,0.1,0.1,0.1c0.1,0.1,0.2,0.1,0.4,0.1c0,0,0.1,0,0.1,0
			C27.4,17.7,27.4,17.7,27.5,17.7z M23.5,17.7h-3.2c0.1,0,0.1,0,0.2,0c0.1,0,0.1,0,0.2,0c0.1,0,0.1,0,0.2,0v0
			c0.5-0.2,0.8-0.5,1.1-0.9c0,0.1,0.1,0.1,0.2,0.2c0,0.1,0.1,0.1,0.1,0.2c0.1,0.1,0.1,0.1,0.2,0.2c0.1,0.1,0.1,0.1,0.2,0.1
			c0.1,0,0.1,0.1,0.2,0.1c0.1,0,0.2,0.1,0.3,0.1c0.1,0,0.1,0,0.2,0.1C23.4,17.7,23.5,17.7,23.5,17.7z M15.5,17.7c0.1,0,0.1,0,0.2,0
			h-3.2c0.1,0,0.1,0,0.2,0c0.1,0,0.1,0,0.2,0c0.1,0,0.1,0,0.2,0v0c0.5-0.2,0.8-0.5,1.1-0.9c0,0.1,0.1,0.1,0.2,0.2
			c0,0.1,0.1,0.1,0.1,0.2c0.1,0.1,0.1,0.1,0.2,0.2c0.1,0.1,0.1,0.1,0.2,0.1c0.1,0,0.1,0.1,0.2,0.1c0.1,0,0.2,0.1,0.3,0.1
			C15.4,17.6,15.5,17.7,15.5,17.7z M10.2,16.7c0.1,0.1,0.2,0.3,0.3,0.4c0,0,0.1,0.1,0.1,0.1c0.1,0.1,0.2,0.2,0.3,0.2
			c0,0,0.1,0.1,0.1,0.1c0.1,0.1,0.2,0.1,0.4,0.1c0,0,0.1,0,0.1,0c0.1,0,0.1,0,0.2,0H8.6C9.3,17.6,9.8,17.2,10.2,16.7z M19.4,17.7
			h-2.9c0,0,0.1,0,0.1,0c0.1,0,0.1,0,0.2-0.1c0,0,0.1,0,0.1,0v0c0.5-0.2,0.9-0.5,1.1-0.9c0.1,0.1,0.2,0.3,0.3,0.4
			c0,0,0.1,0.1,0.1,0.1c0.1,0.1,0.2,0.2,0.3,0.2c0,0,0.1,0.1,0.1,0.1C19.1,17.5,19.2,17.6,19.4,17.7C19.4,17.6,19.4,17.7,19.4,17.7
			c0.1,0,0.2,0,0.3,0L19.4,17.7L19.4,17.7z"/>
		<g>
			<path class="st0" d="M97.4,6.9H83.2c-0.1,0-0.2,0-0.3-0.1l-5.1-2.6C77.6,4.1,77.3,4,77,4H55c0,0-0.1,0-0.1,0c0,0-0.1,0-0.1,0
				H34.1c-0.3,0-0.6,0.1-0.9,0.2l-5.1,2.6c-0.1,0.1-0.2,0.1-0.3,0.1H13.6c-0.4,0-0.7,0.3-0.7,0.7v1c0,0.4,0.3,0.7,0.7,0.7h14.5
				c0.3,0,0.6-0.1,0.9-0.2L34,6.5c0.1-0.1,0.2-0.1,0.3-0.1h20.5c0,0,0.1,0,0.1,0c0,0,0.1,0,0.1,0h21.7c0.1,0,0.2,0,0.3,0.1l5.1,2.6
				c0.3,0.1,0.6,0.2,0.9,0.2h14.5c0.4,0,0.7-0.3,0.7-0.7v-1C98.1,7.2,97.8,6.9,97.4,6.9z"/>
			<path class="st0" d="M76.5,9.3h-21h-0.3H34.5c-0.4,0-0.7,0.3-0.7,0.7V11c0,0.4,0.3,0.7,0.7,0.7h20.7h0.3h21
				c0.4,0,0.7-0.3,0.7-0.7V10C77.2,9.6,76.9,9.3,76.5,9.3z"/>
		</g>
		<rect x="88.1" y="6.1" class="st4" width="0.5" height="7.9"/>
		<g>
			<path class="st4" d="M10.7,6.9h-0.3c-0.4,0-0.7,0.3-0.7,0.7v1.3c0,0.4,0.3,0.7,0.7,0.7h0.3c0.4,0,0.7-0.3,0.7-0.7V7.6
				C11.4,7.2,11.1,6.9,10.7,6.9z"/>
			<path class="st4" d="M37.9,4.4h-1.6c-0.5,0-0.8,0.3-0.8,0.7v0.3c0,0.4,0.4,0.7,0.8,0.7h1.6c0.5,0,0.8-0.3,0.8-0.7V5.1
				C38.7,4.7,38.3,4.4,37.9,4.4z"/>
			<path class="st4" d="M37.9,9.7h-1.6c-0.5,0-0.8,0.3-0.8,0.7v0.3c0,0.4,0.4,0.7,0.8,0.7h1.6c0.5,0,0.8-0.3,0.8-0.7v-0.3
				C38.7,10,38.3,9.7,37.9,9.7z"/>
			<path class="st4" d="M16.8,7.2h-1.6c-0.5,0-0.8,0.3-0.8,0.7v0.3c0,0.4,0.4,0.7,0.8,0.7h1.6c0.5,0,0.8-0.3,0.8-0.7V7.9
				C17.6,7.5,17.3,7.2,16.8,7.2z"/>
			<path class="st4" d="M43,4.4h-1.6c-0.5,0-0.8,0.3-0.8,0.7v0.3c0,0.4,0.4,0.7,0.8,0.7H43c0.5,0,0.8-0.3,0.8-0.7V5.1
				C43.9,4.7,43.5,4.4,43,4.4z"/>
			<path class="st4" d="M43,9.7h-1.6c-0.5,0-0.8,0.3-0.8,0.7v0.3c0,0.4,0.4,0.7,0.8,0.7H43c0.5,0,0.8-0.3,0.8-0.7v-0.3
				C43.9,10,43.5,9.7,43,9.7z"/>
			<path class="st4" d="M48.2,4.4h-1.6c-0.5,0-0.8,0.3-0.8,0.7v0.3c0,0.4,0.4,0.7,0.8,0.7h1.6c0.5,0,0.8-0.3,0.8-0.7V5.1
				C49,4.7,48.7,4.4,48.2,4.4z"/>
			<path class="st4" d="M48.2,9.7h-1.6c-0.5,0-0.8,0.3-0.8,0.7v0.3c0,0.4,0.4,0.7,0.8,0.7h1.6c0.5,0,0.8-0.3,0.8-0.7v-0.3
				C49,10,48.7,9.7,48.2,9.7z"/>
			<path class="st4" d="M53.4,4.4h-1.6c-0.5,0-0.8,0.3-0.8,0.7v0.3c0,0.4,0.4,0.7,0.8,0.7h1.6c0.5,0,0.8-0.3,0.8-0.7V5.1
				C54.2,4.7,53.8,4.4,53.4,4.4z"/>
			<path class="st4" d="M53.4,9.7h-1.6c-0.5,0-0.8,0.3-0.8,0.7v0.3c0,0.4,0.4,0.7,0.8,0.7h1.6c0.5,0,0.8-0.3,0.8-0.7v-0.3
				C54.2,10,53.8,9.7,53.4,9.7z"/>
			<path class="st4" d="M24.7,5.9h-3.9c-0.6,0-1,0.5-1,1V14h0.5V6.9c0-0.3,0.2-0.5,0.5-0.5h1.7V14H23V6.4h1.7c0.3,0,0.5,0.2,0.5,0.5
				V14h0.5V6.9C25.7,6.3,25.2,5.9,24.7,5.9z"/>
			<path class="st4" d="M21.5,7.1h-0.2c-0.3,0-0.5,0.2-0.5,0.5v0.9C20.7,8.8,21,9,21.2,9h0.2C21.8,9,22,8.8,22,8.5V7.6
				C22,7.3,21.8,7.1,21.5,7.1z"/>
			<path class="st4" d="M24.2,7.1H24c-0.3,0-0.5,0.2-0.5,0.5v0.9C23.5,8.8,23.7,9,24,9h0.2c0.3,0,0.5-0.2,0.5-0.5V7.6
				C24.7,7.3,24.5,7.1,24.2,7.1z"/>
			<path class="st4" d="M100.7,6.9h-0.3c-0.4,0-0.7,0.3-0.7,0.7v1.3c0,0.4,0.3,0.7,0.7,0.7h0.3c0.4,0,0.7-0.3,0.7-0.7V7.6
				C101.4,7.2,101.1,6.9,100.7,6.9z"/>
			<path class="st4" d="M74.7,4.4h-1.6c-0.5,0-0.8,0.3-0.8,0.7v0.3c0,0.4,0.4,0.7,0.8,0.7h1.6c0.5,0,0.8-0.3,0.8-0.7V5.1
				C75.6,4.7,75.2,4.4,74.7,4.4z"/>
			<path class="st4" d="M74.7,9.7h-1.6c-0.5,0-0.8,0.3-0.8,0.7v0.3c0,0.4,0.4,0.7,0.8,0.7h1.6c0.5,0,0.8-0.3,0.8-0.7v-0.3
				C75.6,10,75.2,9.7,74.7,9.7z"/>
			<path class="st4" d="M95.8,7.2h-1.6c-0.5,0-0.8,0.3-0.8,0.7v0.3c0,0.4,0.4,0.7,0.8,0.7h1.6c0.5,0,0.8-0.3,0.8-0.7V7.9
				C96.6,7.5,96.3,7.2,95.8,7.2z"/>
			<path class="st4" d="M69.6,4.4H68c-0.5,0-0.8,0.3-0.8,0.7v0.3c0,0.4,0.4,0.7,0.8,0.7h1.6c0.5,0,0.8-0.3,0.8-0.7V5.1
				C70.4,4.7,70,4.4,69.6,4.4z"/>
			<path class="st4" d="M69.6,9.7H68c-0.5,0-0.8,0.3-0.8,0.7v0.3c0,0.4,0.4,0.7,0.8,0.7h1.6c0.5,0,0.8-0.3,0.8-0.7v-0.3
				C70.4,10,70,9.7,69.6,9.7z"/>
			<path class="st4" d="M64.4,4.4h-1.6c-0.5,0-0.8,0.3-0.8,0.7v0.3c0,0.4,0.4,0.7,0.8,0.7h1.6c0.5,0,0.8-0.3,0.8-0.7V5.1
				C65.2,4.7,64.9,4.4,64.4,4.4z"/>
			<path class="st4" d="M64.4,9.7h-1.6c-0.5,0-0.8,0.3-0.8,0.7v0.3c0,0.4,0.4,0.7,0.8,0.7h1.6c0.5,0,0.8-0.3,0.8-0.7v-0.3
				C65.2,10,64.9,9.7,64.4,9.7z"/>
			<path class="st4" d="M59.2,4.4h-1.6c-0.5,0-0.8,0.3-0.8,0.7v0.3c0,0.4,0.4,0.7,0.8,0.7h1.6c0.5,0,0.8-0.3,0.8-0.7V5.1
				C60.1,4.7,59.7,4.4,59.2,4.4z"/>
			<path class="st4" d="M59.2,9.7h-1.6c-0.5,0-0.8,0.3-0.8,0.7v0.3c0,0.4,0.4,0.7,0.8,0.7h1.6c0.5,0,0.8-0.3,0.8-0.7v-0.3
				C60.1,10,59.7,9.7,59.2,9.7z"/>
			<path class="st4" d="M90.3,5.9h-3.9c-0.6,0-1,0.5-1,1V14h0.5V6.9c0-0.3,0.2-0.5,0.5-0.5h3.9c0.3,0,0.5,0.2,0.5,0.5V14h0.5V6.9
				C91.3,6.3,90.8,5.9,90.3,5.9z"/>
			<path class="st4" d="M89.8,7.1h-0.2c-0.3,0-0.5,0.2-0.5,0.5v0.9c0,0.3,0.2,0.5,0.5,0.5h0.2c0.3,0,0.5-0.2,0.5-0.5V7.6
				C90.3,7.3,90.1,7.1,89.8,7.1z"/>
			<path class="st4" d="M87.1,7.1h-0.2c-0.3,0-0.5,0.2-0.5,0.5v0.9c0,0.3,0.2,0.5,0.5,0.5h0.2c0.3,0,0.5-0.2,0.5-0.5V7.6
				C87.6,7.3,87.4,7.1,87.1,7.1z"/>
		</g>
	</g>
</g>
<g id="Laag_2">
</g>
<g id="Laag_4">
</g>
<g id="Laag_3">
</g>
<g id="Laag_5">
</g>
<g id="Laag_6">
</g>
<g id="Laag_7">
</g>
</svg>
