<?xml version="1.0" encoding="utf-8"?>
<!-- Generator: Adobe Illustrator 22.0.1, SVG Export Plug-In . SVG Version: 6.00 Build 0)  -->
<svg version="1.1" id="Laag_1" xmlns="http://www.w3.org/2000/svg" xmlns:xlink="http://www.w3.org/1999/xlink" x="0px" y="0px"
	 viewBox="0 0 189.4 81.6" style="enable-background:new 0 0 189.4 81.6;" xml:space="preserve">
<style type="text/css">
	.st0{opacity:0.18;}
	.st1{fill:#FFC917;}
	.st2{fill:#FFD56E;}
	.st3{fill:#4A585C;}
	.st4{fill:#003082;}
</style>
<g>
	<rect x="144.8" y="18.6" class="st0" width="5.2" height="48.5"/>
	<polygon class="st1" points="45.9,16.9 45.9,72.3 42.3,70.3 37.7,65.5 24.2,65.7 15.8,61.5 12.8,54 13.1,46.8 15.1,42 23.3,26.5 
		29.1,20 33,16.8 	"/>
	<path class="st2" d="M45,40.5h-9.5c0,0-16.7,0.4-22.4,12.2l-1.8-5.5l14.1-22.9l20.6-1L45,40.5z"/>
	<path class="st3" d="M21.3,29.3l7.8-11.1h12.6l0.7-0.1l0.3,0.1h3l-0.8,1l0.6,0.3l-0.2,8.2H38c-13.7,0-23.2,20.9-23.2,20.9L14,41.9
		L21.3,29.3z"/>
	
		<rect x="39.3" y="18.6" transform="matrix(-1 -4.504187e-11 4.504187e-11 -1 83.8721 85.7185)" class="st0" width="5.2" height="48.5"/>
	<g>
		<polygon class="st1" points="143.5,16.9 143.5,72.3 147,70.3 151.7,65.5 165.2,65.7 173.5,61.5 176.5,54 176.3,46.8 174.3,42 
			166,26.5 160.3,20 156.4,16.8 		"/>
		<path class="st2" d="M144.4,40.5h9.5c0,0,16.8,0.4,22.4,12.2l1.8-5.5l-14.1-22.9l-20.6-1L144.4,40.5z"/>
		<path class="st3" d="M168,29.3l-7.8-11.1h-12.6L147,18l-0.3,0.1h-3l0.8,1l-0.6,0.3l0.2,8.2h7.2c13.7,0,23.2,20.9,23.2,20.9
			l0.9-6.6L168,29.3z"/>
		<g>
			<rect x="121.7" y="76.6" class="st4" width="67.7" height="5"/>
		</g>
		<path class="st4" d="M144,66.3v9.9c0.9,0.4,1.9,0.6,2.9,0.6c2.8,0,5.3-1.4,6.8-3.6c1.5,2.2,4,3.6,6.8,3.6c4.6,0,8.3-3.7,8.3-8.3
			c0-0.8-0.1-1.5-0.3-2.2H144z"/>
		<path class="st4" d="M180.3,49.7l-10-21.5c-0.1-0.2-0.2-0.4-0.4-0.6l-10.6-11.8c-0.5-0.5-1.2-0.8-1.9-0.8h-13.2v5h12.1l9.6,10.7
			l9.4,20.1l-5.8,12.9h-26.9v5h28.5c1,0,1.9-0.6,2.3-1.5l2.1-4.8h2.2c1.4,0,2.5-1.1,2.5-2.5c0-1.4-1.1-2.5-2.5-2.5l2.5-5.7
			C180.6,51.1,180.6,50.4,180.3,49.7z"/>
	</g>
	<g>
		<rect x="0" y="76.6" class="st4" width="67.7" height="5"/>
	</g>
	<path class="st4" d="M45.3,66.3v9.9c-0.9,0.4-1.9,0.6-2.9,0.6c-2.8,0-5.3-1.4-6.8-3.6c-1.5,2.2-4,3.6-6.8,3.6
		c-4.6,0-8.3-3.7-8.3-8.3c0-0.8,0.1-1.5,0.3-2.2H45.3z"/>
	<path class="st4" d="M9.1,49.7l10-21.5c0.1-0.2,0.2-0.4,0.4-0.6l10.6-11.8c0.5-0.5,1.2-0.8,1.9-0.8h13.2v5H33.1l-9.6,10.7
		l-9.4,20.1l5.8,12.9h26.9v5H18.2c-1,0-1.9-0.6-2.3-1.5l-2.1-4.8h-2.2c-1.4,0-2.5-1.1-2.5-2.5c0-1.4,1.1-2.5,2.5-2.5L9,51.8
		C8.8,51.1,8.8,50.4,9.1,49.7z"/>
	<g>
		<g>
			<g>
				<path class="st4" d="M89.7,42.8L86,39.2c-1.2-1.1-2.8-1.9-4.6-1.9H68.9l4.6-4.6h11.8c0.5,0,1,0.2,1.3,0.6l3.1,3.1v-6.5
					C88.6,28.7,87,28,85.4,28H71.6L60,39.6l11.6,11.6h6.6l-9.3-9.3h12.5c0.5,0,0.9,0.2,1.3,0.5l6.9,6.8c0,0,0.1,0.1,0.1,0.1V42.8z"
					/>
			</g>
			<g>
				<path class="st4" d="M117.8,28h-6.6l9.3,9.3H108c-0.5,0-1-0.2-1.3-0.5l-6.9-6.9c0,0-0.1-0.1-0.1-0.1v6.6l3.7,3.7
					c1.2,1.1,2.8,1.9,4.6,1.9h12.5l-4.6,4.6h-11.8c-0.5,0-1-0.2-1.3-0.6l-3.1-3.1v6.6c1.1,1.1,2.7,1.7,4.4,1.7h13.7l11.6-11.6
					L117.8,28z"/>
			</g>
		</g>
		<path class="st4" d="M146.6,63.6L146.6,63.6V32.4V16.8V7.1h-8.8V1l-2.1-0.3c-21-3.4-35.9,7.4-40.9,11.8
			c-5-4.3-19.9-15.2-40.9-11.8L51.7,1v6h-8.9v9.7V25l0,38.6h0v18h1.4h2.1h45.8h5h45.8h2.1h1.3V63.6z M92.2,76.6H47.9l0-10.6V22h0V12
			h3.9v55.7l2.9-0.4c0.2,0,17-2.5,29.1,4.9l2.6-4.3c-10.6-6.5-23.8-6.4-29.6-5.9V5.3c19-2.2,32.4,8.8,35.5,11.6V76.6z M141.6,66
			l0,10.6H97.2V16.9c3.1-2.9,16.4-13.8,35.5-11.6V62c-5.8-0.4-19-0.6-29.6,5.9l2.6,4.3c12-7.4,28.9-4.9,29.1-4.9l2.9,0.4V12.1h3.8
			v10h0V66z"/>
	</g>
</g>
</svg>
