<?xml version="1.0" encoding="utf-8"?>
<!-- Generator: Adobe Illustrator 22.0.1, SVG Export Plug-In . SVG Version: 6.00 Build 0)  -->
<svg version="1.1" xmlns="http://www.w3.org/2000/svg" xmlns:xlink="http://www.w3.org/1999/xlink" x="0px" y="0px"
	 viewBox="0 0 2285.3 686.5" style="enable-background:new 0 0 2285.3 686.5;" xml:space="preserve">
<style type="text/css">
	.st0{fill:none;stroke:#FF0000;stroke-width:4;stroke-linecap:round;stroke-linejoin:round;stroke-miterlimit:10;}
</style>
<g id="Laag_2">
</g>
<g id="Laag_1">
	<g>
		<polyline class="st0" points="160.1,119.2 184.4,232.3 95.1,228.2 		"/>
		<polyline class="st0" points="32.1,103.2 206,232.7 221.4,195.3 		"/>
		<polyline class="st0" points="352.1,77.2 234.4,232.7 198.6,171.7 		"/>
		<line class="st0" x1="263.7" y1="232.7" x2="162.1" y2="87.2"/>
		<polyline class="st0" points="222.1,27.2 281.6,231.9 318.2,176.6 		"/>
		<polyline class="st0" points="389.7,169.3 318.2,231.9 296.2,157.1 		"/>
		<polyline class="st0" points="375.9,167.6 353.1,234.3 393,214 		"/>
		<polyline class="st0" points="379.2,208.3 379.2,244.1 436.1,227.8 		"/>
		<polyline class="st0" points="414.1,219.7 398.7,262 436.1,275 		"/>
		<polyline class="st0" points="428.8,261.1 409.3,287.2 424.7,289.6 		"/>
		<polyline class="st0" points="419.8,349.8 410.1,314.8 432.8,302.6 		"/>
		<polyline class="st0" points="423.9,337.6 400.3,339.2 393,385.6 		"/>
		<polyline class="st0" points="371,408.3 382.4,358.7 403.6,374.2 		"/>
		<polyline class="st0" points="381.6,399.4 358,370.1 335.3,407.5 		"/>
		<line class="st0" x1="329.6" y1="374.2" x2="347.5" y2="417.3"/>
		<polyline class="st0" points="308.4,408.3 314.1,375 297.8,395.3 		"/>
		<polyline class="st0" points="323.1,401 282.4,375 289.7,392.9 		"/>
		<polyline class="st0" points="294.6,420.5 282.4,410.8 296.2,405.9 		"/>
		<polyline class="st0" points="302.7,449 281.6,449.8 292.2,433.5 		"/>
		<polyline class="st0" points="315.1,429.2 314.9,469.3 351.1,451.2 		"/>
		<polyline class="st0" points="324.7,445.7 288.1,469.3 300.3,433.5 		"/>
		<polyline class="st0" points="310,284.7 282.4,262 324.7,276.6 		"/>
		<line class="st0" x1="334.4" y1="262" x2="297.8" y2="287.2"/>
		<polyline class="st0" points="311.7,298.5 336.9,291.2 321.4,314.8 		"/>
		<polyline class="st0" points="297.8,300.2 281.6,289.6 288.9,276.6 		"/>
		<polyline class="st0" points="292.2,286.4 281.6,318.9 310.9,331.9 		"/>
		<polyline class="st0" points="308.4,320.5 281.6,347.3 301.9,349 		"/>
		<polyline class="st0" points="315.7,322.1 336.9,320.5 316.6,345.7 		"/>
		<polyline class="st0" points="319,328.6 332.8,350.6 310.9,351.4 		"/>
		<polyline class="st0" points="295.4,357.1 314.1,375 319.8,357.1 		"/>
		<polyline class="st0" points="127.1,310.2 211.7,262 173.4,255.5 		"/>
		<polyline class="st0" points="97.1,253.2 211.7,290.4 136.1,356.2 		"/>
		<polyline class="st0" points="174.2,311.6 210.8,319.7 187.3,349.8 		"/>
		<polyline class="st0" points="22.1,227.2 210.8,349 177.5,370.1 		"/>
		<polyline class="st0" points="166.1,410 210,377.4 172.6,354.7 		"/>
		<polyline class="st0" points="185.6,427.8 210.8,405.9 48.1,336.2 		"/>
		<polyline class="st0" points="182.4,417.3 210.8,434.4 107.1,483.2 		"/>
		<polyline class="st0" points="137.1,405.2 182.4,469.3 200.3,451.4 		"/>
		<polyline class="st0" points="248.1,586.2 205.1,468.5 58.1,662.2 		"/>
		<polyline class="st0" points="174.1,571.2 229.5,468.5 288.1,555.2 		"/>
		<polyline class="st0" points="220.1,542.2 258,468.5 268.1,541.2 		"/>
		<line class="st0" x1="288.1" y1="469.3" x2="291.1" y2="529.2"/>
		<polyline class="st0" points="366.2,501.8 393,470.1 395.4,496.2 		"/>
		<polyline class="st0" points="384,444.9 419,470.1 405.2,442.5 		"/>
		<polyline class="st0" points="413.3,426.2 424.7,454.7 378.4,457.9 		"/>
		<polyline class="st0" points="396.2,436 432,432.7 422.3,401 		"/>
		<polyline class="st0" points="418.2,406.7 439.3,403.5 425.5,369.3 		"/>
		<polyline class="st0" points="436.1,338.4 447.5,377.4 423.9,383.9 		"/>
		<polyline class="st0" points="449.1,300.2 454,348.2 431.2,346.5 		"/>
		<polyline class="st0" points="457.2,256.3 462.1,322.1 445.8,321.3 		"/>
		<polyline class="st0" points="451.5,289.6 469.4,294.5 453.2,272.5 		"/>
		<polyline class="st0" points="453.2,265.2 477.6,266.8 460.5,212.4 		"/>
		<polyline class="st0" points="454.8,237.6 483.3,237.6 495.5,192 		"/>
		<polyline class="st0" points="466.2,192.8 506,231.9 530.4,176.6 		"/>
		<polyline class="st0" points="491.4,147.3 530.4,231.1 548.3,163.6 		"/>
		<polyline class="st0" points="530.4,192 557.3,231.1 594.7,198.5 		"/>
		<polyline class="st0" points="593.8,248.9 561.3,249.8 573.5,206.7 		"/>
		<polyline class="st0" points="581.7,227.8 568.6,276.6 628,291.2 		"/>
		<polyline class="st0" points="615.8,275.8 577.6,305.1 619.9,331.9 		"/>
		<polyline class="st0" points="615,314 584.9,331.9 639.4,356.3 		"/>
		<polyline class="st0" points="623.1,342.5 593.8,359.5 619.9,374.2 		"/>
		<polyline class="st0" points="610.1,363.6 602,387.2 641,395.3 		"/>
		<polyline class="st0" points="621.5,384.7 610.1,414 654,421.3 		"/>
		<polyline class="st0" points="634.5,408.3 618.2,442.5 653.2,448.2 		"/>
		<polyline class="st0" points="450.7,434.4 443.4,468.5 485.3,420.9 		"/>
		<polyline class="st0" points="460.9,419.3 469.4,469.3 491.8,437.2 		"/>
		<polyline class="st0" points="464.6,407.5 457.2,392.9 494.6,410 		"/>
		<polyline class="st0" points="472.7,405.1 500.3,392.1 515.8,420.5 		"/>
		<line class="st0" x1="525.5" y1="404.3" x2="504.4" y2="423.8"/>
		<polyline class="st0" points="493.4,429.1 532.9,431.1 499.9,450.2 		"/>
		<line class="st0" x1="541.8" y1="455.5" x2="504" y2="438.8"/>
		<polyline class="st0" points="486.9,459.2 515.8,467.7 524.7,453.1 		"/>
		<polyline class="st0" points="511.7,453.9 536.1,469.3 532,455.5 		"/>
		<polyline class="st0" points="480.4,383.5 517.4,373.4 476.8,353 		"/>
		<polyline class="st0" points="488.1,364.4 510.1,346.5 487.3,318.9 		"/>
		<line class="st0" x1="502" y1="318.1" x2="487.3" y2="338.4"/>
		<polyline class="st0" points="476.3,331.5 493.8,291.2 478.4,285.5 		"/>
		<line class="st0" x1="457.2" y1="392.9" x2="470.2" y2="341.6"/>
		<line class="st0" x1="455.6" y1="349" x2="484.5" y2="373.8"/>
		<polyline class="st0" points="410.5,504.7 418.6,469.7 447.1,510.4 		"/>
		<line class="st0" x1="443.8" y1="468.1" x2="424.3" y2="506.3"/>
		<line class="st0" x1="443.8" y1="471.4" x2="467.4" y2="490.9"/>
		<polyline class="st0" points="456.8,494.9 469,468.9 510.5,503.9 		"/>
		<polyline class="st0" points="486.9,501.4 516.2,469.7 530.8,491.7 		"/>
		<polyline class="st0" points="521.1,488.4 536.5,468.9 563.4,496.6 		"/>
		<polyline class="st0" points="552.8,515.3 565.8,469.7 607.3,490.1 		"/>
		<polyline class="st0" points="579.6,481.1 593.4,468.9 603.2,500.6 		"/>
		<polyline class="st0" points="588.6,494.1 626,468.9 639.8,507.9 		"/>
		<line class="st0" x1="647.1" y1="469.7" x2="622.7" y2="503.9"/>
		<g>
			<polyline class="st0" points="904.9,502.3 931.7,470.5 934.2,496.6 			"/>
			<polyline class="st0" points="922.8,445.3 957.8,470.5 943.9,442.9 			"/>
			<polyline class="st0" points="952.1,426.6 963.4,455.1 917.1,458.3 			"/>
			<polyline class="st0" points="935,436.4 970.8,433.1 961,401.4 			"/>
			<polyline class="st0" points="956.9,407.1 978.1,403.9 964.3,369.7 			"/>
			<polyline class="st0" points="974.8,338.8 986.2,377.8 962.6,384.3 			"/>
			<polyline class="st0" points="987.8,300.6 992.7,348.6 969.9,346.9 			"/>
			<polyline class="st0" points="996,256.7 1000.8,322.5 984.6,321.7 			"/>
			<polyline class="st0" points="990.3,290 1008.2,294.9 991.9,272.9 			"/>
			<polyline class="st0" points="991.9,265.6 1016.3,267.2 999.2,212.8 			"/>
			<polyline class="st0" points="993.5,238 1022,238 1034.2,192.4 			"/>
			<polyline class="st0" points="1004.9,193.2 1044.8,232.3 1083,187.5 			"/>
			<polyline class="st0" points="1126.9,159.9 1069.2,231.5 1040.7,165.6 			"/>
			<polyline class="st0" points="1069.2,192.4 1096,231.5 1133.4,198.9 			"/>
			<polyline class="st0" points="1132.6,249.4 1100.1,250.2 1112.3,207.1 			"/>
			<polyline class="st0" points="1120.4,228.2 1107.4,277 1166.7,291.6 			"/>
			<polyline class="st0" points="1154.5,276.2 1116.3,305.5 1158.6,332.3 			"/>
			<polyline class="st0" points="1153.7,314.4 1123.6,332.3 1178.1,356.7 			"/>
			<polyline class="st0" points="1161.9,342.9 1132.6,359.9 1158.6,374.6 			"/>
			<polyline class="st0" points="1148.8,364 1140.7,387.6 1179.8,395.7 			"/>
			<polyline class="st0" points="1160.2,385.2 1148.8,414.4 1192.8,421.7 			"/>
			<polyline class="st0" points="1173.2,408.7 1157,442.9 1191.9,448.6 			"/>
			<polyline class="st0" points="989.5,434.8 982.1,468.9 1024,421.3 			"/>
			<polyline class="st0" points="999.6,419.7 1008.2,469.7 1030.5,437.6 			"/>
			<polyline class="st0" points="1003.3,407.9 996,393.3 1033.4,410.4 			"/>
			<polyline class="st0" points="1011.4,405.5 1039.1,392.5 1054.5,420.9 			"/>
			<line class="st0" x1="1064.3" y1="404.7" x2="1043.1" y2="424.2"/>
			<polyline class="st0" points="1032.2,429.5 1071.6,431.5 1038.7,450.6 			"/>
			<line class="st0" x1="1080.5" y1="455.9" x2="1042.7" y2="439.2"/>
			<polyline class="st0" points="1025.7,459.6 1054.5,468.1 1063.5,453.5 			"/>
			<polyline class="st0" points="1050.5,454.3 1074.8,469.7 1070.8,455.9 			"/>
			<polyline class="st0" points="1019.1,383.9 1056.1,373.8 1015.5,353.4 			"/>
			<polyline class="st0" points="1026.9,364.8 1048.8,346.9 1026.1,319.3 			"/>
			<line class="st0" x1="1040.7" y1="318.5" x2="1026.1" y2="338.8"/>
			<polyline class="st0" points="1015.1,331.9 1032.6,291.6 1017.1,285.9 			"/>
			<line class="st0" x1="996" y1="393.3" x2="1009" y2="342.1"/>
			<line class="st0" x1="994.3" y1="349.4" x2="1023.2" y2="374.2"/>
			<polyline class="st0" points="949.2,505.1 957.3,470.1 985.8,510.8 			"/>
			<line class="st0" x1="982.6" y1="468.5" x2="963" y2="506.7"/>
			<line class="st0" x1="982.6" y1="471.8" x2="1006.1" y2="491.3"/>
			<polyline class="st0" points="995.6,495.3 1007.8,469.3 1049.2,504.3 			"/>
			<polyline class="st0" points="1025.7,501.8 1054.9,470.1 1069.6,492.1 			"/>
			<polyline class="st0" points="1059.8,488.8 1075.3,469.3 1102.1,497 			"/>
			<polyline class="st0" points="1091.5,515.7 1104.5,470.1 1146,490.5 			"/>
			<polyline class="st0" points="1118.4,481.5 1132.2,469.3 1141.9,501 			"/>
			<polyline class="st0" points="1127.3,494.5 1164.7,469.3 1178.5,508.4 			"/>
			<line class="st0" x1="1185.8" y1="470.1" x2="1161.5" y2="504.3"/>
		</g>
		<g>
			<polyline class="st0" points="1871.8,502.3 1898.6,470.5 1901,496.6 			"/>
			<polyline class="st0" points="1889.7,445.3 1924.6,470.5 1910.8,442.9 			"/>
			<polyline class="st0" points="1918.9,426.6 1930.3,455.1 1884,458.3 			"/>
			<polyline class="st0" points="1901.9,436.4 1937.6,433.1 1927.9,401.4 			"/>
			<polyline class="st0" points="1923.8,407.1 1945,403.9 1931.1,369.7 			"/>
			<polyline class="st0" points="1941.7,338.8 1953.1,377.8 1929.5,384.3 			"/>
			<polyline class="st0" points="1954.7,300.6 1959.6,348.6 1936.8,346.9 			"/>
			<polyline class="st0" points="1962.8,256.7 1967.7,322.5 1951.5,321.7 			"/>
			<polyline class="st0" points="1957.2,290 1975,294.9 1958.8,272.9 			"/>
			<polyline class="st0" points="1958.8,265.6 1983.2,267.2 1966.1,212.8 			"/>
			<polyline class="st0" points="1960.4,238 1988.9,238 2022.1,127.2 			"/>
			<polyline class="st0" points="1953.9,198.9 2011.6,232.3 2170.1,101.2 			"/>
			<polyline class="st0" points="2000.1,129.2 2036,231.5 2062.1,19.2 			"/>
			<polyline class="st0" points="2036,192.4 2062.9,231.5 2100.1,205.2 			"/>
			<polyline class="st0" points="2190.1,253.2 2066.9,250.2 2066.1,192.4 			"/>
			<polyline class="st0" points="2122.1,193.2 2074.3,277 2188.1,321.2 			"/>
			<polyline class="st0" points="2148.1,267.2 2083.2,305.5 2125.5,332.3 			"/>
			<polyline class="st0" points="2120.6,314.4 2090.5,332.3 2212.1,401.2 			"/>
			<polyline class="st0" points="2160.1,329.2 2099.5,359.9 2125.5,374.6 			"/>
			<polyline class="st0" points="2115.7,364 2107.6,387.6 2182.1,411.2 			"/>
			<polyline class="st0" points="2127.1,385.2 2115.7,414.4 2186.1,433.2 			"/>
			<polyline class="st0" points="2161.1,392.2 2123.9,442.9 2263.1,462.2 			"/>
			<polyline class="st0" points="1956.3,434.8 1949,468.9 1990.9,421.3 			"/>
			<polyline class="st0" points="1966.5,419.7 1975,469.7 1997.4,437.6 			"/>
			<polyline class="st0" points="1970.2,407.9 1962.8,393.3 2000.3,410.4 			"/>
			<polyline class="st0" points="1978.3,405.5 2005.9,392.5 2021.4,420.9 			"/>
			<line class="st0" x1="2031.2" y1="404.7" x2="2010" y2="424.2"/>
			<polyline class="st0" points="1999,429.5 2038.5,431.5 2005.5,450.6 			"/>
			<line class="st0" x1="2047.4" y1="455.9" x2="2009.6" y2="439.2"/>
			<polyline class="st0" points="1992.5,459.6 2021.4,468.1 2030.3,453.5 			"/>
			<polyline class="st0" points="2017.3,454.3 2041.7,469.7 2037.7,455.9 			"/>
			<polyline class="st0" points="1986,383.9 2023,373.8 1982.4,353.4 			"/>
			<polyline class="st0" points="1993.8,364.8 2015.7,346.9 1992.9,319.3 			"/>
			<line class="st0" x1="2007.6" y1="318.5" x2="1992.9" y2="338.8"/>
			<polyline class="st0" points="1982,331.9 1999.4,291.6 1984,285.9 			"/>
			<line class="st0" x1="1962.8" y1="393.3" x2="1975.9" y2="342.1"/>
			<line class="st0" x1="1961.2" y1="349.4" x2="1990.1" y2="374.2"/>
			<polyline class="st0" points="1883.1,555.2 1924.2,470.1 1954.1,532.2 			"/>
			<line class="st0" x1="1949.4" y1="468.5" x2="1931.1" y2="527.2"/>
			<line class="st0" x1="1949.4" y1="471.8" x2="1994.1" y2="528.2"/>
			<polyline class="st0" points="1960.1,519.2 1974.6,469.3 2028.1,539.2 			"/>
			<polyline class="st0" points="1977.1,538.2 2021.8,470.1 2036.4,492.1 			"/>
			<polyline class="st0" points="2026.7,488.8 2042.1,469.3 2058.1,535.2 			"/>
			<polyline class="st0" points="2023.1,593.2 2071.4,470.1 2110.1,558.2 			"/>
			<polyline class="st0" points="2072.1,519.2 2099.1,469.3 2140.1,605.2 			"/>
			<polyline class="st0" points="2060.1,563.2 2131.6,469.3 2211.1,554.2 			"/>
			<line class="st0" x1="2152.7" y1="470.1" x2="2102.1" y2="667.2"/>
		</g>
		<polyline class="st0" points="699.2,503.9 668.3,469.7 668.3,497.4 		"/>
		<polyline class="st0" points="684.5,499 692.7,469.7 728.4,515.3 		"/>
		<polyline class="st0" points="704,494.1 718.7,468.9 759.3,493.3 		"/>
		<polyline class="st0" points="730.1,489.2 747.1,469.7 815.4,496.6 		"/>
		<polyline class="st0" points="744.7,500.6 769.9,469.7 792.7,496.6 		"/>
		<polyline class="st0" points="775.6,495.7 795.1,468.9 802.4,481.9 		"/>
		<polyline class="st0" points="681.3,460 694.3,439.6 665.8,406.3 		"/>
		<polyline class="st0" points="669.9,378.6 694.3,410.4 673.9,430.7 		"/>
		<polyline class="st0" points="680.5,402.2 694.3,381.9 657.7,332.3 		"/>
		<polyline class="st0" points="665,363.2 694.3,353.4 669.1,303.8 		"/>
		<polyline class="st0" points="668.3,316 695.1,324.2 662.6,276.2 		"/>
		<polyline class="st0" points="647.1,276.2 694.3,295.7 675.6,250.2 		"/>
		<polyline class="st0" points="656.9,293.3 694.3,267.2 652,251.8 		"/>
		<polyline class="st0" points="684.5,251.8 671.5,233.1 640.6,220.9 		"/>
		<line class="st0" x1="671.5" y1="233.1" x2="661.8" y2="176.2"/>
		<polyline class="st0" points="634.9,155.8 690.2,232.3 697.5,166.4 		"/>
		<polyline class="st0" points="686.1,183.5 717,233.1 745.5,151 		"/>
		<polyline class="st0" points="713,193.2 742.3,232.3 783.7,182.7 		"/>
		<polyline class="st0" points="746.3,203 770.7,233.9 838.2,200.6 		"/>
		<polyline class="st0" points="756.9,171.3 800.8,232.3 821.9,175.4 		"/>
		<polyline class="st0" points="825.2,194.1 824.4,233.1 887.8,198.9 		"/>
		<polyline class="st0" points="848,208.7 852,237.2 915.5,216 		"/>
		<polyline class="st0" points="870.7,220.1 877.2,248.5 949.6,252.6 		"/>
		<polyline class="st0" points="904.9,237.2 894.3,268.1 934.2,296.5 		"/>
		<polyline class="st0" points="918.7,267.2 897.6,294.9 943.1,325 		"/>
		<polyline class="st0" points="922,300.6 891.9,320.1 917.1,360.8 		"/>
		<polyline class="st0" points="923.6,334.7 872.4,338.8 878.9,360.8 		"/>
		<line class="st0" x1="845.5" y1="346.1" x2="902.5" y2="355.9"/>
		<polyline class="st0" points="891.1,343.7 841.5,360.8 868.3,359.9 		"/>
		<polyline class="st0" points="913,373.8 867.5,369.7 910.6,389.2 		"/>
		<polyline class="st0" points="910.6,380.3 886.2,388.4 923.6,412.8 		"/>
		<polyline class="st0" points="917.9,399.8 891.1,413.6 909.8,420.9 		"/>
		<polyline class="st0" points="909.8,437.2 892.7,442.9 907.3,412.8 		"/>
		<polyline class="st0" points="904.1,433.9 912.2,459.2 915.5,442.1 		"/>
		<polyline class="st0" points="913.8,434.8 922,443.7 926.8,424.2 		"/>
		<polyline class="st0" points="800,295.7 765.8,260.7 783.7,300.6 		"/>
		<polyline class="st0" points="805.7,275.4 765,289.2 802.4,329.9 		"/>
		<polyline class="st0" points="805.7,314.4 765.8,317.7 797.6,304.6 		"/>
		<polyline class="st0" points="770.7,329.9 787,347.7 787.8,326.6 		"/>
		<polyline class="st0" points="811.4,329 821.9,320.9 808.1,285.9 		"/>
		<polyline class="st0" points="796.7,336.4 805.7,346.9 814.6,335.5 		"/>
		<polyline class="st0" points="806.5,306.3 824.4,290.8 812.2,269.7 		"/>
		<polyline class="st0" points="795.1,246.9 820.3,262.4 782.9,259.1 		"/>
		<polyline class="st0" points="798.4,377.8 765.8,347.7 798.4,403.9 		"/>
		<polyline class="st0" points="794.3,359.9 765.8,381.1 780.5,399 		"/>
		<line class="st0" x1="766.7" y1="410.4" x2="807.3" y2="411.2"/>
		<line class="st0" x1="765.8" y1="407.1" x2="805.7" y2="391.7"/>
		<polyline class="st0" points="800,386 809.8,365.6 808.9,384.3 		"/>
		<polyline class="st0" points="787.8,429.1 817.1,389.2 808.1,429.1 		"/>
		<polyline class="st0" points="774.8,420.9 820.3,417.7 784.5,453.5 		"/>
		<polyline class="st0" points="776.4,457.5 765,438 810.6,452.6 		"/>
		<polyline class="st0" points="787,434.8 822.8,447 813.8,469.7 		"/>
		<polyline class="st0" points="823.6,460.8 835,465.7 824.4,488.4 		"/>
		<polyline class="st0" points="837.4,495.7 861,473.8 878.1,507.1 		"/>
		<polyline class="st0" points="852,511.2 889.4,471.4 914.7,503.9 		"/>
		<polyline class="st0" points="893.5,493.3 912.2,459.2 921.2,486.8 		"/>
		<polyline class="st0" points="1190.3,195.7 1215.5,231.5 1264.3,175.4 		"/>
		<polyline class="st0" points="1218,200.6 1244,232.3 1248.9,177.8 		"/>
		<polyline class="st0" points="1259.4,200.6 1272.5,230.6 1305,159.1 		"/>
		<polyline class="st0" points="1279,174.5 1301.7,232.3 1322.1,176.2 		"/>
		<polyline class="st0" points="1318,209.5 1326.1,234.7 1348.1,193.2 		"/>
		<polyline class="st0" points="1336.7,230.6 1340.8,256.7 1370,191.6 		"/>
		<polyline class="st0" points="1356.2,203 1384.7,232.3 1392.8,207.9 		"/>
		<polyline class="st0" points="1384.7,208.7 1412.3,231.5 1433.5,197.3 		"/>
		<polyline class="st0" points="1415.6,203.8 1440.8,231.5 1453.8,184.3 		"/>
		<polyline class="st0" points="1437.5,211.9 1467.6,233.1 1472.5,216.8 		"/>
		<polyline class="st0" points="1490.4,252.6 1441.6,247.7 1465.2,266.4 		"/>
		<polyline class="st0" points="1443.2,259.9 1423.7,265.6 1461.1,299.8 		"/>
		<polyline class="st0" points="1450.5,275.4 1423.7,289.2 1448.1,312 		"/>
		<polyline class="st0" points="1441.6,297.3 1423.7,320.1 1458.7,334.7 		"/>
		<polyline class="st0" points="1453.8,320.9 1423.7,348.6 1457,373.8 		"/>
		<polyline class="st0" points="1444.8,351.8 1425.3,375.4 1461.9,403.9 		"/>
		<polyline class="st0" points="1443.2,377.8 1423.7,402.2 1444.8,407.9 		"/>
		<polyline class="st0" points="1454.6,420.1 1423.7,425.8 1479,452.6 		"/>
		<polyline class="st0" points="1461.1,430.7 1425.3,450.2 1487.9,491.7 		"/>
		<path class="st0" d="M1461.1,459.2l-36.6,12.2c0,0,6.5,45.5,6.5,43.9"/>
		<polyline class="st0" points="1440,499.8 1404.2,473.8 1368.4,529.1 		"/>
		<polyline class="st0" points="1400.9,515.3 1383,473.8 1343.2,494.1 		"/>
		<line class="st0" x1="1370" y1="462.4" x2="1365.2" y2="504.7"/>
		<polyline class="st0" points="1306.6,441.3 1355.4,436.4 1345.6,470.5 		"/>
		<polyline class="st0" points="1273.3,412.8 1343.2,412 1320.4,451.8 		"/>
		<polyline class="st0" points="1278.1,438.8 1328.6,386.8 1263.5,382.7 		"/>
		<polyline class="st0" points="1263.5,403 1315.6,363.2 1263.5,350.2 		"/>
		<polyline class="st0" points="1264.3,368.9 1301.7,336.4 1264.3,316.8 		"/>
		<polyline class="st0" points="1262.7,339.6 1287.1,310.3 1262.7,300.6 		"/>
		<polyline class="st0" points="1259.4,286.8 1274.1,286.8 1257.8,274.6 		"/>
		<polyline class="st0" points="1224.5,359.1 1248.1,372.1 1216.3,386.8 		"/>
		<polyline class="st0" points="1222.8,405.5 1249.7,342.1 1235,342.1 		"/>
		<polyline class="st0" points="1222,344.5 1248.9,314.4 1221.2,299.8 		"/>
		<line class="st0" x1="1249.7" y1="285.1" x2="1222.8" y2="313.6"/>
		<polyline class="st0" points="1239.1,241.2 1248.1,257.5 1215.5,278.6 		"/>
		<polyline class="st0" points="1215.5,424.2 1249.7,399.8 1224.5,438 		"/>
		<polyline class="st0" points="1221.2,429.1 1248.9,430.7 1252.1,418.5 		"/>
		<line class="st0" x1="1239.1" y1="453.5" x2="1208.2" y2="443.7"/>
		<line class="st0" x1="1223.7" y1="469.7" x2="1215.5" y2="435.6"/>
		<polyline class="st0" points="1245.6,504.7 1206.6,469.7 1194.4,494.9 		"/>
		<polyline class="st0" points="1305.8,428.3 1272.5,468.1 1309,453.5 		"/>
		<polyline class="st0" points="1297.7,448.6 1292.8,470.5 1338.3,456.7 		"/>
		<polyline class="st0" points="1260.3,443.7 1260.3,453.5 1274.9,453.5 		"/>
		<polyline class="st0" points="1395.2,242.8 1355.4,281.9 1363.5,238 		"/>
		<line class="st0" x1="1369.2" y1="306.3" x2="1415.6" y2="280.3"/>
		<line class="st0" x1="1369.2" y1="306.3" x2="1396.9" y2="268.9"/>
		<polyline class="st0" points="1402.6,303 1385.5,331.5 1413.1,336.4 		"/>
		<polyline class="st0" points="1413.9,294.1 1400.1,355.1 1414.8,358.3 		"/>
		<polyline class="st0" points="1386.3,264 1411.5,247.7 1409.1,268.9 		"/>
		<polyline class="st0" points="1630.3,285.9 1574.1,247.7 1594.5,307.9 		"/>
		<polyline class="st0" points="1587.2,248.5 1626.2,241.2 1614,259.9 		"/>
		<polyline class="st0" points="1574.1,267.2 1637.6,268.9 1632.7,277.8 		"/>
		<polyline class="st0" points="1604.2,280.3 1560.3,305.5 1618.9,331.5 		"/>
		<polyline class="st0" points="1627,307.1 1564.4,276.2 1570.9,290 		"/>
		<polyline class="st0" points="1616.4,312.8 1559.5,333.1 1580.7,305.5 		"/>
		<polyline class="st0" points="1591.2,336.4 1559.5,363.2 1617.2,375.4 		"/>
		<polyline class="st0" points="1615.6,288.4 1643.3,297.3 1627.8,322.5 		"/>
		<polyline class="st0" points="1623.8,314.4 1644.9,325.8 1588,359.1 		"/>
		<polyline class="st0" points="1601,341.2 1644.1,355.1 1609.9,365.6 		"/>
		<polyline class="st0" points="1613.2,355.1 1644.1,384.3 1588,387.6 		"/>
		<polyline class="st0" points="1575.8,360.8 1561.1,391.7 1609.9,403.9 		"/>
		<polyline class="st0" points="1598.5,381.9 1640.8,412.8 1633.5,390 		"/>
		<polyline class="st0" points="1575.8,383.5 1563.6,420.9 1632.7,425.8 		"/>
		<polyline class="st0" points="1607.5,413.6 1635.9,442.1 1588,464 		"/>
		<polyline class="st0" points="1583.1,410.4 1571.7,449.4 1605,438 		"/>
		<polyline class="st0" points="1616.4,439.6 1631.9,469.7 1624.6,492.5 		"/>
		<polyline class="st0" points="1599.4,451 1604.2,471.4 1608.3,492.5 		"/>
		<polyline class="st0" points="1585.5,432.3 1579,470.5 1574.1,489.2 		"/>
		<line class="st0" x1="1548.3" y1="240.5" x2="1503.4" y2="162.3"/>
		<line class="st0" x1="1548.3" y1="240.5" x2="1553.8" y2="182.7"/>
		<polyline class="st0" points="1539.2,195.7 1575,231.5 1610.7,184.3 		"/>
		<line class="st0" x1="1599.8" y1="227.5" x2="1572.5" y2="192.4"/>
		<line class="st0" x1="1599.8" y1="227.5" x2="1613.2" y2="199.7"/>
		<polyline class="st0" points="1489.6,223.3 1524.5,255.9 1522.9,216.8 		"/>
		<polyline class="st0" points="1505,250.2 1504.2,274.6 1482.3,272.1 		"/>
		<polyline class="st0" points="1483.1,283.5 1491.2,299 1474.9,307.9 		"/>
		<polyline class="st0" points="1469.2,320.1 1483.1,324.2 1466,346.9 		"/>
		<polyline class="st0" points="1470.9,330.7 1481.4,352.6 1467.6,364 		"/>
		<polyline class="st0" points="1466.8,386.8 1483.9,381.1 1475.8,408.7 		"/>
		<polyline class="st0" points="1475.8,424.2 1492,407.1 1489.6,438 		"/>
		<polyline class="st0" points="1492,460.8 1508.3,430.7 1517.2,464.8 		"/>
		<polyline class="st0" points="1504.2,459.2 1527,447.8 1530.2,500.6 		"/>
		<polyline class="st0" points="1518.8,487.6 1552.2,461.6 1569.3,507.9 		"/>
		<line class="st0" x1="1621.4" y1="229.2" x2="1624.6" y2="205.4"/>
		<line class="st0" x1="1621.4" y1="229.2" x2="1686.4" y2="183.5"/>
		<polyline class="st0" points="1637.6,177 1649,237.2 1678.2,209.5 		"/>
		<polyline class="st0" points="1671.7,229.8 1673.4,250.2 1712.4,228.2 		"/>
		<polyline class="st0" points="1709.9,248.5 1692.9,268.1 1735.2,270.5 		"/>
		<polyline class="st0" points="1723,259.1 1710.8,292.5 1732.7,303 		"/>
		<polyline class="st0" points="1731.9,287.6 1719.7,316.8 1748.2,324.2 		"/>
		<polyline class="st0" points="1740.8,311.2 1723,346.1 1738.4,361.6 		"/>
		<polyline class="st0" points="1741.7,346.1 1721.3,373 1741.7,391.7 		"/>
		<polyline class="st0" points="1739.2,377.8 1714.8,400.6 1733.5,418.5 		"/>
		<polyline class="st0" points="1736,407.1 1701,423.4 1725.4,456.7 		"/>
		<polyline class="st0" points="1705.1,444.5 1680.7,443.7 1688,465.7 		"/>
		<polyline class="st0" points="1677.4,473.8 1659.5,460 1644.1,503.1 		"/>
		<polyline class="st0" points="1723.8,163.2 1750.6,232.3 1766.9,185.9 		"/>
		<polyline class="st0" points="1753,191.6 1784.8,232.3 1827,191.6 		"/>
		<polyline class="st0" points="1792.1,209.5 1818.1,232.3 1823,176.2 		"/>
		<polyline class="st0" points="1828.7,205.4 1846.6,232.3 1892.1,185.9 		"/>
		<polyline class="st0" points="1843.3,188.4 1878.3,233.1 1901.9,216 		"/>
		<polyline class="st0" points="1856.3,244.5 1848.2,258.3 1874.2,285.1 		"/>
		<polyline class="st0" points="1880.7,257.5 1848.2,286.8 1892.1,300.6 		"/>
		<polyline class="st0" points="1887.2,309.5 1848.2,316 1879.9,335.5 		"/>
		<polyline class="st0" points="1878.3,321.7 1847.4,345.3 1897.8,370.5 		"/>
		<polyline class="st0" points="1899.4,355.9 1847.4,373 1870.1,387.6 		"/>
		<polyline class="st0" points="1867.7,374.6 1848.2,403 1884.8,404.7 		"/>
		<polyline class="st0" points="1870.1,414.4 1847.4,430.7 1869.3,435.6 		"/>
		<polyline class="st0" points="1868.5,426.6 1848.2,451 1862.8,452.6 		"/>
		<polyline class="st0" points="1858.8,460 1874.2,468.9 1879.1,445.3 		"/>
		<polyline class="st0" points="1762.8,236.3 1778.3,248.5 1741.7,259.9 		"/>
		<polyline class="st0" points="1755.5,264 1777.4,270.5 1750.6,294.1 		"/>
		<polyline class="st0" points="1766.1,289.2 1777.4,299.8 1760.4,312.8 		"/>
		<polyline class="st0" points="1768.5,316 1777.4,327.4 1754.7,345.3 		"/>
		<polyline class="st0" points="1758.7,330.7 1776.6,356.7 1762,364 		"/>
		<polyline class="st0" points="1762.8,354.3 1776.6,384.3 1756.3,386.8 		"/>
		<polyline class="st0" points="1764.4,398.2 1776.6,413.6 1748.2,429.1 		"/>
		<polyline class="st0" points="1766.9,429.1 1777.4,442.9 1767.7,458.3 		"/>
		<polyline class="st0" points="1762.8,445.3 1750.6,468.9 1738.4,460 		"/>
		<polyline class="st0" points="1744.9,501.4 1775.8,468.9 1785.6,516.9 		"/>
		<polyline class="st0" points="1792.1,486.8 1809.2,469.7 1862,489.2 		"/>
		<polyline class="st0" points="1818.9,499.8 1840.1,469.7 1849.8,495.7 		"/>
		<polyline class="st0" points="1213.1,512.8 1247.2,468.9 1261.9,493.3 		"/>
	</g>
	<g>
		<g>
			<path d="M263.7,228.2h-0.2c-2.4,0-4.3,1.9-4.3,4.3c0,2.4,1.9,4.3,4.3,4.3h0.2c2.4,0,4.3-1.9,4.3-4.3
				C268,230.1,266,228.2,263.7,228.2L263.7,228.2z M235,228.2h-0.2c-2.4,0-4.3,1.9-4.3,4.3c0,2.4,1.9,4.3,4.3,4.3h0.2
				c2.4,0,4.3-1.9,4.3-4.3C239.3,230.1,237.4,228.2,235,228.2L235,228.2z M211.3,258.2c-2.4,0-4.3,1.9-4.3,4.3v0.2
				c0,2.4,1.9,4.3,4.3,4.3s4.3-1.9,4.3-4.3v-0.2C215.6,260.1,213.7,258.2,211.3,258.2L211.3,258.2z M211.3,286.9
				c-2.4,0-4.3,1.9-4.3,4.3v0.2c0,2.4,1.9,4.3,4.3,4.3s4.3-1.9,4.3-4.3v-0.2C215.6,288.8,213.7,286.9,211.3,286.9L211.3,286.9z
				 M211.3,315.6c-2.4,0-4.3,1.9-4.3,4.3v0.2c0,2.4,1.9,4.3,4.3,4.3s4.3-1.9,4.3-4.3v-0.2C215.6,317.5,213.7,315.6,211.3,315.6
				L211.3,315.6z M211.3,344.3c-2.4,0-4.3,1.9-4.3,4.3v0.2c0,2.4,1.9,4.3,4.3,4.3s4.3-1.9,4.3-4.3v-0.2
				C215.6,346.2,213.7,344.3,211.3,344.3L211.3,344.3z M211.3,373c-2.4,0-4.3,1.9-4.3,4.3v0.2c0,2.4,1.9,4.3,4.3,4.3
				s4.3-1.9,4.3-4.3v-0.2C215.6,374.9,213.7,373,211.3,373L211.3,373z M211.3,401.6c-2.4,0-4.3,1.9-4.3,4.3v0.2
				c0,2.4,1.9,4.3,4.3,4.3s4.3-1.9,4.3-4.3v-0.2C215.6,403.6,213.7,401.6,211.3,401.6L211.3,401.6z M211.3,430.3
				c-2.4,0-4.3,1.9-4.3,4.3v0.2c0,2.4,1.9,4.3,4.3,4.3s4.3-1.9,4.3-4.3v-0.2C215.6,432.3,213.7,430.3,211.3,430.3L211.3,430.3z
				 M230.6,464.9h-0.2c-2.4,0-4.3,1.9-4.3,4.3c0,2.4,1.9,4.3,4.3,4.3h0.2c2.4,0,4.3-1.9,4.3-4.3
				C234.8,466.8,232.9,464.9,230.6,464.9L230.6,464.9z M259.3,464.9h-0.2c-2.4,0-4.3,1.9-4.3,4.3c0,2.4,1.9,4.3,4.3,4.3h0.2
				c2.4,0,4.3-1.9,4.3-4.3C263.5,466.8,261.6,464.9,259.3,464.9L259.3,464.9z M282.4,445.7c-2.4,0-4.3,1.9-4.3,4.3v0.2
				c0,2.4,1.9,4.3,4.3,4.3s4.3-1.9,4.3-4.3v-0.2C286.7,447.6,284.8,445.7,282.4,445.7L282.4,445.7z M330.6,370.4c-0.1,0-0.2,0-0.3,0
				l-0.1,0c-2.4,0.2-4.1,2.2-4,4.6c0.2,2.3,2,4,4.3,4c0.1,0,0.2,0,0.3,0c0,0,0.1,0,0.1,0c0,0,0,0,0,0c2.4-0.2,4.1-2.2,4-4.6
				C334.8,372.2,332.9,370.4,330.6,370.4L330.6,370.4z M358,365.8c-0.4,0-0.8,0.1-1.2,0.2l-0.1,0c-2.3,0.6-3.6,3-2.9,5.3
				c0.5,1.9,2.2,3.1,4.1,3.1c0.4,0,0.8-0.1,1.2-0.2c0,0,0,0,0,0c0,0,0.1,0,0.1,0c2.3-0.6,3.6-3,2.9-5.3
				C361.6,367.1,359.9,365.8,358,365.8L358,365.8z M382.7,354.5c-0.8,0-1.7,0.2-2.4,0.7l-0.1,0.1c-2,1.3-2.5,4-1.1,6
				c0.8,1.2,2.2,1.9,3.5,1.9c0.8,0,1.7-0.2,2.4-0.7c0,0,0.1-0.1,0.1-0.1c2-1.3,2.4-4,1.1-5.9C385.4,355.2,384.1,354.5,382.7,354.5
				L382.7,354.5z M401,335.2c-1.5,0-2.9,0.8-3.7,2.1l-0.1,0.1c-1.2,2-0.5,4.7,1.5,5.9c0.7,0.4,1.4,0.6,2.2,0.6
				c1.5,0,2.9-0.7,3.7-2.1c0,0,0-0.1,0.1-0.1c0,0,0,0,0,0c1.2-2,0.5-4.7-1.5-5.9C402.5,335.4,401.7,335.2,401,335.2L401,335.2z
				 M409.4,309.8c-2.1,0-4,1.6-4.2,3.7l0,0.1c-0.3,2.3,1.3,4.5,3.7,4.8c0.2,0,0.4,0,0.6,0c2.1,0,3.9-1.6,4.2-3.7c0-0.1,0-0.1,0-0.2
				c0.3-2.3-1.4-4.5-3.7-4.8C409.8,309.8,409.6,309.8,409.4,309.8L409.4,309.8z M408.8,282.4c-0.2,0-0.5,0-0.7,0.1
				c-2.3,0.4-3.9,2.6-3.5,4.9l0,0.1c0.4,2.1,2.2,3.6,4.2,3.6c0.2,0,0.5,0,0.7-0.1c2.3-0.4,3.9-2.6,3.5-4.9c0,0,0,0,0,0c0,0,0,0,0,0
				c0,0,0,0,0,0c0,0,0,0,0-0.1c0,0,0,0,0,0c0,0,0,0,0,0C412.7,283.9,410.9,282.4,408.8,282.4L408.8,282.4z M399.2,257.6
				c-0.8,0-1.7,0.2-2.4,0.7c-2,1.3-2.5,4-1.1,6l0.1,0.1c0.8,1.2,2.2,1.9,3.5,1.9c0.8,0,1.7-0.2,2.4-0.7c1.9-1.3,2.5-4,1.1-5.9
				c0-0.1-0.1-0.1-0.1-0.2C401.9,258.2,400.6,257.6,399.2,257.6L399.2,257.6z M379.5,240c-1.5,0-3,0.8-3.8,2.2
				c-1.1,2.1-0.4,4.7,1.7,5.8l0.1,0.1c0.7,0.4,1.4,0.5,2.1,0.5c1.5,0,3-0.8,3.8-2.2c1.1-2.1,0.4-4.7-1.7-5.8c0,0,0,0-0.1,0
				c0,0-0.1,0-0.1,0C380.9,240.2,380.2,240,379.5,240L379.5,240z M353.7,231.1c-2,0-3.8,1.4-4.2,3.4c-0.5,2.3,1,4.6,3.4,5l0.1,0
				c0.3,0.1,0.6,0.1,0.8,0.1c2,0,3.8-1.4,4.2-3.4c0.5-2.3-1-4.6-3.4-5c0,0,0,0-0.1,0c0,0,0,0,0,0c0,0,0,0-0.1,0
				C354.2,231.1,354,231.1,353.7,231.1L353.7,231.1z M282.4,344c-2.4,0-4.3,1.9-4.3,4.3v0.2c0,2.4,1.9,4.3,4.3,4.3s4.3-1.9,4.3-4.3
				v-0.2C286.7,345.9,284.8,344,282.4,344L282.4,344z M282.4,315.3c-2.4,0-4.3,1.9-4.3,4.3v0.2c0,2.4,1.9,4.3,4.3,4.3
				s4.3-1.9,4.3-4.3v-0.2C286.7,317.2,284.8,315.3,282.4,315.3L282.4,315.3z M282.4,286.6c-2.4,0-4.3,1.9-4.3,4.3v0.2
				c0,2.4,1.9,4.3,4.3,4.3s4.3-1.9,4.3-4.3v-0.2C286.7,288.6,284.8,286.6,282.4,286.6L282.4,286.6z M282.4,257.9
				c-2.4,0-4.3,1.9-4.3,4.3v0.2c0,2.4,1.9,4.3,4.3,4.3s4.3-1.9,4.3-4.3v-0.2C286.7,259.9,284.8,257.9,282.4,257.9L282.4,257.9z
				 M334.3,258.3c-0.3,0-0.5,0-0.8,0.1c-2.3,0.5-3.8,2.7-3.4,5c0,0.1,0,0.1,0,0.2c0,0,0,0,0,0c0.4,2,2.2,3.5,4.2,3.5
				c0.3,0,0.5,0,0.8-0.1c2.3-0.4,3.8-2.7,3.4-5l0-0.2C338.1,259.7,336.4,258.3,334.3,258.3L334.3,258.3z M337.1,287.5
				c0,0-0.1,0-0.1,0c-2.4,0.1-4.2,2-4.2,4.4c0,0,0,0,0,0c0,0,0,0.1,0,0.1c0.1,2.3,2,4.2,4.3,4.2c0,0,0.1,0,0.1,0
				c2.4-0.1,4.2-2,4.2-4.4l0-0.2C341.3,289.3,339.4,287.5,337.1,287.5L337.1,287.5z M336.9,316.5c-2.3,0-4.2,1.8-4.3,4.1
				c0,0.1,0,0.1,0,0.2c-0.1,2.4,1.7,4.4,4.1,4.5c0.1,0,0.1,0,0.2,0c2.3,0,4.2-1.8,4.3-4.1l0-0.2c0.1-2.4-1.7-4.4-4.1-4.5
				C337.1,316.5,337,316.5,336.9,316.5L336.9,316.5z M333.4,345.8c-1.9,0-3.7,1.3-4.2,3.2c0,0,0,0.1,0,0.1c0,0,0,0,0,0
				c-0.6,2.3,0.8,4.6,3.1,5.2c0.3,0.1,0.7,0.1,1,0.1c1.9,0,3.7-1.3,4.1-3.2l0-0.2c0.6-2.3-0.8-4.6-3.1-5.2
				C334,345.8,333.7,345.8,333.4,345.8L333.4,345.8z M313.9,370.6c-0.4,0-0.8,0.1-1.2,0.2c0,0-0.1,0-0.1,0c0,0,0,0,0,0c0,0,0,0,0,0
				c0,0,0,0,0,0c-2.3,0.7-3.6,3.1-2.9,5.3c0.6,1.9,2.2,3.1,4.1,3.1c0.4,0,0.8-0.1,1.2-0.2l0.2-0.1c2.3-0.7,3.5-3.1,2.8-5.3
				C317.5,371.8,315.7,370.6,313.9,370.6L313.9,370.6z"/>
			<path d="M694.7,262.7c-2.4,0-4.3,1.9-4.3,4.3v0.2c0,2.4,1.9,4.3,4.3,4.3s4.3-1.9,4.3-4.3V267C699,264.7,697,262.7,694.7,262.7
				L694.7,262.7z M694.7,291.4c-2.4,0-4.3,1.9-4.3,4.3v0.2c0,2.4,1.9,4.3,4.3,4.3s4.3-1.9,4.3-4.3v-0.2
				C699,293.3,697,291.4,694.7,291.4L694.7,291.4z M694.7,320.1c-2.4,0-4.3,1.9-4.3,4.3v0.2c0,2.4,1.9,4.3,4.3,4.3s4.3-1.9,4.3-4.3
				v-0.2C699,322,697,320.1,694.7,320.1L694.7,320.1z M694.7,348.8c-2.4,0-4.3,1.9-4.3,4.3v0.2c0,2.4,1.9,4.3,4.3,4.3
				s4.3-1.9,4.3-4.3v-0.2C699,350.7,697,348.8,694.7,348.8L694.7,348.8z M694.7,377.5c-2.4,0-4.3,1.9-4.3,4.3v0.2
				c0,2.4,1.9,4.3,4.3,4.3s4.3-1.9,4.3-4.3v-0.2C699,379.4,697,377.5,694.7,377.5L694.7,377.5z M694.7,406.2c-2.4,0-4.3,1.9-4.3,4.3
				v0.2c0,2.4,1.9,4.3,4.3,4.3s4.3-1.9,4.3-4.3v-0.2C699,408.1,697,406.2,694.7,406.2L694.7,406.2z M694.7,434.9
				c-2.4,0-4.3,1.9-4.3,4.3v0.2c0,2.4,1.9,4.3,4.3,4.3s4.3-1.9,4.3-4.3v-0.2C699,436.8,697,434.9,694.7,434.9L694.7,434.9z
				 M718.5,464.9h-0.2c-2.4,0-4.3,1.9-4.3,4.3c0,2.4,1.9,4.3,4.3,4.3h0.2c2.4,0,4.3-1.9,4.3-4.3
				C722.7,466.8,720.8,464.9,718.5,464.9L718.5,464.9z M747.1,464.9H747c-2.4,0-4.3,1.9-4.3,4.3c0,2.4,1.9,4.3,4.3,4.3h0.2
				c2.4,0,4.3-1.9,4.3-4.3C751.4,466.8,749.5,464.9,747.1,464.9L747.1,464.9z M765.7,434.1c-2.4,0-4.3,1.9-4.3,4.3v0.2
				c0,2.4,1.9,4.3,4.3,4.3s4.3-1.9,4.3-4.3v-0.2C770,436,768.1,434.1,765.7,434.1L765.7,434.1z M765.7,405.4c-2.4,0-4.3,1.9-4.3,4.3
				v0.2c0,2.4,1.9,4.3,4.3,4.3s4.3-1.9,4.3-4.3v-0.2C770,407.3,768.1,405.4,765.7,405.4L765.7,405.4z M765.7,376.7
				c-2.4,0-4.3,1.9-4.3,4.3v0.2c0,2.4,1.9,4.3,4.3,4.3s4.3-1.9,4.3-4.3V381C770,378.6,768.1,376.7,765.7,376.7L765.7,376.7z
				 M817.9,384.8c-0.2,0-0.5,0-0.7,0.1c-2.3,0.4-3.9,2.6-3.5,4.9c0,0,0,0,0,0c0,0.1,0,0.1,0,0.2c0.4,2.1,2.2,3.6,4.2,3.6
				c0.2,0,0.5,0,0.7-0.1c2.3-0.4,3.9-2.6,3.5-4.9l0-0.2C821.7,386.3,819.9,384.8,817.9,384.8L817.9,384.8z M820.8,413.8
				c-0.1,0-0.2,0-0.3,0c-2.4,0.1-4.2,2.2-4,4.5c0,0,0,0,0,0.1c0,0,0,0.1,0,0.1c0.1,2.3,2,4,4.3,4c0.1,0,0.2,0,0.3,0
				c2.4-0.1,4.2-2.2,4-4.5l0-0.2C824.9,415.5,823,413.8,820.8,413.8L820.8,413.8z M823.7,441.6c-0.3,0-0.6,0-1,0.1
				c-2.3,0.5-3.7,2.8-3.2,5.1c0,0,0,0.1,0,0.1l0,0c0,0,0,0,0,0c0,0,0,0,0,0c0,0,0,0,0,0c0.5,2,2.2,3.3,4.2,3.3c0.3,0,0.6,0,1-0.1
				c2.3-0.5,3.7-2.8,3.2-5.1l0-0.1C827.5,442.9,825.7,441.6,823.7,441.6L823.7,441.6z M836.9,462.4c-1.4,0-2.8,0.7-3.6,2
				c-1.2,2-0.6,4.6,1.4,5.9c0,0,0,0,0,0c0,0,0.1,0.1,0.1,0.1l0,0c0,0,0,0,0,0c0.7,0.4,1.5,0.6,2.2,0.6c1.4,0,2.8-0.7,3.6-2
				c1.2-2,0.6-4.7-1.4-5.9l-0.1-0.1C838.4,462.6,837.6,462.4,836.9,462.4L836.9,462.4z M862.3,468.8c-2.2,0-4.1,1.8-4.3,4
				c-0.1,2.4,1.7,4.4,4,4.5c0,0,0,0,0,0c0,0,0.1,0,0.1,0c0,0,0,0,0,0c0.1,0,0.2,0,0.3,0c2.2,0,4.1-1.8,4.3-4c0.1-2.4-1.7-4.4-4-4.5
				l-0.1,0C862.5,468.9,862.4,468.8,862.3,468.8L862.3,468.8z M889.8,467.1c-0.3,0-0.7,0-1,0.1l-0.1,0c-2.3,0.5-3.7,2.8-3.2,5.1
				c0.5,2,2.2,3.3,4.2,3.3c0.3,0,0.6,0,1-0.1l0,0c0,0,0,0,0,0c0,0,0,0,0,0c0,0,0,0,0,0c0,0,0.1,0,0.1,0c2.3-0.5,3.7-2.8,3.2-5.1
				C893.5,468.4,891.7,467.1,889.8,467.1L889.8,467.1z M912.1,454.4c-1.2,0-2.4,0.5-3.2,1.5l-0.1,0.1c-1.6,1.8-1.4,4.5,0.4,6
				c0.8,0.7,1.8,1.1,2.8,1.1c1.2,0,2.3-0.5,3.2-1.4c0,0,0.1-0.1,0.1-0.1c0,0,0,0,0,0c1.6-1.8,1.4-4.5-0.4-6
				C914.1,454.8,913.1,454.4,912.1,454.4L912.1,454.4z M892.3,409.7c-0.1,0-0.1,0-0.2,0c-2.4,0.1-4.2,2.1-4.1,4.5l0,0.1
				c0.1,2.3,2,4.1,4.3,4.1c0.1,0,0.1,0,0.2,0c2.4-0.1,4.2-2.1,4.1-4.5c0-0.1,0-0.1,0-0.2C896.5,411.5,894.6,409.7,892.3,409.7
				L892.3,409.7z M886.1,383.8c-0.7,0-1.3,0.2-2,0.5c-2.1,1.1-2.9,3.7-1.8,5.8l0.1,0.1c0.8,1.5,2.3,2.3,3.8,2.3c0.7,0,1.3-0.2,2-0.5
				c2.1-1.1,2.9-3.6,1.9-5.7c0,0,0-0.1-0.1-0.1c0,0,0,0,0-0.1C889.1,384.6,887.6,383.8,886.1,383.8L886.1,383.8z M867.9,365.4
				c-1.5,0-3,0.8-3.7,2.2c-1.1,2.1-0.4,4.7,1.7,5.8l0.1,0.1c0.7,0.4,1.4,0.5,2.1,0.5c1.5,0,3-0.8,3.7-2.2c1.1-2.1,0.4-4.7-1.6-5.8
				c0,0,0,0,0,0c0,0,0,0,0,0c0,0-0.1,0-0.1-0.1C869.3,365.6,868.6,365.4,867.9,365.4L867.9,365.4z M842.1,357c-2,0-3.8,1.5-4.2,3.5
				c-0.4,2.3,1.1,4.5,3.5,5l0.1,0c0.3,0,0.5,0.1,0.7,0.1c2,0,3.8-1.5,4.2-3.5c0.4-2.3-1.1-4.5-3.5-5c-0.1,0-0.1,0-0.2,0
				C842.6,357,842.4,357,842.1,357L842.1,357z M846.7,342.4c-0.3,0-0.6,0-0.8,0.1l-0.1,0c-2.3,0.5-3.8,2.7-3.4,5
				c0.4,2,2.2,3.4,4.2,3.4c0.3,0,0.6,0,0.8-0.1c0.1,0,0.1,0,0.2,0c2.3-0.5,3.8-2.7,3.3-5C850.4,343.8,848.7,342.4,846.7,342.4
				L846.7,342.4z M872.6,333.7c-0.7,0-1.4,0.2-2,0.5l-0.1,0.1c-2.1,1.1-2.9,3.7-1.8,5.8c0.8,1.4,2.2,2.3,3.8,2.3
				c0.7,0,1.4-0.2,2-0.5c0,0,0,0,0,0c0,0,0.1,0,0.1-0.1c0,0,0,0,0,0c2.1-1.1,2.9-3.7,1.8-5.8C875.6,334.5,874.1,333.7,872.6,333.7
				L872.6,333.7z M891.5,315.9c-1.5,0-2.9,0.8-3.7,2.2l-0.1,0.1c-1.2,2.1-0.5,4.7,1.6,5.8c0.7,0.4,1.4,0.6,2.1,0.6
				c1.5,0,2.9-0.8,3.7-2.1c0-0.1,0.1-0.1,0.1-0.2c1.1-2.1,0.4-4.6-1.6-5.8C892.9,316.1,892.2,315.9,891.5,315.9L891.5,315.9z
				 M897.9,290.3c-2.3,0-4.2,1.8-4.3,4.1l0,0.1c-0.1,2.4,1.8,4.4,4.1,4.4c0.1,0,0.1,0,0.2,0c2.3,0,4.2-1.8,4.3-4.1c0,0,0,0,0,0
				c0,0,0-0.1,0-0.1c0,0,0,0,0-0.1c0.1-2.4-1.8-4.3-4.1-4.4C898,290.3,898,290.3,897.9,290.3L897.9,290.3z M893.9,264
				c-0.5,0-1.1,0.1-1.6,0.3c-2.2,0.9-3.2,3.4-2.3,5.6l0,0.1c0.7,1.7,2.3,2.7,4,2.7c0.5,0,1.1-0.1,1.6-0.3c2.2-0.9,3.2-3.4,2.3-5.6
				c0,0,0-0.1,0-0.1c0,0,0,0,0,0c0,0,0,0,0-0.1C897.2,265,895.6,264,893.9,264L893.9,264z M877.4,244.1c-1.4,0-2.7,0.7-3.5,1.9
				c-1.3,2-0.8,4.6,1.1,6l0.1,0.1c0.7,0.5,1.6,0.7,2.4,0.7c1.4,0,2.7-0.7,3.5-1.9c1.3-1.9,0.8-4.6-1.1-5.9c0,0,0,0,0,0c0,0,0,0,0,0
				c0,0,0,0,0,0c0,0-0.1,0-0.1-0.1c0,0,0,0,0,0C879.1,244.3,878.2,244.1,877.4,244.1L877.4,244.1z M852.5,233.5
				c-1.9,0-3.6,1.3-4.1,3.2c-0.6,2.3,0.8,4.6,3.1,5.2l0.1,0c0.4,0.1,0.7,0.1,1.1,0.1c1.9,0,3.7-1.3,4.1-3.2c0.6-2.3-0.8-4.6-3.1-5.2
				c0,0,0,0,0,0c-0.1,0-0.1,0-0.2,0C853.2,233.6,852.8,233.5,852.5,233.5L852.5,233.5z M824.9,229.2c-2.2,0-4.1,1.7-4.3,3.9
				c-0.2,2.4,1.6,4.4,3.9,4.6l0.2,0c0.1,0,0.2,0,0.4,0c2.2,0,4.1-1.7,4.3-3.9c0.2-2.4-1.6-4.4-3.9-4.6c0,0,0,0,0,0c0,0,0,0,0,0
				c0,0-0.1,0-0.1,0C825.1,229.2,825,229.2,824.9,229.2L824.9,229.2z M765.7,342.7c-2.4,0-4.3,1.9-4.3,4.3v0.2
				c0,2.4,1.9,4.3,4.3,4.3s4.3-1.9,4.3-4.3V347C770,344.7,768.1,342.7,765.7,342.7L765.7,342.7z M765.7,314.1
				c-2.4,0-4.3,1.9-4.3,4.3v0.2c0,2.4,1.9,4.3,4.3,4.3s4.3-1.9,4.3-4.3v-0.2C770,316,768.1,314.1,765.7,314.1L765.7,314.1z
				 M765.7,285.4c-2.4,0-4.3,1.9-4.3,4.3v0.2c0,2.4,1.9,4.3,4.3,4.3s4.3-1.9,4.3-4.3v-0.2C770,287.3,768.1,285.4,765.7,285.4
				L765.7,285.4z M765.7,256.7c-2.4,0-4.3,1.9-4.3,4.3v0.2c0,2.4,1.9,4.3,4.3,4.3s4.3-1.9,4.3-4.3v-0.2
				C770,258.6,768.1,256.7,765.7,256.7L765.7,256.7z M820.9,257.3c-0.4,0-0.8,0.1-1.2,0.2c-2.3,0.7-3.5,3.1-2.9,5.3c0,0,0,0,0,0
				c0,0,0,0.1,0,0.1c0.6,1.9,2.3,3.1,4.1,3.1c0.4,0,0.8-0.1,1.2-0.2c2.3-0.7,3.6-3.1,2.9-5.3l-0.1-0.2
				C824.4,258.5,822.7,257.3,820.9,257.3L820.9,257.3z M824.8,286.8C824.8,286.8,824.8,286.8,824.8,286.8c-2.4,0-4.3,2-4.3,4.3
				c0,0.1,0,0.1,0,0.2c0,2.3,1.9,4.2,4.3,4.2c0,0,0,0,0,0c2.4,0,4.3-2,4.2-4.3l0-0.2C829.1,288.7,827.2,286.8,824.8,286.8
				L824.8,286.8z M822.1,316.4c-1.9,0-3.7,1.3-4.2,3.3c0,0.1,0,0.1,0,0.2c-0.5,2.3,0.9,4.6,3.2,5.1c0.3,0.1,0.7,0.1,1,0.1
				c1.9,0,3.7-1.3,4.2-3.3l0-0.2c0.5-2.3-0.9-4.6-3.2-5.1C822.7,316.4,822.4,316.4,822.1,316.4L822.1,316.4z M806.8,343.3
				c-0.9,0-1.8,0.3-2.6,0.9c0,0-0.1,0.1-0.1,0.1c0,0,0,0,0,0c-1.9,1.4-2.2,4.1-0.8,6c0.8,1.1,2.1,1.7,3.4,1.7c0.9,0,1.8-0.3,2.6-0.9
				l0.2-0.1c1.9-1.4,2.2-4.1,0.8-6C809.3,343.9,808.1,343.3,806.8,343.3L806.8,343.3z"/>
			<path d="M1400.9,351.7c-0.8,0-1.5,0.2-2.2,0.6c-2,1.2-2.7,3.9-1.4,5.9l0.1,0.1c0.8,1.3,2.2,2.1,3.7,2.1c0.8,0,1.5-0.2,2.2-0.6
				c2-1.2,2.7-3.9,1.4-5.9l-0.1-0.1C1403.7,352.5,1402.3,351.7,1400.9,351.7L1400.9,351.7z M1385.9,327.2c-0.8,0-1.5,0.2-2.2,0.6
				c-2,1.2-2.7,3.9-1.4,5.9l0.1,0.1c0.8,1.3,2.2,2.1,3.7,2.1c0.8,0,1.5-0.2,2.2-0.6c2-1.2,2.7-3.9,1.4-5.9l-0.1-0.1c0,0,0-0.1,0-0.1
				C1388.8,328,1387.4,327.2,1385.9,327.2L1385.9,327.2z M1371,302.8c-0.8,0-1.5,0.2-2.2,0.6c-2,1.2-2.7,3.9-1.4,5.9l0.1,0.1
				c0.8,1.3,2.2,2.1,3.7,2.1c0.8,0,1.5-0.2,2.2-0.6c2-1.2,2.7-3.9,1.4-5.9c0,0,0-0.1-0.1-0.1l0,0
				C1373.8,303.5,1372.4,302.8,1371,302.8L1371,302.8z M1356,278.3c-0.8,0-1.5,0.2-2.2,0.6c-2,1.2-2.7,3.9-1.4,5.9l0.1,0.1
				c0.8,1.3,2.2,2.1,3.7,2.1c0.8,0,1.5-0.2,2.2-0.6c2-1.2,2.7-3.9,1.4-5.9l-0.1-0.1C1358.8,279,1357.4,278.3,1356,278.3L1356,278.3z
				 M1341.1,253.8c-0.8,0-1.5,0.2-2.2,0.6c-2,1.2-2.7,3.9-1.4,5.9l0.1,0.1c0.8,1.3,2.2,2.1,3.7,2.1c0.8,0,1.5-0.2,2.2-0.6
				c2-1.2,2.7-3.9,1.4-5.9c0,0,0,0,0-0.1l-0.1-0.1C1343.9,254.5,1342.5,253.8,1341.1,253.8L1341.1,253.8z M1326.1,229.3
				c-0.8,0-1.5,0.2-2.2,0.6c-2,1.2-2.7,3.9-1.4,5.9l0.1,0.1c0.8,1.3,2.2,2.1,3.7,2.1c0.8,0,1.5-0.2,2.2-0.6c2-1.2,2.7-3.9,1.4-5.9
				l0-0.1c0,0-0.1-0.1-0.1-0.1C1328.9,230,1327.5,229.3,1326.1,229.3L1326.1,229.3z M1303,228.2h-0.2c-2.4,0-4.3,1.9-4.3,4.3
				c0,2.4,1.9,4.3,4.3,4.3h0.2c2.4,0,4.3-1.9,4.3-4.3C1307.2,230.1,1305.3,228.2,1303,228.2L1303,228.2z M1274.3,228.2h-0.2
				c-2.4,0-4.3,1.9-4.3,4.3c0,2.4,1.9,4.3,4.3,4.3h0.2c2.4,0,4.3-1.9,4.3-4.3C1278.6,230.1,1276.6,228.2,1274.3,228.2L1274.3,228.2z
				 M1245.6,228.2h-0.2c-2.4,0-4.3,1.9-4.3,4.3c0,2.4,1.9,4.3,4.3,4.3h0.2c2.4,0,4.3-1.9,4.3-4.3
				C1249.9,230.1,1247.9,228.2,1245.6,228.2L1245.6,228.2z M1248.9,253.3c-0.1,0-0.1,0-0.2,0c-2.4,0.1-4.2,2.1-4.1,4.5c0,0,0,0,0,0
				c0,0,0,0.1,0,0.1c0,0,0,0,0,0c0.1,2.3,2,4.1,4.3,4.1c0.1,0,0.1,0,0.2,0c2.4-0.1,4.2-2.1,4.1-4.4l0-0.2
				C1253.1,255.1,1251.2,253.3,1248.9,253.3L1248.9,253.3z M1223.8,464.9h-0.2c-2.4,0-4.3,1.9-4.3,4.3c0,2.4,1.9,4.3,4.3,4.3h0.2
				c2.4,0,4.3-1.9,4.3-4.3C1228.1,466.8,1226.2,464.9,1223.8,464.9L1223.8,464.9z M1260.2,257.3c-0.7,0-1.4,0.2-2.1,0.5
				c-2.1,1.1-2.8,3.7-1.7,5.8l0.1,0.1c0.8,1.4,2.2,2.2,3.8,2.2c0.7,0,1.4-0.2,2.1-0.5c2.1-1.1,2.8-3.7,1.7-5.8l-0.1-0.1
				C1263.2,258.1,1261.7,257.3,1260.2,257.3L1260.2,257.3z M1274.1,282.4c-0.7,0-1.4,0.2-2.1,0.5c-2.1,1.1-2.8,3.7-1.7,5.8l0.1,0.2
				c0.8,1.4,2.2,2.2,3.7,2.2c0.7,0,1.4-0.2,2.1-0.5c2.1-1.1,2.8-3.7,1.7-5.8l-0.1-0.1C1277,283.2,1275.6,282.4,1274.1,282.4
				L1274.1,282.4z M1287.9,307.5c-0.7,0-1.4,0.2-2.1,0.5c-2.1,1.1-2.8,3.7-1.7,5.8l0.1,0.1c0.8,1.4,2.2,2.2,3.8,2.2
				c0.7,0,1.4-0.2,2.1-0.5c2.1-1.1,2.8-3.7,1.7-5.8l-0.1-0.1C1290.9,308.3,1289.4,307.5,1287.9,307.5L1287.9,307.5z M1301.8,332.6
				c-0.7,0-1.4,0.2-2.1,0.5c-2.1,1.1-2.8,3.7-1.7,5.8l0.1,0.1c0.8,1.4,2.2,2.2,3.7,2.2c0.7,0,1.4-0.2,2.1-0.5
				c2.1-1.1,2.8-3.7,1.7-5.8l-0.1-0.1C1304.7,333.4,1303.3,332.6,1301.8,332.6L1301.8,332.6z M1315.6,357.8c-0.7,0-1.4,0.2-2.1,0.5
				c-2.1,1.1-2.8,3.7-1.7,5.8l0,0.1c0,0,0.1,0.1,0.1,0.1c0.8,1.4,2.2,2.2,3.8,2.2c0.7,0,1.4-0.2,2.1-0.5c2.1-1.1,2.8-3.7,1.7-5.8
				l-0.1-0.1C1318.6,358.6,1317.1,357.8,1315.6,357.8L1315.6,357.8z M1329.5,382.9c-0.7,0-1.4,0.2-2.1,0.5c-2.1,1.1-2.8,3.7-1.7,5.8
				c0,0,0,0,0,0l0,0c0,0,0,0,0,0l0.1,0.1c0.8,1.4,2.2,2.2,3.7,2.2c0.7,0,1.4-0.2,2.1-0.5c2.1-1.1,2.8-3.7,1.7-5.8l-0.1-0.1
				C1332.5,383.7,1331,382.9,1329.5,382.9L1329.5,382.9z M1343.3,408c-0.7,0-1.4,0.2-2.1,0.5c-2.1,1.1-2.8,3.7-1.7,5.8l0,0
				c0,0,0.1,0.1,0.1,0.1c0.8,1.4,2.2,2.2,3.8,2.2c0.7,0,1.4-0.2,2.1-0.5c2.1-1.1,2.8-3.7,1.7-5.8l-0.1-0.1
				C1346.3,408.8,1344.9,408,1343.3,408L1343.3,408z M1357.2,433.1c-0.7,0-1.4,0.2-2.1,0.5c-2.1,1.1-2.8,3.7-1.7,5.8c0,0,0,0,0,0
				l0.1,0.1c0.8,1.4,2.2,2.2,3.7,2.2c0.7,0,1.4-0.2,2.1-0.5c2.1-1.1,2.8-3.7,1.7-5.8l-0.1-0.1
				C1360.2,433.9,1358.7,433.1,1357.2,433.1L1357.2,433.1z M1371.1,458.3c-0.7,0-1.4,0.2-2.1,0.5c-2.1,1.1-2.8,3.7-1.7,5.8l0.1,0.2
				c0.8,1.4,2.2,2.2,3.7,2.2c0.7,0,1.4-0.2,2.1-0.5c2.1-1.1,2.8-3.7,1.7-5.8l-0.1-0.1C1374,459.1,1372.6,458.3,1371.1,458.3
				L1371.1,458.3z M1424.9,399.3c-2.4,0-4.3,1.9-4.3,4.3v0.2c0,2.4,1.9,4.3,4.3,4.3c2.4,0,4.3-1.9,4.3-4.3v-0.2
				C1429.2,401.2,1427.3,399.3,1424.9,399.3L1424.9,399.3z M1424.9,370.6c-2.4,0-4.3,1.9-4.3,4.3v0.2c0,2.4,1.9,4.3,4.3,4.3
				c2.4,0,4.3-1.9,4.3-4.3v-0.2C1429.2,372.6,1427.3,370.6,1424.9,370.6L1424.9,370.6z"/>
			<path d="M1574.7,227.4c-0.3,0-0.7,0-1,0.1c-0.1,0-0.1,0-0.2,0c-2.3,0.6-3.7,2.9-3.2,5.2c0.5,2,2.2,3.3,4.2,3.3c0.3,0,0.7,0,1-0.1
				l0.1,0c2.3-0.5,3.7-2.9,3.2-5.2C1578.4,228.7,1576.6,227.4,1574.7,227.4L1574.7,227.4z M1548.5,236.6c-0.6,0-1.2,0.1-1.8,0.4
				c0,0,0,0-0.1,0c0,0-0.1,0-0.1,0c-2.1,1-3,3.6-2,5.7c0.7,1.5,2.3,2.4,3.9,2.4c0.6,0,1.2-0.1,1.8-0.4l0.1-0.1c2.1-1,3-3.6,2-5.7
				C1551.6,237.5,1550.1,236.6,1548.5,236.6L1548.5,236.6z M1525,251.1c-0.9,0-1.9,0.3-2.6,0.9c0,0-0.1,0.1-0.1,0.1
				c-1.9,1.5-2.2,4.2-0.7,6c0.8,1.1,2.1,1.6,3.4,1.6c0.9,0,1.9-0.3,2.6-0.9l0.1-0.1c1.9-1.5,2.2-4.2,0.7-6
				C1527.5,251.7,1526.2,251.1,1525,251.1L1525,251.1z M1505.5,270.7c-1.3,0-2.5,0.6-3.4,1.7c0,0,0,0,0,0c0,0-0.1,0.1-0.1,0.1
				c-1.4,1.9-1.1,4.6,0.8,6c0.8,0.6,1.7,0.9,2.6,0.9c1.3,0,2.6-0.6,3.4-1.7l0.1-0.1c1.4-1.9,1.1-4.6-0.8-6
				C1507.3,271,1506.4,270.7,1505.5,270.7L1505.5,270.7z M1491.6,294.4c-1.7,0-3.2,1-3.9,2.6c0,0,0,0,0,0c0,0,0,0.1,0,0.1
				c0,0,0,0,0,0c-0.9,2.2,0.1,4.7,2.3,5.6c0.5,0.2,1.1,0.3,1.7,0.3c1.7,0,3.2-1,3.9-2.6l0.1-0.1c0.9-2.2-0.1-4.7-2.2-5.6
				C1492.7,294.5,1492.1,294.4,1491.6,294.4L1491.6,294.4z M1483.7,320.9c-2,0-3.8,1.5-4.2,3.5c0,0,0,0.1,0,0.1c0,0,0,0,0,0.1
				c-0.4,2.3,1.1,4.5,3.5,5c0.3,0,0.5,0.1,0.8,0.1c2,0,3.8-1.5,4.2-3.5l0-0.1c0.4-2.3-1.1-4.6-3.5-5
				C1484.2,321,1483.9,320.9,1483.7,320.9L1483.7,320.9z M1481.5,348.7C1481.5,348.7,1481.5,348.7,1481.5,348.7
				c-2.4,0-4.3,2-4.3,4.3c0,0.1,0,0.1,0,0.2c0,2.3,1.9,4.2,4.3,4.2c0,0,0,0,0.1,0c2.4,0,4.3-2,4.2-4.3l0-0.1
				C1485.8,350.6,1483.9,348.7,1481.5,348.7L1481.5,348.7z M1484.5,376.3c-0.3,0-0.6,0-0.9,0.1c-2.3,0.5-3.8,2.8-3.3,5.1
				c0,0,0,0.1,0,0.1c0,0,0,0,0,0c0.4,2,2.2,3.4,4.2,3.4c0.3,0,0.6,0,0.9-0.1c2.3-0.5,3.8-2.8,3.3-5.1l0-0.1
				C1488.2,377.7,1486.5,376.3,1484.5,376.3L1484.5,376.3z M1493.2,402.5c-0.6,0-1.2,0.1-1.8,0.4c-2.1,1-3,3.6-2,5.7l0,0
				c0,0,0,0.1,0.1,0.1c0,0,0,0,0,0c0.7,1.5,2.3,2.4,3.9,2.4c0.6,0,1.2-0.1,1.8-0.4c2.1-1,3-3.6,2-5.7l-0.1-0.1
				C1496.4,403.4,1494.8,402.5,1493.2,402.5L1493.2,402.5z M1508.1,425.7c-1,0-1.9,0.3-2.7,1c-1.8,1.5-2,4.2-0.5,6c0,0,0,0,0,0
				c0,0,0,0,0,0c0,0,0,0,0.1,0.1c0.8,1,2.1,1.5,3.3,1.5c1,0,1.9-0.3,2.7-1c1.8-1.5,2-4.2,0.5-6l-0.1-0.1
				C1510.5,426.2,1509.3,425.7,1508.1,425.7L1508.1,425.7z M1528.3,444.5c-1.3,0-2.6,0.6-3.5,1.8c-1.4,1.9-1,4.6,0.9,6
				c0,0,0.1,0.1,0.1,0.1c0.8,0.6,1.6,0.8,2.5,0.8c1.3,0,2.6-0.6,3.5-1.8c1.4-1.9,1-4.6-0.9-6l-0.1-0.1
				C1530,444.8,1529.2,444.5,1528.3,444.5L1528.3,444.5z M1552.3,458.3c-1.7,0-3.2,1-3.9,2.6c-0.9,2.2,0,4.7,2.2,5.6c0,0,0,0,0.1,0
				c0,0,0.1,0,0.1,0c0.6,0.2,1.1,0.3,1.7,0.3c1.7,0,3.2-1,3.9-2.6c0.9-2.2-0.1-4.7-2.2-5.6l-0.1-0.1
				C1553.5,458.4,1552.9,458.3,1552.3,458.3L1552.3,458.3z M1578.8,466.6c-2,0-3.8,1.4-4.2,3.4c-0.5,2.3,1,4.6,3.3,5c0,0,0,0,0,0
				c0.1,0,0.1,0,0.1,0c0.3,0.1,0.6,0.1,0.8,0.1c2,0,3.8-1.4,4.2-3.4c0.5-2.3-1-4.6-3.3-5l-0.1,0
				C1579.4,466.6,1579.1,466.6,1578.8,466.6L1578.8,466.6z M1633.8,464.7c-0.4,0-0.7,0-1.1,0.1l-0.1,0c-2.3,0.6-3.6,3-3,5.2
				c0.5,1.9,2.2,3.2,4.1,3.2c0.4,0,0.7,0,1.1-0.1c0.1,0,0.1,0,0.2,0c2.3-0.6,3.6-3,3-5.2C1637.4,465.9,1635.7,464.7,1633.8,464.7
				L1633.8,464.7z M1659.7,454.7c-0.7,0-1.3,0.2-1.9,0.5l-0.1,0.1c-2.1,1.1-2.9,3.7-1.9,5.8c0.8,1.5,2.3,2.3,3.8,2.3
				c0.6,0,1.3-0.1,1.9-0.5c0,0,0,0,0.1,0c0,0,0,0,0.1,0c0,0,0,0,0,0c2.1-1.1,2.9-3.7,1.9-5.8
				C1662.7,455.5,1661.2,454.7,1659.7,454.7L1659.7,454.7z M1682.8,439.4c-1,0-2,0.3-2.8,1l-0.1,0.1c-1.8,1.5-2,4.2-0.5,6
				c0.8,1,2.1,1.5,3.3,1.5c1,0,1.9-0.3,2.8-1c0,0,0.1-0.1,0.1-0.1c0,0,0,0,0,0c1.8-1.5,2-4.2,0.5-6
				C1685.2,440,1684,439.4,1682.8,439.4L1682.8,439.4z M1701.5,419.2c-1.3,0-2.6,0.6-3.5,1.8l-0.1,0.1c-1.4,1.9-0.9,4.6,1,6
				c0.8,0.5,1.6,0.8,2.5,0.8c1.3,0,2.6-0.6,3.5-1.8c0,0,0,0,0,0c0,0,0,0,0-0.1c0,0,0,0,0.1-0.1c1.4-1.9,0.9-4.6-1-6
				C1703.2,419.5,1702.4,419.2,1701.5,419.2L1701.5,419.2z M1714.6,395c-1.7,0-3.3,1-4,2.7l-0.1,0.1c-0.9,2.2,0.2,4.7,2.4,5.5
				c0.5,0.2,1,0.3,1.6,0.3c1.7,0,3.3-1,4-2.7c0,0,0-0.1,0-0.1c0,0,0,0,0-0.1c0.8-2.2-0.2-4.7-2.4-5.5
				C1715.6,395.1,1715.1,395,1714.6,395L1714.6,395z M1721.5,368.2c-2.1,0-3.9,1.5-4.2,3.7l0,0.1c-0.3,2.3,1.3,4.5,3.6,4.9
				c0.2,0,0.4,0,0.6,0c2.1,0,3.9-1.5,4.2-3.7c0,0,0,0,0,0c0,0,0-0.1,0-0.1c0,0,0,0,0-0.1c0.3-2.3-1.3-4.5-3.6-4.9
				C1722,368.2,1721.7,368.2,1721.5,368.2L1721.5,368.2z M1722.9,340.4c-0.1,0-0.1,0-0.2,0c-2.4,0.1-4.2,2.1-4.1,4.4l0,0.1
				c0.1,2.3,2,4.1,4.3,4.1c0.1,0,0.1,0,0.2,0c2.4-0.1,4.2-2.1,4.1-4.4c0-0.1,0-0.1,0-0.2C1727.1,342.2,1725.2,340.4,1722.9,340.4
				L1722.9,340.4z M1719.2,312.8c-0.3,0-0.7,0-1,0.1c-2.3,0.6-3.7,2.9-3.2,5.2l0,0.1c0.5,2,2.2,3.3,4.2,3.3c0.3,0,0.7,0,1-0.1
				c2.3-0.6,3.7-2.9,3.2-5.2c0,0,0,0,0,0c0,0,0-0.1,0-0.1C1722.9,314.1,1721.2,312.8,1719.2,312.8L1719.2,312.8z M1709.7,286.9
				c-0.7,0-1.3,0.2-2,0.5c-2.1,1.1-2.9,3.7-1.9,5.8l0.1,0.1c0.8,1.5,2.3,2.3,3.8,2.3c0.7,0,1.3-0.2,1.9-0.5c2.1-1.1,2.9-3.6,1.9-5.7
				c0,0,0-0.1,0-0.1c0,0,0,0,0-0.1C1712.7,287.8,1711.2,286.9,1709.7,286.9L1709.7,286.9z M1694.1,264.2c-1,0-2,0.4-2.9,1.1
				c-1.8,1.6-1.9,4.3-0.3,6l0.1,0.1c0.8,0.9,2,1.4,3.2,1.4c1,0,2-0.4,2.9-1.1c1.8-1.6,1.9-4.3,0.3-6c0,0,0,0,0,0
				c0,0-0.1-0.1-0.1-0.1C1696.4,264.7,1695.3,264.2,1694.1,264.2L1694.1,264.2z M1673.3,246.1c-1.4,0-2.7,0.7-3.5,1.9
				c-1.3,2-0.8,4.6,1.1,5.9l0.1,0.1c0.7,0.5,1.6,0.7,2.4,0.7c1.4,0,2.7-0.7,3.5-1.9c1.3-2,0.8-4.6-1.1-5.9c0,0,0,0,0,0
				c0,0-0.1,0-0.1-0.1l0,0C1675,246.4,1674.1,246.1,1673.3,246.1L1673.3,246.1z M1648.8,233.2c-1.7,0-3.3,1-4,2.7
				c-0.9,2.2,0.2,4.7,2.4,5.6l0.1,0.1c0.5,0.2,1.1,0.3,1.6,0.3c1.7,0,3.3-1,4-2.7c0.9-2.2-0.2-4.7-2.4-5.6c0,0,0,0,0,0
				c0,0-0.1,0-0.1,0C1649.8,233.3,1649.3,233.2,1648.8,233.2L1648.8,233.2z M1622.1,225.7c-2,0-3.9,1.5-4.2,3.6
				c-0.4,2.3,1.2,4.5,3.5,4.9l0.1,0c0.2,0,0.5,0.1,0.7,0.1c2,0,3.9-1.5,4.2-3.6c0.4-2.3-1.2-4.5-3.5-4.9c0,0-0.1,0-0.1,0
				c0,0,0,0-0.1,0C1622.5,225.8,1622.3,225.7,1622.1,225.7L1622.1,225.7z M1571.7,445.2c-0.5,0-1.1,0.1-1.6,0.3
				c-2.2,0.9-3.2,3.4-2.3,5.6l0.1,0.2c0.7,1.6,2.3,2.6,4,2.6c0.5,0,1.1-0.1,1.6-0.3c2.2-0.9,3.2-3.4,2.3-5.6c0,0,0,0,0,0
				c0,0,0-0.1,0-0.1c0,0,0,0,0,0C1574.9,446.2,1573.3,445.2,1571.7,445.2L1571.7,445.2z M1564.2,416.5c-0.2,0-0.5,0-0.7,0.1
				c-2.3,0.4-3.9,2.6-3.5,4.9l0,0.2c0.3,2.1,2.2,3.6,4.2,3.6c0.2,0,0.5,0,0.7-0.1c2.3-0.4,3.9-2.6,3.5-4.9c0-0.1,0-0.1,0-0.2
				C1568.1,418,1566.3,416.5,1564.2,416.5L1564.2,416.5z M1561.1,387.6c-0.1,0-0.2,0-0.3,0c-2.4,0.2-4.1,2.2-4,4.6l0,0.2
				c0.1,2.3,2,4,4.3,4c0.1,0,0.2,0,0.3,0c2.4-0.2,4.1-2.2,4-4.6c0-0.1,0-0.1,0-0.2l0,0C1565.2,389.4,1563.4,387.6,1561.1,387.6
				L1561.1,387.6z M1560,358.7C1560,358.7,1560,358.7,1560,358.7c-2.4,0-4.3,2-4.3,4.3l0,0.2c0,2.3,1.9,4.2,4.3,4.2c0,0,0,0,0.1,0
				c2.4,0,4.2-2,4.2-4.3c0,0,0,0,0-0.1c0,0,0-0.1,0-0.1C1564.3,360.6,1562.4,358.7,1560,358.7L1560,358.7z M1560.1,329.9
				c-2.3,0-4.2,1.9-4.3,4.2l0,0.2c0,2.4,1.8,4.3,4.2,4.4c0,0,0.1,0,0.1,0c2.3,0,4.2-1.9,4.3-4.2c0,0,0-0.1,0-0.2c0,0,0,0,0,0
				C1564.4,331.9,1562.6,329.9,1560.1,329.9C1560.2,329.9,1560.1,329.9,1560.1,329.9L1560.1,329.9z M1561.4,301
				c-2.2,0-4.1,1.7-4.3,4l0,0.2c-0.2,2.4,1.6,4.4,3.9,4.6c0.1,0,0.2,0,0.3,0c2.2,0,4.1-1.7,4.3-3.9c0,0,0-0.1,0-0.1c0,0,0,0,0,0
				c0.2-2.4-1.6-4.4-3.9-4.6C1561.6,301,1561.5,301,1561.4,301L1561.4,301z M1564.9,272.1c-2,0-3.8,1.5-4.2,3.5l0,0.2
				c-0.4,2.3,1.1,4.6,3.5,5c0.3,0,0.5,0.1,0.8,0.1c2,0,3.8-1.5,4.2-3.5c0,0,0-0.1,0-0.1c0,0,0,0,0,0c0,0,0-0.1,0-0.1
				c0.4-2.3-1.1-4.6-3.5-5C1565.4,272.1,1565.2,272.1,1564.9,272.1L1564.9,272.1z M1573.5,243.5c-1.6,0-3.1,0.9-3.8,2.4l-0.1,0.2
				c-1,2.1-0.2,4.7,1.9,5.7c0.6,0.3,1.3,0.4,1.9,0.4c1.6,0,3.1-0.9,3.8-2.4c0,0,0,0,0-0.1c0,0,0-0.1,0-0.1c1-2.1,0.2-4.7-1.9-5.7
				C1574.8,243.7,1574.2,243.5,1573.5,243.5L1573.5,243.5z M1626.8,236.5c-0.9,0-1.8,0.3-2.5,0.8c-1.9,1.4-2.3,4.1-0.9,6
				c0,0,0,0,0,0c0,0,0,0,0,0l0,0c0,0,0,0,0,0c0,0,0,0,0,0c0,0,0,0,0,0c0,0,0,0,0,0c0,0,0,0,0,0l0,0c0,0,0,0,0,0
				c0.8,1.1,2.1,1.8,3.5,1.8c0.9,0,1.8-0.3,2.5-0.8c1.9-1.4,2.3-4.1,0.9-6l-0.1-0.2C1629.4,237.1,1628.1,236.5,1626.8,236.5
				L1626.8,236.5z M1638.3,264.4c-0.3,0-0.7,0-1,0.1c-2.3,0.5-3.7,2.8-3.2,5.1c0,0,0,0,0,0c0,0,0,0.1,0,0.1c0.5,2,2.2,3.3,4.2,3.3
				c0.3,0,0.6,0,1-0.1c2.3-0.5,3.7-2.8,3.2-5.1l0-0.2C1642,265.7,1640.2,264.4,1638.3,264.4L1638.3,264.4z M1642.8,293.3
				c-0.1,0-0.3,0-0.4,0c-2.4,0.2-4.1,2.3-3.8,4.7c0,0,0,0,0,0c0,0,0,0,0,0c0,0,0,0.1,0,0.1c0.2,2.2,2.1,3.9,4.3,3.9
				c0.1,0,0.3,0,0.4,0c2.4-0.2,4.1-2.3,3.8-4.7l0-0.2C1646.8,295,1645,293.3,1642.8,293.3L1642.8,293.3z M1644.6,322.2
				c0,0-0.1,0-0.1,0c-2.4,0.1-4.2,2.1-4.1,4.4c0,0,0,0,0,0.1c0,0,0,0.1,0,0.1c0,0,0,0,0,0c0.1,2.3,2,4.1,4.3,4.1c0,0,0.1,0,0.1,0
				c2.4-0.1,4.2-2.1,4.1-4.4l0-0.2C1648.8,324,1646.9,322.2,1644.6,322.2L1644.6,322.2z M1645,351.1c-2.4,0-4.3,1.9-4.3,4.3
				c0,0,0,0,0,0c0,0,0,0,0,0c0,0,0,0,0,0.1c0,2.4,1.9,4.3,4.3,4.3c0,0,0,0,0,0c2.4,0,4.3-1.9,4.3-4.3l0-0.2
				C1649.3,353,1647.4,351.1,1645,351.1C1645,351.1,1645,351.1,1645,351.1L1645,351.1z M1644.2,380c-2.3,0-4.2,1.8-4.3,4.1
				c0,0.1,0,0.1,0,0.2c-0.1,2.4,1.7,4.4,4.1,4.5c0.1,0,0.1,0,0.2,0c2.3,0,4.2-1.8,4.3-4.1l0-0.2c0.1-2.4-1.7-4.4-4.1-4.5
				C1644.4,380,1644.3,380,1644.2,380L1644.2,380z M1641.7,408.9c-2.1,0-4,1.6-4.2,3.7c0,0.1,0,0.1,0,0.2c-0.3,2.3,1.4,4.5,3.7,4.8
				c0.2,0,0.4,0,0.6,0c2.1,0,4-1.6,4.2-3.7l0-0.2c0.3-2.3-1.3-4.5-3.7-4.8C1642.1,408.9,1641.9,408.9,1641.7,408.9L1641.7,408.9z
				 M1635.7,437.7c-1.8,0-3.5,1.2-4.1,3c0,0,0,0,0,0c0,0,0,0.1,0,0.1c0,0,0,0,0,0c-0.7,2.3,0.5,4.7,2.8,5.4c0.4,0.1,0.9,0.2,1.3,0.2
				c1.8,0,3.5-1.2,4.1-3l0.1-0.2c0.7-2.3-0.5-4.7-2.8-5.4C1636.6,437.7,1636.2,437.7,1635.7,437.7L1635.7,437.7z"/>
			<path d="M1777.5,266.2c-2.4,0-4.3,1.9-4.3,4.3v0.2c0,2.4,1.9,4.3,4.3,4.3c2.4,0,4.3-1.9,4.3-4.3v-0.2
				C1781.8,268.2,1779.9,266.2,1777.5,266.2L1777.5,266.2z M1777.5,294.9c-2.4,0-4.3,1.9-4.3,4.3v0.2c0,2.4,1.9,4.3,4.3,4.3
				c2.4,0,4.3-1.9,4.3-4.3v-0.2C1781.8,296.9,1779.9,294.9,1777.5,294.9L1777.5,294.9z M1777.5,323.6c-2.4,0-4.3,1.9-4.3,4.3v0.2
				c0,2.4,1.9,4.3,4.3,4.3c2.4,0,4.3-1.9,4.3-4.3v-0.2C1781.8,325.5,1779.9,323.6,1777.5,323.6L1777.5,323.6z M1777.5,352.3
				c-2.4,0-4.3,1.9-4.3,4.3v0.2c0,2.4,1.9,4.3,4.3,4.3c2.4,0,4.3-1.9,4.3-4.3v-0.2C1781.8,354.2,1779.9,352.3,1777.5,352.3
				L1777.5,352.3z M1777.5,381c-2.4,0-4.3,1.9-4.3,4.3v0.2c0,2.4,1.9,4.3,4.3,4.3c2.4,0,4.3-1.9,4.3-4.3v-0.2
				C1781.8,382.9,1779.9,381,1777.5,381L1777.5,381z M1777.5,409.7c-2.4,0-4.3,1.9-4.3,4.3v0.2c0,2.4,1.9,4.3,4.3,4.3
				c2.4,0,4.3-1.9,4.3-4.3V414C1781.8,411.6,1779.9,409.7,1777.5,409.7L1777.5,409.7z M1777.5,438.4c-2.4,0-4.3,1.9-4.3,4.3v0.2
				c0,2.4,1.9,4.3,4.3,4.3c2.4,0,4.3-1.9,4.3-4.3v-0.2C1781.8,440.3,1779.9,438.4,1777.5,438.4L1777.5,438.4z M1848.6,426.4
				c-2.4,0-4.3,1.9-4.3,4.3v0.2c0,2.4,1.9,4.3,4.3,4.3c2.4,0,4.3-1.9,4.3-4.3v-0.2C1852.9,428.3,1850.9,426.4,1848.6,426.4
				L1848.6,426.4z M1848.6,397.7c-2.4,0-4.3,1.9-4.3,4.3v0.2c0,2.4,1.9,4.3,4.3,4.3c2.4,0,4.3-1.9,4.3-4.3V402
				C1852.9,399.6,1850.9,397.7,1848.6,397.7L1848.6,397.7z M1848.6,369c-2.4,0-4.3,1.9-4.3,4.3v0.2c0,2.4,1.9,4.3,4.3,4.3
				c2.4,0,4.3-1.9,4.3-4.3v-0.2C1852.9,370.9,1850.9,369,1848.6,369L1848.6,369z M1848.6,340.3c-2.4,0-4.3,1.9-4.3,4.3v0.2
				c0,2.4,1.9,4.3,4.3,4.3c2.4,0,4.3-1.9,4.3-4.3v-0.2C1852.9,342.2,1850.9,340.3,1848.6,340.3L1848.6,340.3z M1848.6,311.6
				c-2.4,0-4.3,1.9-4.3,4.3v0.2c0,2.4,1.9,4.3,4.3,4.3c2.4,0,4.3-1.9,4.3-4.3v-0.2C1852.9,313.5,1850.9,311.6,1848.6,311.6
				L1848.6,311.6z M1848.6,282.9c-2.4,0-4.3,1.9-4.3,4.3v0.2c0,2.4,1.9,4.3,4.3,4.3c2.4,0,4.3-1.9,4.3-4.3v-0.2
				C1852.9,284.8,1850.9,282.9,1848.6,282.9L1848.6,282.9z M1848.6,254.2c-2.4,0-4.3,1.9-4.3,4.3v0.2c0,2.4,1.9,4.3,4.3,4.3
				c2.4,0,4.3-1.9,4.3-4.3v-0.2C1852.9,256.1,1850.9,254.2,1848.6,254.2L1848.6,254.2z"/>
			<path d="M319,228.2h-0.2c-2.4,0-4.3,1.9-4.3,4.3c0,2.4,1.9,4.3,4.3,4.3h0.2c2.4,0,4.3-1.9,4.3-4.3
				C323.3,230.1,321.3,228.2,319,228.2L319,228.2z"/>
			<path d="M206.5,228.2h-0.2c-2.4,0-4.3,1.9-4.3,4.3c0,2.4,1.9,4.3,4.3,4.3h0.2c2.4,0,4.3-1.9,4.3-4.3
				C210.8,230.1,208.9,228.2,206.5,228.2L206.5,228.2z"/>
			<path d="M185.4,228.2h-0.2c-2.4,0-4.3,1.9-4.3,4.3c0,2.4,1.9,4.3,4.3,4.3h0.2c2.4,0,4.3-1.9,4.3-4.3
				C189.7,230.1,187.7,228.2,185.4,228.2L185.4,228.2z"/>
			<path d="M230.6,464.9h-0.2c-2.4,0-4.3,1.9-4.3,4.3c0,2.4,1.9,4.3,4.3,4.3h0.2c2.4,0,4.3-1.9,4.3-4.3
				C234.8,466.8,232.9,464.9,230.6,464.9L230.6,464.9z"/>
			<path d="M206.2,464.9H206c-2.4,0-4.3,1.9-4.3,4.3c0,2.4,1.9,4.3,4.3,4.3h0.2c2.4,0,4.3-1.9,4.3-4.3
				C210.4,466.8,208.5,464.9,206.2,464.9L206.2,464.9z"/>
			<path d="M182.6,464.9h-0.2c-2.4,0-4.3,1.9-4.3,4.3c0,2.4,1.9,4.3,4.3,4.3h0.2c2.4,0,4.3-1.9,4.3-4.3
				C186.9,466.8,184.9,464.9,182.6,464.9L182.6,464.9z"/>
			<path d="M288.3,464.9h-0.2c-2.4,0-4.3,1.9-4.3,4.3c0,2.4,1.9,4.3,4.3,4.3h0.2c2.4,0,4.3-1.9,4.3-4.3
				C292.6,466.8,290.7,464.9,288.3,464.9L288.3,464.9z"/>
			<path d="M315,464.9h-0.2c-2.4,0-4.3,1.9-4.3,4.3c0,2.4,1.9,4.3,4.3,4.3h0.2c2.4,0,4.3-1.9,4.3-4.3
				C319.3,466.8,317.4,464.9,315,464.9L315,464.9z"/>
			<g>
				<path d="M530.8,227.2h-0.2c-2.4,0-4.3,1.9-4.3,4.3c0,2.4,1.9,4.3,4.3,4.3h0.2c2.4,0,4.3-1.9,4.3-4.3
					C535.1,229.1,533.2,227.2,530.8,227.2L530.8,227.2z M485.4,234.3c-1.9,0-3.6,1.2-4.1,3.1l0,0.2c-0.6,2.3,0.7,4.6,3,5.3
					c0.4,0.1,0.8,0.2,1.1,0.2c1.9,0,3.6-1.2,4.1-3.1l0-0.2c0.6-2.3-0.7-4.6-3-5.3C486.2,234.4,485.8,234.3,485.4,234.3L485.4,234.3z
					 M526,400c-0.4,0-0.8,0.1-1.2,0.2c-2.3,0.6-3.6,3-3,5.3l0,0.2c0.5,1.9,2.2,3.1,4.1,3.1c0.4,0,0.8-0.1,1.2-0.2
					c2.3-0.6,3.6-3,3-5.3l0-0.2C529.5,401.2,527.8,400,526,400L526,400z M533.7,427.6c-0.4,0-0.8,0.1-1.2,0.2c-2.3,0.6-3.6,3-3,5.3
					l0,0.1c0,0,0,0,0,0c0.5,1.9,2.2,3.1,4.1,3.1c0.4,0,0.8-0.1,1.2-0.2c2.3-0.6,3.6-3,3-5.3l0-0.2
					C537.3,428.9,535.6,427.6,533.7,427.6L533.7,427.6z M565.1,464.9H565c-2.4,0-4.3,1.9-4.3,4.3c0,2.4,1.9,4.3,4.3,4.3h0.2
					c2.4,0,4.3-1.9,4.3-4.3C569.4,466.8,567.5,464.9,565.1,464.9L565.1,464.9z M593.8,464.9h-0.2c-2.4,0-4.3,1.9-4.3,4.3
					c0,2.4,1.9,4.3,4.3,4.3h0.2c2.4,0,4.3-1.9,4.3-4.3C598.1,466.8,596.2,464.9,593.8,464.9L593.8,464.9z M618.9,438.1
					c-0.4,0-0.8,0.1-1.2,0.2c-2.3,0.7-3.6,3.1-2.9,5.3l0,0.2c0.6,1.9,2.3,3.1,4.1,3.1c0.4,0,0.8-0.1,1.2-0.2
					c2.3-0.7,3.6-3.1,2.9-5.3l0,0c0,0,0,0,0,0l0,0c0,0,0-0.1,0-0.1C622.5,439.3,620.8,438.1,618.9,438.1L618.9,438.1z M610.8,410.6
					c-0.4,0-0.8,0.1-1.2,0.2c-2.3,0.7-3.6,3.1-2.9,5.3l0,0.2c0.6,1.9,2.3,3.1,4.1,3.1c0.4,0,0.8-0.1,1.2-0.2
					c2.3-0.7,3.6-3.1,2.9-5.3l0-0.2C614.3,411.8,612.6,410.6,610.8,410.6L610.8,410.6z M602.6,383.1c-0.4,0-0.8,0.1-1.2,0.2
					c-2.3,0.7-3.6,3.1-2.9,5.3l0,0.2c0.6,1.9,2.3,3.1,4.1,3.1c0.4,0,0.8-0.1,1.2-0.2c2.3-0.7,3.6-3.1,2.9-5.3l0-0.2
					C606.2,384.3,604.4,383.1,602.6,383.1L602.6,383.1z M594.4,355.6c-0.4,0-0.8,0.1-1.2,0.2c-2.3,0.7-3.6,3.1-2.9,5.3l0,0.2
					c0.6,1.9,2.3,3.1,4.1,3.1c0.4,0,0.8-0.1,1.2-0.2c2.3-0.7,3.6-3.1,2.9-5.3l0-0.2C598,356.8,596.3,355.6,594.4,355.6L594.4,355.6z
					 M586.3,328.1c-0.4,0-0.8,0.1-1.2,0.2c-2.3,0.7-3.6,3.1-2.9,5.3l0,0.2c0.6,1.9,2.3,3.1,4.1,3.1c0.4,0,0.8-0.1,1.2-0.2
					c2.3-0.7,3.6-3,2.9-5.3l0-0.2C589.8,329.3,588.1,328.1,586.3,328.1L586.3,328.1z M578.1,300.6c-0.4,0-0.8,0.1-1.2,0.2
					c-2.3,0.7-3.6,3.1-2.9,5.3l0,0.2c0.6,1.9,2.3,3.1,4.1,3.1c0.4,0,0.8-0.1,1.2-0.2c2.3-0.7,3.6-3.1,2.9-5.3l0-0.2
					C581.7,301.8,580,300.6,578.1,300.6L578.1,300.6z M570,273.1c-0.4,0-0.8,0.1-1.2,0.2c-2.3,0.7-3.6,3.1-2.9,5.3l0,0.2
					c0.6,1.9,2.3,3.1,4.1,3.1c0.4,0,0.8-0.1,1.2-0.2c2.3-0.7,3.6-3.1,2.9-5.3l0-0.2C573.5,274.3,571.8,273.1,570,273.1L570,273.1z
					 M561.8,245.6c-0.4,0-0.8,0.1-1.2,0.2c-2.3,0.7-3.6,3.1-2.9,5.3l0,0.2c0.6,1.9,2.3,3.1,4.1,3.1c0.4,0,0.8-0.1,1.2-0.2
					c2.3-0.7,3.6-3.1,2.9-5.3l0-0.2C565.4,246.8,563.7,245.6,561.8,245.6L561.8,245.6z M494.6,287.2c-0.4,0-0.8,0.1-1.2,0.2
					c-2.3,0.6-3.6,3-3,5.3l0,0.2c0.5,1.9,2.2,3.1,4.1,3.1c0.4,0,0.8-0.1,1.2-0.2c2.3-0.6,3.6-3,3-5.3l0-0.2
					C498.2,288.4,496.5,287.2,494.6,287.2L494.6,287.2z M502.3,314.8c-0.4,0-0.8,0.1-1.2,0.2c-2.3,0.6-3.6,3-3,5.3c0,0,0,0,0,0.1
					l0,0.1c0.5,1.9,2.2,3.1,4.1,3.1c0.4,0,0.8-0.1,1.2-0.2c2.3-0.6,3.6-3,3-5.3l0-0.2C505.9,316,504.2,314.8,502.3,314.8
					L502.3,314.8z M510.1,342.4c-0.4,0-0.8,0.1-1.2,0.2c-2.3,0.6-3.6,3-3,5.3l0,0.2c0.5,1.9,2.2,3.1,4.1,3.1c0.4,0,0.8-0.1,1.2-0.2
					c2.3-0.6,3.6-3,3-5.3l0-0.2C513.7,343.7,512,342.4,510.1,342.4L510.1,342.4z M517.8,370.1c-0.4,0-0.8,0.1-1.2,0.2
					c-2.3,0.6-3.6,3-3,5.3l0,0.1c0,0,0,0.1,0,0.1c0.5,1.9,2.2,3.1,4.1,3.1c0.4,0,0.8-0.1,1.2-0.2c2.3-0.6,3.6-3,3-5.3l0-0.2
					C521.4,371.3,519.7,370.1,517.8,370.1L517.8,370.1z"/>
				<path d="M557.8,227.2h-0.2c-2.4,0-4.3,1.9-4.3,4.3c0,2.4,1.9,4.3,4.3,4.3h0.2c2.4,0,4.3-1.9,4.3-4.3
					C562.1,229.1,560.2,227.2,557.8,227.2L557.8,227.2z"/>
				<path d="M485.4,234.3c-1.9,0-3.6,1.2-4.1,3.1l0,0.2c-0.6,2.3,0.7,4.6,3,5.3c0.4,0.1,0.8,0.2,1.1,0.2c1.9,0,3.6-1.2,4.1-3.1
					l0-0.2c0.6-2.3-0.7-4.6-3-5.3C486.2,234.4,485.8,234.3,485.4,234.3L485.4,234.3z"/>
				<path d="M478.1,262c-1.9,0-3.6,1.2-4.1,3.1l0,0.2c-0.6,2.3,0.7,4.6,3,5.3c0.4,0.1,0.8,0.2,1.1,0.2c1.9,0,3.6-1.2,4.1-3.1l0-0.2
					c0.6-2.3-0.7-4.6-3-5.3C478.9,262,478.5,262,478.1,262L478.1,262z"/>
				<path d="M506.2,227.2h-0.2c-2.4,0-4.3,1.9-4.3,4.3c0,2.4,1.9,4.3,4.3,4.3h0.2c2.4,0,4.3-1.9,4.3-4.3
					C510.5,229.1,508.6,227.2,506.2,227.2L506.2,227.2z"/>
				<path d="M470,289.6c-1.9,0-3.6,1.2-4.1,3.1l0,0.2c-0.6,2.3,0.7,4.6,3,5.3c0.4,0.1,0.8,0.2,1.1,0.2c1.9,0,3.6-1.2,4.1-3.1l0-0.2
					c0.6-2.3-0.7-4.6-3-5.3C470.7,289.7,470.3,289.6,470,289.6L470,289.6z"/>
				<path d="M462.7,317.2c-1.9,0-3.6,1.2-4.1,3.1l0,0.2c-0.6,2.3,0.7,4.6,3,5.3c0.4,0.1,0.8,0.2,1.1,0.2c1.9,0,3.6-1.2,4.1-3.1
					l0-0.2c0.6-2.3-0.7-4.6-3-5.3C463.4,317.3,463,317.2,462.7,317.2L462.7,317.2z"/>
				<path d="M455.3,344.9c-1.9,0-3.6,1.2-4.1,3.1l0,0.2c-0.6,2.3,0.7,4.6,3,5.3c0.4,0.1,0.8,0.2,1.1,0.2c1.9,0,3.6-1.2,4.1-3.1
					l0-0.2c0.6-2.3-0.7-4.6-3-5.3C456.1,344.9,455.7,344.9,455.3,344.9L455.3,344.9z"/>
				<path d="M448,372.5c-1.9,0-3.6,1.2-4.1,3.1l0,0.2c-0.6,2.3,0.7,4.6,3,5.3c0.4,0.1,0.8,0.2,1.1,0.2c1.9,0,3.6-1.2,4.1-3.1l0-0.2
					c0.6-2.3-0.7-4.6-3-5.3C448.8,372.6,448.4,372.5,448,372.5L448,372.5z"/>
				<path d="M440.7,400.2c-1.9,0-3.6,1.2-4.1,3.1l0,0.2c-0.6,2.3,0.7,4.6,3,5.3c0.4,0.1,0.8,0.2,1.1,0.2c1.9,0,3.6-1.2,4.1-3.1
					l0-0.2c0.6-2.3-0.7-4.6-3-5.3C441.5,400.2,441.1,400.2,440.7,400.2L440.7,400.2z"/>
				<path d="M432.6,427.8c-1.9,0-3.6,1.2-4.1,3.1l0,0.2c-0.6,2.3,0.7,4.6,3,5.3c0.4,0.1,0.8,0.2,1.1,0.2c1.9,0,3.6-1.2,4.1-3.1
					l0-0.2c0.6-2.3-0.7-4.6-3-5.3C433.3,427.9,432.9,427.8,432.6,427.8L432.6,427.8z"/>
				<path d="M500.9,388.8c-1.9,0-3.6,1.2-4.1,3.1l0,0.2c-0.6,2.3,0.7,4.6,3,5.3c0.4,0.1,0.8,0.2,1.1,0.2c1.9,0,3.6-1.2,4.1-3.1
					l0-0.2c0.6-2.3-0.7-4.6-3-5.3C501.6,388.9,501.3,388.8,500.9,388.8L500.9,388.8z"/>
				<path d="M424.4,449.8c-1.9,0-3.6,1.2-4.1,3.1l0,0.2c-0.6,2.3,0.7,4.6,3,5.3c0.4,0.1,0.8,0.2,1.1,0.2c1.9,0,3.6-1.2,4.1-3.1
					l0-0.2c0.6-2.3-0.7-4.6-3-5.3C425.2,449.8,424.8,449.8,424.4,449.8L424.4,449.8z"/>
				<path d="M393.5,465.2c-1.9,0-3.6,1.2-4.1,3.1l0,0.2c-0.6,2.3,0.7,4.6,3,5.3c0.4,0.1,0.8,0.2,1.1,0.2c1.9,0,3.6-1.2,4.1-3.1
					l0-0.2c0.6-2.3-0.7-4.6-3-5.3C394.3,465.3,393.9,465.2,393.5,465.2L393.5,465.2z"/>
				<path d="M444,465.2c-1.9,0-3.6,1.2-4.1,3.1l0,0.2c-0.6,2.3,0.7,4.6,3,5.3c0.4,0.1,0.8,0.2,1.1,0.2c1.9,0,3.6-1.2,4.1-3.1l0-0.2
					c0.6-2.3-0.7-4.6-3-5.3C444.7,465.3,444.3,465.2,444,465.2L444,465.2z"/>
				<path d="M419.6,465.2c-1.9,0-3.6,1.2-4.1,3.1l0,0.2c-0.6,2.3,0.7,4.6,3,5.3c0.4,0.1,0.8,0.2,1.1,0.2c1.9,0,3.6-1.2,4.1-3.1
					l0-0.2c0.6-2.3-0.7-4.6-3-5.3C420.3,465.3,419.9,465.2,419.6,465.2L419.6,465.2z"/>
				<path d="M470,465.2c-1.9,0-3.6,1.2-4.1,3.1l0,0.2c-0.6,2.3,0.7,4.6,3,5.3c0.4,0.1,0.8,0.2,1.1,0.2c1.9,0,3.6-1.2,4.1-3.1l0-0.2
					c0.6-2.3-0.7-4.6-3-5.3C470.7,465.3,470.3,465.2,470,465.2L470,465.2z"/>
				<path d="M536.7,464.9h-0.2c-2.4,0-4.3,1.9-4.3,4.3c0,2.4,1.9,4.3,4.3,4.3h0.2c2.4,0,4.3-1.9,4.3-4.3
					C541,466.8,539,464.9,536.7,464.9L536.7,464.9z"/>
				<path d="M516.3,464.9h-0.2c-2.4,0-4.3,1.9-4.3,4.3c0,2.4,1.9,4.3,4.3,4.3h0.2c2.4,0,4.3-1.9,4.3-4.3
					C520.6,466.8,518.7,464.9,516.3,464.9L516.3,464.9z"/>
				<path d="M540.6,451.2c-0.4,0-0.8,0.1-1.2,0.2c-2.3,0.6-3.6,3-3,5.3l0,0.2c0.5,1.9,2.2,3.1,4.1,3.1c0.4,0,0.8-0.1,1.2-0.2
					c2.3-0.6,3.6-3,3-5.3l0-0.2C544.2,452.4,542.5,451.2,540.6,451.2L540.6,451.2z"/>
				<path d="M646.9,464.9h-0.2c-2.4,0-4.3,1.9-4.3,4.3c0,2.4,1.9,4.3,4.3,4.3h0.2c2.4,0,4.3-1.9,4.3-4.3
					C651.2,466.8,649.3,464.9,646.9,464.9L646.9,464.9z"/>
			</g>
			<path d="M668.9,464.9h-0.2c-2.4,0-4.3,1.9-4.3,4.3c0,2.4,1.9,4.3,4.3,4.3h0.2c2.4,0,4.3-1.9,4.3-4.3
				C673.2,466.8,671.2,464.9,668.9,464.9L668.9,464.9z"/>
			<path d="M694.1,464.9h-0.2c-2.4,0-4.3,1.9-4.3,4.3c0,2.4,1.9,4.3,4.3,4.3h0.2c2.4,0,4.3-1.9,4.3-4.3
				C698.4,466.8,696.4,464.9,694.1,464.9L694.1,464.9z"/>
			<path d="M770.7,464.9h-0.2c-2.4,0-4.3,1.9-4.3,4.3c0,2.4,1.9,4.3,4.3,4.3h0.2c2.4,0,4.3-1.9,4.3-4.3
				C775,466.8,773.1,464.9,770.7,464.9L770.7,464.9z"/>
			<path d="M795.1,464.9H795c-2.4,0-4.3,1.9-4.3,4.3c0,2.4,1.9,4.3,4.3,4.3h0.2c2.4,0,4.3-1.9,4.3-4.3
				C799.4,466.8,797.5,464.9,795.1,464.9L795.1,464.9z"/>
			<path d="M787,343.7h-0.2c-2.4,0-4.3,1.9-4.3,4.3c0,2.4,1.9,4.3,4.3,4.3h0.2c2.4,0,4.3-1.9,4.3-4.3
				C791.3,345.6,789.3,343.7,787,343.7L787,343.7z"/>
			<path d="M809.9,361.9c-1.1,0-2.3,0.5-3.1,1.4c-1.6,1.7-1.5,4.5,0.2,6.1c0,0,0,0,0,0c0,0,0,0,0,0c0,0,0,0,0,0c0,0,0,0,0,0
				c0,0,0,0,0,0c0,0,0,0,0,0c0,0,0,0,0,0c0.8,0.8,1.9,1.1,2.9,1.1c1.1,0,2.3-0.5,3.1-1.4c1.6-1.7,1.5-4.4-0.2-6l-0.2-0.2
				C812,362.3,811,361.9,809.9,361.9L809.9,361.9z"/>
			<path d="M825.3,345c-0.1,0-0.2,0-0.3,0l-0.2,0c-2.4,0.1-4.2,2.2-4,4.5c0.1,2.3,2,4,4.3,4c0.1,0,0.2,0,0.3,0c0.1,0,0.1,0,0.2,0
				c2.4-0.1,4.2-2.2,4-4.5C829.4,346.8,827.5,345,825.3,345L825.3,345z"/>
			<path d="M742.5,228.2h-0.2c-2.4,0-4.3,1.9-4.3,4.3c0,2.4,1.9,4.3,4.3,4.3h0.2c2.4,0,4.3-1.9,4.3-4.3
				C746.7,230.1,744.8,228.2,742.5,228.2L742.5,228.2z"/>
			<path d="M771.7,228.2h-0.2c-2.4,0-4.3,1.9-4.3,4.3c0,2.4,1.9,4.3,4.3,4.3h0.2c2.4,0,4.3-1.9,4.3-4.3
				C776,230.1,774.1,228.2,771.7,228.2L771.7,228.2z"/>
			<path d="M801,228.2h-0.2c-2.4,0-4.3,1.9-4.3,4.3c0,2.4,1.9,4.3,4.3,4.3h0.2c2.4,0,4.3-1.9,4.3-4.3
				C805.3,230.1,803.4,228.2,801,228.2L801,228.2z"/>
			<path d="M671.7,228.2h-0.2c-2.4,0-4.3,1.9-4.3,4.3c0,2.4,1.9,4.3,4.3,4.3h0.2c2.4,0,4.3-1.9,4.3-4.3
				C676,230.1,674.1,228.2,671.7,228.2L671.7,228.2z"/>
			<path d="M692.2,228.3c-2.4,0-4.3,1.9-4.3,4.3v0.2c0,2.4,1.9,4.3,4.3,4.3s4.3-1.9,4.3-4.3v-0.2
				C696.5,230.3,694.6,228.3,692.2,228.3L692.2,228.3z"/>
			<path d="M717,228.2h-0.2c-2.4,0-4.3,1.9-4.3,4.3c0,2.4,1.9,4.3,4.3,4.3h0.2c2.4,0,4.3-1.9,4.3-4.3
				C721.3,230.1,719.4,228.2,717,228.2L717,228.2z"/>
			<path d="M893.7,438.9c-0.2,0-0.5,0-0.8,0.1c-2.3,0.4-3.9,2.6-3.5,5l0,0.2c0.4,2.1,2.2,3.5,4.2,3.5c0.3,0,0.5,0,0.8-0.1
				c2.3-0.4,3.9-2.6,3.5-5c0-0.1,0-0.1,0-0.2C897.5,440.3,895.7,438.9,893.7,438.9L893.7,438.9z"/>
			<path d="M922.6,439.6c-0.2,0-0.5,0-0.8,0.1c-2.3,0.4-3.9,2.6-3.5,5l0,0.2c0.4,2.1,2.2,3.5,4.2,3.5c0.3,0,0.5,0,0.8-0.1
				c2.3-0.4,3.9-2.6,3.5-5c0-0.1,0-0.1,0-0.2C926.5,441.1,924.6,439.6,922.6,439.6L922.6,439.6z"/>
			<g>
				<path d="M1069.2,227.2h-0.2c-2.4,0-4.3,1.9-4.3,4.3c0,2.4,1.9,4.3,4.3,4.3h0.2c2.4,0,4.3-1.9,4.3-4.3
					C1073.5,229.1,1071.5,227.2,1069.2,227.2L1069.2,227.2z M1023.8,234.3c-1.9,0-3.6,1.2-4.1,3.1l0,0.2c-0.6,2.3,0.7,4.6,3,5.3
					c0.4,0.1,0.8,0.2,1.1,0.2c1.9,0,3.6-1.2,4.1-3.1l0-0.2c0.6-2.3-0.7-4.6-3-5.3C1024.5,234.4,1024.1,234.3,1023.8,234.3
					L1023.8,234.3z M1064.3,400c-0.4,0-0.8,0.1-1.2,0.2c-2.3,0.6-3.6,3-3,5.3l0,0.2c0.5,1.9,2.2,3.1,4.1,3.1c0.4,0,0.8-0.1,1.2-0.2
					c2.3-0.6,3.6-3,3-5.3l0-0.2C1067.9,401.2,1066.2,400,1064.3,400L1064.3,400z M1072,427.6c-0.4,0-0.8,0.1-1.2,0.2
					c-2.3,0.6-3.6,3-3,5.3l0,0.1c0,0,0,0,0,0c0.5,1.9,2.2,3.1,4.1,3.1c0.4,0,0.8-0.1,1.2-0.2c2.3-0.6,3.6-3,3-5.3l0-0.2
					C1075.6,428.9,1073.9,427.6,1072,427.6L1072,427.6z M1103.5,464.9h-0.2c-2.4,0-4.3,1.9-4.3,4.3c0,2.4,1.9,4.3,4.3,4.3h0.2
					c2.4,0,4.3-1.9,4.3-4.3C1107.7,466.8,1105.8,464.9,1103.5,464.9L1103.5,464.9z M1132.2,464.9h-0.2c-2.4,0-4.3,1.9-4.3,4.3
					c0,2.4,1.9,4.3,4.3,4.3h0.2c2.4,0,4.3-1.9,4.3-4.3C1136.4,466.8,1134.5,464.9,1132.2,464.9L1132.2,464.9z M1160.8,464.9h-0.2
					c-2.4,0-4.3,1.9-4.3,4.3c0,2.4,1.9,4.3,4.3,4.3h0.2c2.4,0,4.3-1.9,4.3-4.3C1165.1,466.8,1163.2,464.9,1160.8,464.9L1160.8,464.9
					z M1157.3,438.1c-0.4,0-0.8,0.1-1.2,0.2c-2.3,0.7-3.6,3.1-2.9,5.3l0,0.2c0.6,1.9,2.3,3.1,4.1,3.1c0.4,0,0.8-0.1,1.2-0.2
					c2.3-0.7,3.6-3.1,2.9-5.3l0,0c0,0,0,0,0,0l0,0c0,0,0-0.1,0-0.1C1160.8,439.3,1159.1,438.1,1157.3,438.1L1157.3,438.1z
					 M1149.1,410.6c-0.4,0-0.8,0.1-1.2,0.2c-2.3,0.7-3.6,3.1-2.9,5.3l0,0.2c0.6,1.9,2.3,3.1,4.1,3.1c0.4,0,0.8-0.1,1.2-0.2
					c2.3-0.7,3.6-3.1,2.9-5.3l0-0.2C1152.6,411.8,1150.9,410.6,1149.1,410.6L1149.1,410.6z M1140.9,383.1c-0.4,0-0.8,0.1-1.2,0.2
					c-2.3,0.7-3.6,3.1-2.9,5.3l0,0.2c0.6,1.9,2.3,3.1,4.1,3.1c0.4,0,0.8-0.1,1.2-0.2c2.3-0.7,3.6-3.1,2.9-5.3l0-0.2
					C1144.5,384.3,1142.8,383.1,1140.9,383.1L1140.9,383.1z M1132.8,355.6c-0.4,0-0.8,0.1-1.2,0.2c-2.3,0.7-3.6,3.1-2.9,5.3l0,0.2
					c0.6,1.9,2.3,3.1,4.1,3.1c0.4,0,0.8-0.1,1.2-0.2c2.3-0.7,3.6-3.1,2.9-5.3l0-0.2C1136.3,356.8,1134.6,355.6,1132.8,355.6
					L1132.8,355.6z M1124.6,328.1c-0.4,0-0.8,0.1-1.2,0.2c-2.3,0.7-3.6,3.1-2.9,5.3l0,0.2c0.6,1.9,2.3,3.1,4.1,3.1
					c0.4,0,0.8-0.1,1.2-0.2c2.3-0.7,3.6-3,2.9-5.3l0-0.2C1128.2,329.3,1126.5,328.1,1124.6,328.1L1124.6,328.1z M1116.5,300.6
					c-0.4,0-0.8,0.1-1.2,0.2c-2.3,0.7-3.6,3.1-2.9,5.3l0,0.2c0.6,1.9,2.3,3.1,4.1,3.1c0.4,0,0.8-0.1,1.2-0.2
					c2.3-0.7,3.6-3.1,2.9-5.3l0-0.2C1120,301.8,1118.3,300.6,1116.5,300.6L1116.5,300.6z M1108.3,273.1c-0.4,0-0.8,0.1-1.2,0.2
					c-2.3,0.7-3.6,3.1-2.9,5.3l0,0.2c0.6,1.9,2.3,3.1,4.1,3.1c0.4,0,0.8-0.1,1.2-0.2c2.3-0.7,3.6-3.1,2.9-5.3l0-0.2
					C1111.8,274.3,1110.1,273.1,1108.3,273.1L1108.3,273.1z M1100.1,245.6c-0.4,0-0.8,0.1-1.2,0.2c-2.3,0.7-3.6,3.1-2.9,5.3l0,0.2
					c0.6,1.9,2.3,3.1,4.1,3.1c0.4,0,0.8-0.1,1.2-0.2c2.3-0.7,3.6-3.1,2.9-5.3l0-0.2C1103.7,246.8,1102,245.6,1100.1,245.6
					L1100.1,245.6z M1032.9,287.2c-0.4,0-0.8,0.1-1.2,0.2c-2.3,0.6-3.6,3-3,5.3l0,0.2c0.5,1.9,2.2,3.1,4.1,3.1
					c0.4,0,0.8-0.1,1.2-0.2c2.3-0.6,3.6-3,3-5.3l0-0.2C1036.5,288.4,1034.8,287.2,1032.9,287.2L1032.9,287.2z M1040.7,314.8
					c-0.4,0-0.8,0.1-1.2,0.2c-2.3,0.6-3.6,3-3,5.3c0,0,0,0,0,0.1l0,0.1c0.5,1.9,2.2,3.1,4.1,3.1c0.4,0,0.8-0.1,1.2-0.2
					c2.3-0.6,3.6-3,3-5.3l0-0.2C1044.3,316,1042.6,314.8,1040.7,314.8L1040.7,314.8z M1048.4,342.4c-0.4,0-0.8,0.1-1.2,0.2
					c-2.3,0.6-3.6,3-3,5.3l0,0.2c0.5,1.9,2.2,3.1,4.1,3.1c0.4,0,0.8-0.1,1.2-0.2c2.3-0.6,3.6-3,3-5.3l0-0.2
					C1052,343.7,1050.3,342.4,1048.4,342.4L1048.4,342.4z M1056.1,370.1c-0.4,0-0.8,0.1-1.2,0.2c-2.3,0.6-3.6,3-3,5.3l0,0.1
					c0,0,0,0.1,0,0.1c0.5,1.9,2.2,3.1,4.1,3.1c0.4,0,0.8-0.1,1.2-0.2c2.3-0.6,3.6-3,3-5.3l0-0.2
					C1059.7,371.3,1058,370.1,1056.1,370.1L1056.1,370.1z"/>
				<path d="M1096.2,227.2h-0.2c-2.4,0-4.3,1.9-4.3,4.3c0,2.4,1.9,4.3,4.3,4.3h0.2c2.4,0,4.3-1.9,4.3-4.3
					C1100.4,229.1,1098.5,227.2,1096.2,227.2L1096.2,227.2z"/>
				<path d="M1023.8,234.3c-1.9,0-3.6,1.2-4.1,3.1l0,0.2c-0.6,2.3,0.7,4.6,3,5.3c0.4,0.1,0.8,0.2,1.1,0.2c1.9,0,3.6-1.2,4.1-3.1
					l0-0.2c0.6-2.3-0.7-4.6-3-5.3C1024.5,234.4,1024.1,234.3,1023.8,234.3L1023.8,234.3z"/>
				<path d="M1016.4,262c-1.9,0-3.6,1.2-4.1,3.1l0,0.2c-0.6,2.3,0.7,4.6,3,5.3c0.4,0.1,0.8,0.2,1.1,0.2c1.9,0,3.6-1.2,4.1-3.1l0-0.2
					c0.6-2.3-0.7-4.6-3-5.3C1017.2,262,1016.8,262,1016.4,262L1016.4,262z"/>
				<path d="M1044.5,227.2h-0.2c-2.4,0-4.3,1.9-4.3,4.3c0,2.4,1.9,4.3,4.3,4.3h0.2c2.4,0,4.3-1.9,4.3-4.3
					C1048.8,229.1,1046.9,227.2,1044.5,227.2L1044.5,227.2z"/>
				<path d="M1008.3,289.6c-1.9,0-3.6,1.2-4.1,3.1l0,0.2c-0.6,2.3,0.7,4.6,3,5.3c0.4,0.1,0.8,0.2,1.1,0.2c1.9,0,3.6-1.2,4.1-3.1
					l0-0.2c0.6-2.3-0.7-4.6-3-5.3C1009.1,289.7,1008.7,289.6,1008.3,289.6L1008.3,289.6z"/>
				<path d="M1001,317.2c-1.9,0-3.6,1.2-4.1,3.1l0,0.2c-0.6,2.3,0.7,4.6,3,5.3c0.4,0.1,0.8,0.2,1.1,0.2c1.9,0,3.6-1.2,4.1-3.1l0-0.2
					c0.6-2.3-0.7-4.6-3-5.3C1001.7,317.3,1001.4,317.2,1001,317.2L1001,317.2z"/>
				<path d="M993.7,344.9c-1.9,0-3.6,1.2-4.1,3.1l0,0.2c-0.6,2.3,0.7,4.6,3,5.3c0.4,0.1,0.8,0.2,1.1,0.2c1.9,0,3.6-1.2,4.1-3.1
					l0-0.2c0.6-2.3-0.7-4.6-3-5.3C994.4,344.9,994,344.9,993.7,344.9L993.7,344.9z"/>
				<path d="M986.3,372.5c-1.9,0-3.6,1.2-4.1,3.1l0,0.2c-0.6,2.3,0.7,4.6,3,5.3c0.4,0.1,0.8,0.2,1.1,0.2c1.9,0,3.6-1.2,4.1-3.1
					l0-0.2c0.6-2.3-0.7-4.6-3-5.3C987.1,372.6,986.7,372.5,986.3,372.5L986.3,372.5z"/>
				<path d="M979,400.2c-1.9,0-3.6,1.2-4.1,3.1l0,0.2c-0.6,2.3,0.7,4.6,3,5.3c0.4,0.1,0.8,0.2,1.1,0.2c1.9,0,3.6-1.2,4.1-3.1l0-0.2
					c0.6-2.3-0.7-4.6-3-5.3C979.8,400.2,979.4,400.2,979,400.2L979,400.2z"/>
				<path d="M970.9,427.8c-1.9,0-3.6,1.2-4.1,3.1l0,0.2c-0.6,2.3,0.7,4.6,3,5.3c0.4,0.1,0.8,0.2,1.1,0.2c1.9,0,3.6-1.2,4.1-3.1
					l0-0.2c0.6-2.3-0.7-4.6-3-5.3C971.7,427.9,971.3,427.8,970.9,427.8L970.9,427.8z"/>
				<path d="M1009.1,388.8c-1.9,0-3.6,1.2-4.1,3.1l0,0.2c-0.6,2.3,0.7,4.6,3,5.3c0.4,0.1,0.8,0.2,1.1,0.2c1.9,0,3.6-1.2,4.1-3.1
					l0-0.2c0.6-2.3-0.7-4.6-3-5.3C1009.9,388.9,1009.5,388.8,1009.1,388.8L1009.1,388.8z"/>
				<path d="M1039.2,388.8c-1.9,0-3.6,1.2-4.1,3.1l0,0.2c-0.6,2.3,0.7,4.6,3,5.3c0.4,0.1,0.8,0.2,1.1,0.2c1.9,0,3.6-1.2,4.1-3.1
					l0-0.2c0.6-2.3-0.7-4.6-3-5.3C1040,388.9,1039.6,388.8,1039.2,388.8L1039.2,388.8z"/>
				<path d="M962.8,449.8c-1.9,0-3.6,1.2-4.1,3.1l0,0.2c-0.6,2.3,0.7,4.6,3,5.3c0.4,0.1,0.8,0.2,1.1,0.2c1.9,0,3.6-1.2,4.1-3.1
					l0-0.2c0.6-2.3-0.7-4.6-3-5.3C963.5,449.8,963.1,449.8,962.8,449.8L962.8,449.8z"/>
				<path d="M931.9,465.2c-1.9,0-3.6,1.2-4.1,3.1l0,0.2c-0.6,2.3,0.7,4.6,3,5.3c0.4,0.1,0.8,0.2,1.1,0.2c1.9,0,3.6-1.2,4.1-3.1
					l0-0.2c0.6-2.3-0.7-4.6-3-5.3C932.6,465.3,932.2,465.2,931.9,465.2L931.9,465.2z"/>
				<path d="M982.3,465.2c-1.9,0-3.6,1.2-4.1,3.1l0,0.2c-0.6,2.3,0.7,4.6,3,5.3c0.4,0.1,0.8,0.2,1.1,0.2c1.9,0,3.6-1.2,4.1-3.1
					l0-0.2c0.6-2.3-0.7-4.6-3-5.3C983,465.3,982.7,465.2,982.3,465.2L982.3,465.2z"/>
				<path d="M957.9,465.2c-1.9,0-3.6,1.2-4.1,3.1l0,0.2c-0.6,2.3,0.7,4.6,3,5.3c0.4,0.1,0.8,0.2,1.1,0.2c1.9,0,3.6-1.2,4.1-3.1
					l0-0.2c0.6-2.3-0.7-4.6-3-5.3C958.6,465.3,958.3,465.2,957.9,465.2L957.9,465.2z"/>
				<path d="M1008.3,465.2c-1.9,0-3.6,1.2-4.1,3.1l0,0.2c-0.6,2.3,0.7,4.6,3,5.3c0.4,0.1,0.8,0.2,1.1,0.2c1.9,0,3.6-1.2,4.1-3.1
					l0-0.2c0.6-2.3-0.7-4.6-3-5.3C1009.1,465.3,1008.7,465.2,1008.3,465.2L1008.3,465.2z"/>
				<path d="M1075,464.9h-0.2c-2.4,0-4.3,1.9-4.3,4.3c0,2.4,1.9,4.3,4.3,4.3h0.2c2.4,0,4.3-1.9,4.3-4.3
					C1079.3,466.8,1077.4,464.9,1075,464.9L1075,464.9z"/>
				<path d="M1054.7,464.9h-0.2c-2.4,0-4.3,1.9-4.3,4.3c0,2.4,1.9,4.3,4.3,4.3h0.2c2.4,0,4.3-1.9,4.3-4.3
					C1059,466.8,1057,464.9,1054.7,464.9L1054.7,464.9z"/>
				<path d="M1079,451.2c-0.4,0-0.8,0.1-1.2,0.2c-2.3,0.6-3.6,3-3,5.3l0,0.2c0.5,1.9,2.2,3.1,4.1,3.1c0.4,0,0.8-0.1,1.2-0.2
					c2.3-0.6,3.6-3,3-5.3l0-0.2C1082.6,452.4,1080.8,451.2,1079,451.2L1079,451.2z"/>
				<path d="M1185.2,464.9h-0.2c-2.4,0-4.3,1.9-4.3,4.3c0,2.4,1.9,4.3,4.3,4.3h0.2c2.4,0,4.3-1.9,4.3-4.3
					C1189.5,466.8,1187.6,464.9,1185.2,464.9L1185.2,464.9z"/>
			</g>
			<g>
				<path d="M2038.5,227.2h-0.2c-2.4,0-4.3,1.9-4.3,4.3c0,2.4,1.9,4.3,4.3,4.3h0.2c2.4,0,4.3-1.9,4.3-4.3
					C2042.8,229.1,2040.9,227.2,2038.5,227.2L2038.5,227.2z M1993.1,234.3c-1.9,0-3.6,1.2-4.1,3.1l0,0.2c-0.6,2.3,0.7,4.6,3,5.3
					c0.4,0.1,0.8,0.2,1.1,0.2c1.9,0,3.6-1.2,4.1-3.1l0-0.2c0.6-2.3-0.7-4.6-3-5.3C1993.8,234.4,1993.4,234.3,1993.1,234.3
					L1993.1,234.3z M2033.6,400c-0.4,0-0.8,0.1-1.2,0.2c-2.3,0.6-3.6,3-3,5.3l0,0.2c0.5,1.9,2.2,3.1,4.1,3.1c0.4,0,0.8-0.1,1.2-0.2
					c2.3-0.6,3.6-3,3-5.3l0-0.2C2037.2,401.2,2035.5,400,2033.6,400L2033.6,400z M2041.4,427.6c-0.4,0-0.8,0.1-1.2,0.2
					c-2.3,0.6-3.6,3-3,5.3l0,0.1c0,0,0,0,0,0c0.5,1.9,2.2,3.1,4.1,3.1c0.4,0,0.8-0.1,1.2-0.2c2.3-0.6,3.6-3,3-5.3l0-0.2
					C2044.9,428.9,2043.2,427.6,2041.4,427.6L2041.4,427.6z M2072.8,464.9h-0.2c-2.4,0-4.3,1.9-4.3,4.3c0,2.4,1.9,4.3,4.3,4.3h0.2
					c2.4,0,4.3-1.9,4.3-4.3C2077.1,466.8,2075.1,464.9,2072.8,464.9L2072.8,464.9z M2101.5,464.9h-0.2c-2.4,0-4.3,1.9-4.3,4.3
					c0,2.4,1.9,4.3,4.3,4.3h0.2c2.4,0,4.3-1.9,4.3-4.3C2105.8,466.8,2103.8,464.9,2101.5,464.9L2101.5,464.9z M2130.2,464.9h-0.2
					c-2.4,0-4.3,1.9-4.3,4.3c0,2.4,1.9,4.3,4.3,4.3h0.2c2.4,0,4.3-1.9,4.3-4.3C2134.4,466.8,2132.5,464.9,2130.2,464.9L2130.2,464.9
					z M2126.6,438.1c-0.4,0-0.8,0.1-1.2,0.2c-2.3,0.7-3.6,3.1-2.9,5.3l0,0.2c0.6,1.9,2.3,3.1,4.1,3.1c0.4,0,0.8-0.1,1.2-0.2
					c2.3-0.7,3.6-3.1,2.9-5.3l0,0c0,0,0,0,0,0l0,0c0,0,0-0.1,0-0.1C2130.1,439.3,2128.4,438.1,2126.6,438.1L2126.6,438.1z
					 M2118.4,410.6c-0.4,0-0.8,0.1-1.2,0.2c-2.3,0.7-3.6,3.1-2.9,5.3l0,0.2c0.6,1.9,2.3,3.1,4.1,3.1c0.4,0,0.8-0.1,1.2-0.2
					c2.3-0.7,3.6-3.1,2.9-5.3l0-0.2C2122,411.8,2120.3,410.6,2118.4,410.6L2118.4,410.6z M2110.3,383.1c-0.4,0-0.8,0.1-1.2,0.2
					c-2.3,0.7-3.6,3.1-2.9,5.3l0,0.2c0.6,1.9,2.3,3.1,4.1,3.1c0.4,0,0.8-0.1,1.2-0.2c2.3-0.7,3.6-3.1,2.9-5.3l0-0.2
					C2113.8,384.3,2112.1,383.1,2110.3,383.1L2110.3,383.1z M2102.1,355.6c-0.4,0-0.8,0.1-1.2,0.2c-2.3,0.7-3.6,3.1-2.9,5.3l0,0.2
					c0.6,1.9,2.3,3.1,4.1,3.1c0.4,0,0.8-0.1,1.2-0.2c2.3-0.7,3.6-3.1,2.9-5.3l0-0.2C2105.6,356.8,2103.9,355.6,2102.1,355.6
					L2102.1,355.6z M2093.9,328.1c-0.4,0-0.8,0.1-1.2,0.2c-2.3,0.7-3.6,3.1-2.9,5.3l0,0.2c0.6,1.9,2.3,3.1,4.1,3.1
					c0.4,0,0.8-0.1,1.2-0.2c2.3-0.7,3.6-3,2.9-5.3l0-0.2C2097.5,329.3,2095.8,328.1,2093.9,328.1L2093.9,328.1z M2085.8,300.6
					c-0.4,0-0.8,0.1-1.2,0.2c-2.3,0.7-3.6,3.1-2.9,5.3l0,0.2c0.6,1.9,2.3,3.1,4.1,3.1c0.4,0,0.8-0.1,1.2-0.2
					c2.3-0.7,3.6-3.1,2.9-5.3l0-0.2C2089.3,301.8,2087.6,300.6,2085.8,300.6L2085.8,300.6z M2077.6,273.1c-0.4,0-0.8,0.1-1.2,0.2
					c-2.3,0.7-3.6,3.1-2.9,5.3l0,0.2c0.6,1.9,2.3,3.1,4.1,3.1c0.4,0,0.8-0.1,1.2-0.2c2.3-0.7,3.6-3.1,2.9-5.3l0-0.2
					C2081.2,274.3,2079.5,273.1,2077.6,273.1L2077.6,273.1z M2069.5,245.6c-0.4,0-0.8,0.1-1.2,0.2c-2.3,0.7-3.6,3.1-2.9,5.3l0,0.2
					c0.6,1.9,2.3,3.1,4.1,3.1c0.4,0,0.8-0.1,1.2-0.2c2.3-0.7,3.6-3.1,2.9-5.3l0-0.2C2073,246.8,2071.3,245.6,2069.5,245.6
					L2069.5,245.6z M2002.3,287.2c-0.4,0-0.8,0.1-1.2,0.2c-2.3,0.6-3.6,3-3,5.3l0,0.2c0.5,1.9,2.2,3.1,4.1,3.1
					c0.4,0,0.8-0.1,1.2-0.2c2.3-0.6,3.6-3,3-5.3l0-0.2C2005.9,288.4,2004.1,287.2,2002.3,287.2L2002.3,287.2z M2010,314.8
					c-0.4,0-0.8,0.1-1.2,0.2c-2.3,0.6-3.6,3-3,5.3c0,0,0,0,0,0.1l0,0.1c0.5,1.9,2.2,3.1,4.1,3.1c0.4,0,0.8-0.1,1.2-0.2
					c2.3-0.6,3.6-3,3-5.3l0-0.2C2013.6,316,2011.9,314.8,2010,314.8L2010,314.8z M2017.7,342.4c-0.4,0-0.8,0.1-1.2,0.2
					c-2.3,0.6-3.6,3-3,5.3l0,0.2c0.5,1.9,2.2,3.1,4.1,3.1c0.4,0,0.8-0.1,1.2-0.2c2.3-0.6,3.6-3,3-5.3l0-0.2
					C2021.3,343.7,2019.6,342.4,2017.7,342.4L2017.7,342.4z M2025.5,370.1c-0.4,0-0.8,0.1-1.2,0.2c-2.3,0.6-3.6,3-3,5.3l0,0.1
					c0,0,0,0.1,0,0.1c0.5,1.9,2.2,3.1,4.1,3.1c0.4,0,0.8-0.1,1.2-0.2c2.3-0.6,3.6-3,3-5.3l0-0.2
					C2029.1,371.3,2027.3,370.1,2025.5,370.1L2025.5,370.1z"/>
				<path d="M2065.5,227.2h-0.2c-2.4,0-4.3,1.9-4.3,4.3c0,2.4,1.9,4.3,4.3,4.3h0.2c2.4,0,4.3-1.9,4.3-4.3
					C2069.8,229.1,2067.8,227.2,2065.5,227.2L2065.5,227.2z"/>
				<path d="M1993.1,234.3c-1.9,0-3.6,1.2-4.1,3.1l0,0.2c-0.6,2.3,0.7,4.6,3,5.3c0.4,0.1,0.8,0.2,1.1,0.2c1.9,0,3.6-1.2,4.1-3.1
					l0-0.2c0.6-2.3-0.7-4.6-3-5.3C1993.8,234.4,1993.4,234.3,1993.1,234.3L1993.1,234.3z"/>
				<path d="M1985.8,262c-1.9,0-3.6,1.2-4.1,3.1l0,0.2c-0.6,2.3,0.7,4.6,3,5.3c0.4,0.1,0.8,0.2,1.1,0.2c1.9,0,3.6-1.2,4.1-3.1l0-0.2
					c0.6-2.3-0.7-4.6-3-5.3C1986.5,262,1986.1,262,1985.8,262L1985.8,262z"/>
				<path d="M2013.9,227.2h-0.2c-2.4,0-4.3,1.9-4.3,4.3c0,2.4,1.9,4.3,4.3,4.3h0.2c2.4,0,4.3-1.9,4.3-4.3
					C2018.1,229.1,2016.2,227.2,2013.9,227.2L2013.9,227.2z"/>
				<path d="M1977.6,289.6c-1.9,0-3.6,1.2-4.1,3.1l0,0.2c-0.6,2.3,0.7,4.6,3,5.3c0.4,0.1,0.8,0.2,1.1,0.2c1.9,0,3.6-1.2,4.1-3.1
					l0-0.2c0.6-2.3-0.7-4.6-3-5.3C1978.4,289.7,1978,289.6,1977.6,289.6L1977.6,289.6z"/>
				<path d="M1970.3,317.2c-1.9,0-3.6,1.2-4.1,3.1l0,0.2c-0.6,2.3,0.7,4.6,3,5.3c0.4,0.1,0.8,0.2,1.1,0.2c1.9,0,3.6-1.2,4.1-3.1
					l0-0.2c0.6-2.3-0.7-4.6-3-5.3C1971.1,317.3,1970.7,317.2,1970.3,317.2L1970.3,317.2z"/>
				<path d="M1963,344.9c-1.9,0-3.6,1.2-4.1,3.1l0,0.2c-0.6,2.3,0.7,4.6,3,5.3c0.4,0.1,0.8,0.2,1.1,0.2c1.9,0,3.6-1.2,4.1-3.1l0-0.2
					c0.6-2.3-0.7-4.6-3-5.3C1963.7,344.9,1963.4,344.9,1963,344.9L1963,344.9z"/>
				<path d="M1955.7,372.5c-1.9,0-3.6,1.2-4.1,3.1l0,0.2c-0.6,2.3,0.7,4.6,3,5.3c0.4,0.1,0.8,0.2,1.1,0.2c1.9,0,3.6-1.2,4.1-3.1
					l0-0.2c0.6-2.3-0.7-4.6-3-5.3C1956.4,372.6,1956,372.5,1955.7,372.5L1955.7,372.5z"/>
				<path d="M1948.3,400.2c-1.9,0-3.6,1.2-4.1,3.1l0,0.2c-0.6,2.3,0.7,4.6,3,5.3c0.4,0.1,0.8,0.2,1.1,0.2c1.9,0,3.6-1.2,4.1-3.1
					l0-0.2c0.6-2.3-0.7-4.6-3-5.3C1949.1,400.2,1948.7,400.2,1948.3,400.2L1948.3,400.2z"/>
				<path d="M1940.2,427.8c-1.9,0-3.6,1.2-4.1,3.1l0,0.2c-0.6,2.3,0.7,4.6,3,5.3c0.4,0.1,0.8,0.2,1.1,0.2c1.9,0,3.6-1.2,4.1-3.1
					l0-0.2c0.6-2.3-0.7-4.6-3-5.3C1941,427.9,1940.6,427.8,1940.2,427.8L1940.2,427.8z"/>
				<path d="M1978.4,388.8c-1.9,0-3.6,1.2-4.1,3.1l0,0.2c-0.6,2.3,0.7,4.6,3,5.3c0.4,0.1,0.8,0.2,1.1,0.2c1.9,0,3.6-1.2,4.1-3.1
					l0-0.2c0.6-2.3-0.7-4.6-3-5.3C1979.2,388.9,1978.8,388.8,1978.4,388.8L1978.4,388.8z"/>
				<path d="M2008.5,388.8c-1.9,0-3.6,1.2-4.1,3.1l0,0.2c-0.6,2.3,0.7,4.6,3,5.3c0.4,0.1,0.8,0.2,1.1,0.2c1.9,0,3.6-1.2,4.1-3.1
					l0-0.2c0.6-2.3-0.7-4.6-3-5.3C2009.3,388.9,2008.9,388.8,2008.5,388.8L2008.5,388.8z"/>
				<path d="M1932.1,449.8c-1.9,0-3.6,1.2-4.1,3.1l0,0.2c-0.6,2.3,0.7,4.6,3,5.3c0.4,0.1,0.8,0.2,1.1,0.2c1.9,0,3.6-1.2,4.1-3.1
					l0-0.2c0.6-2.3-0.7-4.6-3-5.3C1932.8,449.8,1932.5,449.8,1932.1,449.8L1932.1,449.8z"/>
				<path d="M1901.2,465.2c-1.9,0-3.6,1.2-4.1,3.1l0,0.2c-0.6,2.3,0.7,4.6,3,5.3c0.4,0.1,0.8,0.2,1.1,0.2c1.9,0,3.6-1.2,4.1-3.1
					l0-0.2c0.6-2.3-0.7-4.6-3-5.3C1901.9,465.3,1901.6,465.2,1901.2,465.2L1901.2,465.2z"/>
				<path d="M1951.6,465.2c-1.9,0-3.6,1.2-4.1,3.1l0,0.2c-0.6,2.3,0.7,4.6,3,5.3c0.4,0.1,0.8,0.2,1.1,0.2c1.9,0,3.6-1.2,4.1-3.1
					l0-0.2c0.6-2.3-0.7-4.6-3-5.3C1952.4,465.3,1952,465.2,1951.6,465.2L1951.6,465.2z"/>
				<path d="M1927.2,465.2c-1.9,0-3.6,1.2-4.1,3.1l0,0.2c-0.6,2.3,0.7,4.6,3,5.3c0.4,0.1,0.8,0.2,1.1,0.2c1.9,0,3.6-1.2,4.1-3.1
					l0-0.2c0.6-2.3-0.7-4.6-3-5.3C1928,465.3,1927.6,465.2,1927.2,465.2L1927.2,465.2z"/>
				<path d="M1977.6,465.2c-1.9,0-3.6,1.2-4.1,3.1l0,0.2c-0.6,2.3,0.7,4.6,3,5.3c0.4,0.1,0.8,0.2,1.1,0.2c1.9,0,3.6-1.2,4.1-3.1
					l0-0.2c0.6-2.3-0.7-4.6-3-5.3C1978.4,465.3,1978,465.2,1977.6,465.2L1977.6,465.2z"/>
				<path d="M2044.3,464.9h-0.2c-2.4,0-4.3,1.9-4.3,4.3c0,2.4,1.9,4.3,4.3,4.3h0.2c2.4,0,4.3-1.9,4.3-4.3
					C2048.6,466.8,2046.7,464.9,2044.3,464.9L2044.3,464.9z"/>
				<path d="M2024,464.9h-0.2c-2.4,0-4.3,1.9-4.3,4.3c0,2.4,1.9,4.3,4.3,4.3h0.2c2.4,0,4.3-1.9,4.3-4.3
					C2028.3,466.8,2026.4,464.9,2024,464.9L2024,464.9z"/>
				<path d="M2048.3,451.2c-0.4,0-0.8,0.1-1.2,0.2c-2.3,0.6-3.6,3-3,5.3l0,0.2c0.5,1.9,2.2,3.1,4.1,3.1c0.4,0,0.8-0.1,1.2-0.2
					c2.3-0.6,3.6-3,3-5.3l0-0.2C2051.9,452.4,2050.2,451.2,2048.3,451.2L2048.3,451.2z"/>
				<path d="M2154.6,464.9h-0.2c-2.4,0-4.3,1.9-4.3,4.3c0,2.4,1.9,4.3,4.3,4.3h0.2c2.4,0,4.3-1.9,4.3-4.3
					C2158.8,466.8,2156.9,464.9,2154.6,464.9L2154.6,464.9z"/>
			</g>
			<path d="M1604.4,468.2c-1.8,0-3.5,1.2-4.1,3c-0.7,2.3,0.5,4.7,2.8,5.4l0.2,0.1c0.4,0.1,0.9,0.2,1.3,0.2c1.8,0,3.5-1.2,4.1-3
				c0.7-2.3-0.5-4.7-2.8-5.4c0,0-0.1,0-0.1,0c0,0,0,0-0.1,0C1605.3,468.3,1604.8,468.2,1604.4,468.2L1604.4,468.2z"/>
			<path d="M1600.3,223.4c-1.8,0-3.5,1.2-4.1,3c-0.7,2.3,0.5,4.7,2.8,5.4l0.2,0.1c0.4,0.1,0.9,0.2,1.3,0.2c1.8,0,3.5-1.2,4.1-3
				c0.7-2.3-0.5-4.7-2.8-5.4c0,0-0.1,0-0.1,0c0,0,0,0-0.1,0C1601.2,223.5,1600.8,223.4,1600.3,223.4L1600.3,223.4z"/>
			<path d="M1217.2,228h-0.2c-2.4,0-4.3,1.9-4.3,4.3c0,2.4,1.9,4.3,4.3,4.3h0.2c2.4,0,4.3-1.9,4.3-4.3
				C1221.5,229.9,1219.5,228,1217.2,228L1217.2,228z"/>
			<path d="M1206.6,464.6h-0.2c-2.4,0-4.3,1.9-4.3,4.3c0,2.4,1.9,4.3,4.3,4.3h0.2c2.4,0,4.3-1.9,4.3-4.3
				C1210.9,466.5,1209,464.6,1206.6,464.6L1206.6,464.6z"/>
			<path d="M1249.7,396.3h-0.2c-2.4,0-4.3,1.9-4.3,4.3c0,2.4,1.9,4.3,4.3,4.3h0.2c2.4,0,4.3-1.9,4.3-4.3
				C1254,398.2,1252.1,396.3,1249.7,396.3L1249.7,396.3z"/>
			<path d="M1249.7,367.9h-0.2c-2.4,0-4.3,1.9-4.3,4.3c0,2.4,1.9,4.3,4.3,4.3h0.2c2.4,0,4.3-1.9,4.3-4.3
				C1254,369.8,1252.1,367.9,1249.7,367.9L1249.7,367.9z"/>
			<path d="M1249.7,281.2h-0.2c-2.4,0-4.3,1.9-4.3,4.3c0,2.4,1.9,4.3,4.3,4.3h0.2c2.4,0,4.3-1.9,4.3-4.3
				C1254,283.1,1252.1,281.2,1249.7,281.2L1249.7,281.2z"/>
			<path d="M1249.7,310.5h-0.2c-2.4,0-4.3,1.9-4.3,4.3c0,2.4,1.9,4.3,4.3,4.3h0.2c2.4,0,4.3-1.9,4.3-4.3
				C1254,312.4,1252.1,310.5,1249.7,310.5L1249.7,310.5z"/>
			<path d="M1249.7,339h-0.2c-2.4,0-4.3,1.9-4.3,4.3s1.9,4.3,4.3,4.3h0.2c2.4,0,4.3-1.9,4.3-4.3S1252.1,339,1249.7,339L1249.7,339z"
				/>
			<path d="M1249.7,425.6h-0.2c-2.4,0-4.3,1.9-4.3,4.3c0,2.4,1.9,4.3,4.3,4.3h0.2c2.4,0,4.3-1.9,4.3-4.3
				C1254,427.5,1252.1,425.6,1249.7,425.6L1249.7,425.6z"/>
			<path d="M1240.2,450c-1.2,0-2.3,0.5-3.2,1.4c0,0,0,0-0.1,0.1c0,0,0,0,0,0c0,0,0,0-0.1,0.1c-1.6,1.7-1.5,4.4,0.3,6.1
				c0.8,0.8,1.9,1.1,2.9,1.1c1.2,0,2.3-0.5,3.1-1.4l0.1-0.1c1.6-1.7,1.5-4.4-0.3-6C1242.2,450.4,1241.2,450,1240.2,450L1240.2,450z"
				/>
			<path d="M1262.2,449.3c-1,0-2,0.3-2.8,1.1c-1.8,1.6-2,4.3-0.4,6l0.1,0.1c0.8,1,2,1.5,3.2,1.5c1,0,2-0.4,2.8-1.1
				c1.8-1.6,2-4.3,0.4-6c0,0-0.1-0.1-0.1-0.1C1264.6,449.8,1263.4,449.3,1262.2,449.3L1262.2,449.3z"/>
			<path d="M1292.3,465.6c-1,0-2,0.3-2.8,1.1c-1.8,1.6-2,4.3-0.4,6l0.1,0.1c0.8,1,2,1.5,3.2,1.5c1,0,2-0.4,2.8-1.1
				c1.8-1.6,2-4.3,0.4-6c0,0-0.1-0.1-0.1-0.1C1294.7,466.1,1293.5,465.6,1292.3,465.6L1292.3,465.6z"/>
			<path d="M1271.6,465.6c-1,0-2,0.3-2.8,1.1c-1.8,1.6-2,4.3-0.4,6l0.1,0.1c0.8,1,2,1.5,3.2,1.5c1,0,2-0.4,2.8-1.1
				c1.8-1.6,2-4.3,0.4-6c0,0-0.1-0.1-0.1-0.1C1273.9,466.1,1272.8,465.6,1271.6,465.6L1271.6,465.6z"/>
			<path d="M1248.4,464.9h-0.2c-2.4,0-4.3,1.9-4.3,4.3c0,2.4,1.9,4.3,4.3,4.3h0.2c2.4,0,4.3-1.9,4.3-4.3
				C1252.7,466.8,1250.8,464.9,1248.4,464.9L1248.4,464.9z"/>
			<path d="M1386.6,228.3h-0.2c-2.4,0-4.3,1.9-4.3,4.3c0,2.4,1.9,4.3,4.3,4.3h0.2c2.4,0,4.3-1.9,4.3-4.3
				C1390.9,230.2,1388.9,228.3,1386.6,228.3L1386.6,228.3z"/>
			<path d="M1411.8,243h-0.2c-2.4,0-4.3,1.9-4.3,4.3c0,2.4,1.9,4.3,4.3,4.3h0.2c2.4,0,4.3-1.9,4.3-4.3
				C1416.1,244.9,1414.1,243,1411.8,243L1411.8,243z"/>
			<path d="M1441.9,243h-0.2c-2.4,0-4.3,1.9-4.3,4.3c0,2.4,1.9,4.3,4.3,4.3h0.2c2.4,0,4.3-1.9,4.3-4.3
				C1446.2,244.9,1444.2,243,1441.9,243L1441.9,243z"/>
			<path d="M1467.1,228.3h-0.2c-2.4,0-4.3,1.9-4.3,4.3c0,2.4,1.9,4.3,4.3,4.3h0.2c2.4,0,4.3-1.9,4.3-4.3
				C1471.4,230.2,1469.4,228.3,1467.1,228.3L1467.1,228.3z"/>
			<path d="M1412.6,228.3h-0.2c-2.4,0-4.3,1.9-4.3,4.3c0,2.4,1.9,4.3,4.3,4.3h0.2c2.4,0,4.3-1.9,4.3-4.3
				C1416.9,230.2,1415,228.3,1412.6,228.3L1412.6,228.3z"/>
			<path d="M1440.2,228.3h-0.2c-2.4,0-4.3,1.9-4.3,4.3c0,2.4,1.9,4.3,4.3,4.3h0.2c2.4,0,4.3-1.9,4.3-4.3
				C1444.5,230.2,1442.6,228.3,1440.2,228.3L1440.2,228.3z"/>
			<path d="M1424.8,262.5h-0.2c-2.4,0-4.3,1.9-4.3,4.3c0,2.4,1.9,4.3,4.3,4.3h0.2c2.4,0,4.3-1.9,4.3-4.3
				C1429.1,264.4,1427.2,262.5,1424.8,262.5L1424.8,262.5z"/>
			<path d="M1424.8,286.1h-0.2c-2.4,0-4.3,1.9-4.3,4.3c0,2.4,1.9,4.3,4.3,4.3h0.2c2.4,0,4.3-1.9,4.3-4.3
				C1429.1,288,1427.2,286.1,1424.8,286.1L1424.8,286.1z"/>
			<path d="M1424.8,315.3h-0.2c-2.4,0-4.3,1.9-4.3,4.3c0,2.4,1.9,4.3,4.3,4.3h0.2c2.4,0,4.3-1.9,4.3-4.3
				C1429.1,317.3,1427.2,315.3,1424.8,315.3L1424.8,315.3z"/>
			<path d="M1424.8,344.6h-0.2c-2.4,0-4.3,1.9-4.3,4.3c0,2.4,1.9,4.3,4.3,4.3h0.2c2.4,0,4.3-1.9,4.3-4.3
				C1429.1,346.5,1427.2,344.6,1424.8,344.6L1424.8,344.6z"/>
			<path d="M1403.4,469.1h-0.2c-2.4,0-4.3,1.9-4.3,4.3c0,2.4,1.9,4.3,4.3,4.3h0.2c2.4,0,4.3-1.9,4.3-4.3
				C1407.6,471,1405.7,469.1,1403.4,469.1L1403.4,469.1z"/>
			<path d="M1382.8,469.1h-0.2c-2.4,0-4.3,1.9-4.3,4.3c0,2.4,1.9,4.3,4.3,4.3h0.2c2.4,0,4.3-1.9,4.3-4.3
				C1387.1,471,1385.2,469.1,1382.8,469.1L1382.8,469.1z"/>
			<path d="M1424.9,447c-2.4,0-4.3,1.9-4.3,4.3v0.2c0,2.4,1.9,4.3,4.3,4.3c2.4,0,4.3-1.9,4.3-4.3v-0.2
				C1429.2,448.9,1427.3,447,1424.9,447L1424.9,447z"/>
			<path d="M1424.9,468.9c-2.4,0-4.3,1.9-4.3,4.3v0.2c0,2.4,1.9,4.3,4.3,4.3c2.4,0,4.3-1.9,4.3-4.3v-0.2
				C1429.2,470.8,1427.3,468.9,1424.9,468.9L1424.9,468.9z"/>
			<path d="M1424.9,421.5c-2.4,0-4.3,1.9-4.3,4.3v0.2c0,2.4,1.9,4.3,4.3,4.3c2.4,0,4.3-1.9,4.3-4.3v-0.2
				C1429.2,423.4,1427.3,421.5,1424.9,421.5L1424.9,421.5z"/>
			<path d="M1750.9,228.3h-0.2c-2.4,0-4.3,1.9-4.3,4.3c0,2.4,1.9,4.3,4.3,4.3h0.2c2.4,0,4.3-1.9,4.3-4.3
				C1755.2,230.2,1753.2,228.3,1750.9,228.3L1750.9,228.3z"/>
			<path d="M1878.6,228.3h-0.2c-2.4,0-4.3,1.9-4.3,4.3c0,2.4,1.9,4.3,4.3,4.3h0.2c2.4,0,4.3-1.9,4.3-4.3
				C1882.9,230.2,1881,228.3,1878.6,228.3L1878.6,228.3z"/>
			<path d="M1777.5,244.1c-2.4,0-4.3,1.9-4.3,4.3v0.2c0,2.4,1.9,4.3,4.3,4.3c2.4,0,4.3-1.9,4.3-4.3v-0.2
				C1781.8,246,1779.9,244.1,1777.5,244.1L1777.5,244.1z"/>
			<path d="M1785.8,228.2h-0.2c-2.4,0-4.3,1.9-4.3,4.3c0,2.4,1.9,4.3,4.3,4.3h0.2c2.4,0,4.3-1.9,4.3-4.3
				C1790,230.1,1788.1,228.2,1785.8,228.2L1785.8,228.2z"/>
			<path d="M1818.5,228.2h-0.2c-2.4,0-4.3,1.9-4.3,4.3c0,2.4,1.9,4.3,4.3,4.3h0.2c2.4,0,4.3-1.9,4.3-4.3
				C1822.8,230.1,1820.9,228.2,1818.5,228.2L1818.5,228.2z"/>
			<path d="M1847.1,228.3h-0.2c-2.4,0-4.3,1.9-4.3,4.3c0,2.4,1.9,4.3,4.3,4.3h0.2c2.4,0,4.3-1.9,4.3-4.3
				C1851.4,230.2,1849.5,228.3,1847.1,228.3L1847.1,228.3z"/>
			<path d="M1776.2,464.9h-0.2c-2.4,0-4.3,1.9-4.3,4.3c0,2.4,1.9,4.3,4.3,4.3h0.2c2.4,0,4.3-1.9,4.3-4.3
				C1780.5,466.8,1778.6,464.9,1776.2,464.9L1776.2,464.9z"/>
			<path d="M1751,464.9h-0.2c-2.4,0-4.3,1.9-4.3,4.3c0,2.4,1.9,4.3,4.3,4.3h0.2c2.4,0,4.3-1.9,4.3-4.3
				C1755.3,466.8,1753.4,464.9,1751,464.9L1751,464.9z"/>
			<path d="M1848.6,446.1c-2.4,0-4.3,1.9-4.3,4.3v0.2c0,2.4,1.9,4.3,4.3,4.3c2.4,0,4.3-1.9,4.3-4.3v-0.2
				C1852.9,448,1850.9,446.1,1848.6,446.1L1848.6,446.1z"/>
			<path d="M1875.2,464.9h-0.2c-2.4,0-4.3,1.9-4.3,4.3c0,2.4,1.9,4.3,4.3,4.3h0.2c2.4,0,4.3-1.9,4.3-4.3
				C1879.5,466.8,1877.6,464.9,1875.2,464.9L1875.2,464.9z"/>
			<path d="M1840.8,464.9h-0.2c-2.4,0-4.3,1.9-4.3,4.3c0,2.4,1.9,4.3,4.3,4.3h0.2c2.4,0,4.3-1.9,4.3-4.3
				C1845.1,466.8,1843.2,464.9,1840.8,464.9L1840.8,464.9z"/>
			<path d="M1809.7,464.9h-0.2c-2.4,0-4.3,1.9-4.3,4.3c0,2.4,1.9,4.3,4.3,4.3h0.2c2.4,0,4.3-1.9,4.3-4.3
				C1813.9,466.8,1812,464.9,1809.7,464.9L1809.7,464.9z"/>
		</g>
		<path d="M282.4,371.2c-2.4,0-4.3,1.9-4.3,4.3v0.2c0,2.4,1.9,4.3,4.3,4.3s4.3-1.9,4.3-4.3v-0.2
			C286.7,373.1,284.8,371.2,282.4,371.2L282.4,371.2z"/>
		<path d="M282.4,407.2c-2.4,0-4.3,1.9-4.3,4.3v0.2c0,2.4,1.9,4.3,4.3,4.3s4.3-1.9,4.3-4.3v-0.2
			C286.7,409.1,284.8,407.2,282.4,407.2L282.4,407.2z"/>
		<path d="M282.4,228.2h-0.2c-2.4,0-4.3,1.9-4.3,4.3c0,2.4,1.9,4.3,4.3,4.3h0.2c2.4,0,4.3-1.9,4.3-4.3
			C286.7,230.1,284.7,228.2,282.4,228.2L282.4,228.2z"/>
		<path d="M625.8,464.9h-0.2c-2.4,0-4.3,1.9-4.3,4.3c0,2.4,1.9,4.3,4.3,4.3h0.2c2.4,0,4.3-1.9,4.3-4.3
			C630.1,466.8,628.1,464.9,625.8,464.9L625.8,464.9z"/>
		<path d="M457.8,388.8c-1.9,0-3.6,1.2-4.1,3.1l0,0.2c-0.6,2.3,0.7,4.6,3,5.3c0.4,0.1,0.8,0.2,1.1,0.2c1.9,0,3.6-1.2,4.1-3.1l0-0.2
			c0.6-2.3-0.7-4.6-3-5.3C458.5,388.9,458.2,388.8,457.8,388.8L457.8,388.8z"/>
	</g>
</g>
</svg>
