<?xml version="1.0" encoding="utf-8"?>
<!-- Generator: Adobe Illustrator 22.0.1, SVG Export Plug-In . SVG Version: 6.00 Build 0)  -->
<svg version="1.1" id="Laag_1" xmlns="http://www.w3.org/2000/svg" xmlns:xlink="http://www.w3.org/1999/xlink" x="0px" y="0px"
	 viewBox="0 0 14 16.4" style="enable-background:new 0 0 14 16.4;" xml:space="preserve">
<style type="text/css">
	.st0{fill:#003082;}
</style>
<g>
	<path class="st0" d="M1.3,7.7h11.4c0.4,0,0.8-0.3,1-0.7c0.2-0.4,0.1-0.9-0.3-1.2L7.7,0.4c-0.4-0.4-1.1-0.4-1.5,0L0.6,5.9
		C0.3,6.2,0.2,6.7,0.3,7.1C0.5,7.5,0.9,7.7,1.3,7.7z M3.9,5.6L7,2.7l3.1,2.9H3.9z"/>
	<path class="st0" d="M12.7,8.6H1.3c-0.4,0-0.8,0.3-1,0.7c-0.2,0.4-0.1,0.9,0.3,1.2l5.7,5.5c0.2,0.2,0.5,0.3,0.7,0.3
		c0.3,0,0.5-0.1,0.7-0.3l5.7-5.5c0.3-0.3,0.4-0.8,0.2-1.2C13.5,8.9,13.1,8.6,12.7,8.6z M10.1,10.8L7,13.7l-3.1-2.9H10.1z"/>
</g>
</svg>
