<?xml version="1.0" encoding="utf-8"?>
<!-- Generator: Adobe Illustrator 22.0.1, SVG Export Plug-In . SVG Version: 6.00 Build 0)  -->
<svg version="1.1" id="Laag_1" xmlns="http://www.w3.org/2000/svg" xmlns:xlink="http://www.w3.org/1999/xlink" x="0px" y="0px"
	 viewBox="0 0 1109.7 838.2" style="enable-background:new 0 0 1109.7 838.2;" xml:space="preserve">
<style type="text/css">
	.st0{clip-path:url(#SVGID_2_);fill:#FFFFFF;}
	.st1{clip-path:url(#SVGID_2_);}
	.st2{fill:#FF0000;}
</style>
<g>
	<defs>
		<rect id="SVGID_1_" x="-1.1" y="0.1" width="1112" height="838"/>
	</defs>
	<clipPath id="SVGID_2_">
		<use xlink:href="#SVGID_1_"  style="overflow:visible;"/>
	</clipPath>
	<rect x="-1.1" y="0.1" class="st0" width="1112" height="838"/>
	<g class="st1">
		<polygon class="st2" points="-7.5,500.7 -7.5,550.4 -7.5,582.7 74.2,582.7 74.2,582.4 102,582.4 102,724.6 102,1031.4 
			74.2,1031.4 74.2,609.5 -7.5,609.5 -7.5,1113.1 102,1113.1 183.7,1113.1 183.7,724.6 183.7,500.7 74.2,500.7 74.2,69.6 102,69.6 
			102,475.1 183.7,475.1 183.7,-12.1 -7.5,-12.1 		"/>
		<polygon class="st2" points="334.8,501.6 308.9,501.6 308.9,-11.9 227.3,-11.9 227.3,1113.1 308.9,1113.1 308.9,583.3 
			334.8,583.3 334.8,1113.1 416.5,1113.1 416.5,-11.9 334.8,-11.9 		"/>
		<polygon class="st2" points="571.6,1031.7 538.2,1031.7 538.2,583.1 650.9,583.1 650.9,501.6 538.2,501.6 538.2,69.6 571.6,69.6 
			571.6,473.1 653,473.1 653,65 653,65 653,-11.9 492.7,-11.9 492.7,-11.9 456.8,-11.9 456.8,1113.1 492.7,1113.1 538.2,1113.1 
			653,1113.1 653,1050 653,1050 653,608.8 571.6,608.8 		"/>
		<polygon class="st2" points="806.3,1031.7 772.9,1031.7 772.9,583.1 885.6,583.1 885.6,501.6 772.9,501.6 772.9,69.6 806.3,69.6 
			806.3,473.1 887.7,473.1 887.7,65 887.7,65 887.7,-11.9 727.4,-11.9 727.4,-11.9 691.5,-11.9 691.5,1113.1 727.4,1113.1 
			772.9,1113.1 887.7,1113.1 887.7,1050 887.7,1050 887.7,608.8 806.3,608.8 		"/>
		<polygon class="st2" points="1117.2,65 1117.2,-11.9 957,-11.9 921,-11.9 921,1113.1 1002.5,1113.1 1002.5,69.6 1035.8,69.6 
			1035.8,1113.1 1117.2,1113.1 1117.2,65 		"/>
	</g>
</g>
</svg>
