<?xml version="1.0" encoding="utf-8"?>
<!-- Generator: Adobe Illustrator 22.0.1, SVG Export Plug-In . SVG Version: 6.00 Build 0)  -->
<svg version="1.1" id="Laag_1" xmlns="http://www.w3.org/2000/svg" xmlns:xlink="http://www.w3.org/1999/xlink" x="0px" y="0px"
	 viewBox="0 0 535.9 536.1" style="enable-background:new 0 0 535.9 536.1;" xml:space="preserve">
<style type="text/css">
	.st0{fill:#FF0000;}
</style>
<g>
	<polygon class="st0" points="244.2,536.5 267.9,536.5 283.3,536.5 283.3,497.5 283.2,497.5 283.2,484.2 351,484.2 497.5,484.2 
		497.5,497.5 296.1,497.5 296.1,536.5 536.5,536.5 536.5,484.2 536.5,445.2 351,445.2 244.2,445.2 244.2,497.5 38.4,497.5 
		38.4,484.2 232,484.2 232,445.2 -0.6,445.2 -0.6,536.5 	"/>
	<polygon class="st0" points="244.6,373.1 244.6,385.4 -0.5,385.4 -0.5,424.4 536.5,424.4 536.5,385.4 283.6,385.4 283.6,373.1 
		536.5,373.1 536.5,334.1 -0.5,334.1 -0.5,373.1 	"/>
	<polygon class="st0" points="497.6,260.1 497.6,276 283.5,276 283.5,222.2 244.6,222.2 244.6,276 38.4,276 38.4,260.1 231,260.1 
		231,221.2 36.2,221.2 36.2,221.2 -0.5,221.2 -0.5,297.7 -0.5,297.7 -0.5,314.9 536.5,314.9 536.5,297.7 536.5,276 536.5,221.2 
		506.4,221.2 506.4,221.2 295.8,221.2 295.8,260.1 	"/>
	<polygon class="st0" points="497.6,148.1 497.6,164 283.5,164 283.5,110.2 244.6,110.2 244.6,164 38.4,164 38.4,148.1 231,148.1 
		231,109.2 36.2,109.2 36.2,109.2 -0.5,109.2 -0.5,185.7 -0.5,185.7 -0.5,202.8 536.5,202.8 536.5,185.7 536.5,164 536.5,109.2 
		506.4,109.2 506.4,109.2 295.8,109.2 295.8,148.1 	"/>
	<polygon class="st0" points="36.2,-0.4 -0.5,-0.4 -0.5,76.1 -0.5,93.3 536.5,93.3 536.5,54.4 38.4,54.4 38.4,38.5 536.5,38.5 
		536.5,-0.4 36.2,-0.4 	"/>
</g>
</svg>
