<?xml version="1.0" encoding="utf-8"?>
<!-- Generator: Adobe Illustrator 22.0.1, SVG Export Plug-In . SVG Version: 6.00 Build 0)  -->
<svg version="1.1" id="Laag_1" xmlns="http://www.w3.org/2000/svg" xmlns:xlink="http://www.w3.org/1999/xlink" x="0px" y="0px"
	 viewBox="0 0 105 27.8" style="enable-background:new 0 0 105 27.8;" xml:space="preserve">
<style type="text/css">
	.st0{fill:#FFC917;}
	.st1{fill:#FFD56E;}
	.st2{fill:#4A585C;}
	.st3{fill:#003082;}
</style>
<g>
	<polygon class="st0" points="103.1,14.3 102.2,12.2 98.5,5.2 95.9,2.3 94.1,0.8 21.8,0.9 21.8,0.9 21.8,0.9 0,0.8 0,25.2 
		21.8,25.4 21.8,25.4 23.8,25.4 25.9,25.4 25.9,25.4 89.9,24.9 92,22.8 98.6,23.1 101.9,21 103.2,17.6 	"/>
</g>
<g>
	<g>
		<path class="st1" d="M97.6,4.3l-9.3-0.5L87.6,4H21.8h-2.4H0v7.5h19.9h1.9h67l0,0H93c0,0,7.5,0.2,10.1,5.5l0.8-2.5L97.6,4.3z"/>
	</g>
	<g>
		<path class="st2" d="M99.4,6.5l-3.5-5h-5.7l-0.3-0.1l-0.1,0.1h-1.3H21.8l0,0v0H0V4h19.4h2.4h38.3c0.3,0,0.6,0.1,0.9,0.2l2.9,1.5
			h24.8v0v0h3.3c6.2,0,10.4,9.4,10.4,9.4l0.4-3L99.4,6.5z"/>
	</g>
</g>
<g>
	<path class="st3" d="M104.9,15.7L100.4,6c0-0.1-0.1-0.2-0.2-0.3l-4.8-5.3C95.2,0.1,94.9,0,94.6,0h-5.4h-0.6H21.8h-1.2H0v2.3h19.8h2
		h67.4v0h4.9l4.3,4.8l4.2,9.1l-2.6,5.8H21.8h-1.7H0v4.5c0.1,0.2,0.3,0.3,0.4,0.5c0.1,0.1,0.1,0.1,0.2,0.1c0.2,0.1,0.3,0.2,0.5,0.3
		c0.1,0,0.2,0.1,0.2,0.1c0.2,0.1,0.4,0.2,0.6,0.2c0.1,0,0.2,0.1,0.2,0.1c0.1,0,0.2,0,0.3,0h1.2c0.1,0,0.2,0,0.2,0
		c0.1,0,0.2,0,0.3-0.1c0.1,0,0.2,0,0.2-0.1v0C5,27.3,5.6,26.8,6,26.2c0.1,0.1,0.2,0.2,0.3,0.3c0.1,0.1,0.1,0.2,0.2,0.3
		c0.1,0.1,0.2,0.2,0.3,0.3c0.1,0.1,0.2,0.2,0.3,0.2c0.1,0.1,0.2,0.1,0.3,0.2c0.1,0.1,0.3,0.1,0.4,0.2c0.1,0,0.2,0.1,0.3,0.1
		c0.1,0,0.2,0,0.2,0h1.2c0.1,0,0.1,0,0.2,0c0.1,0,0.2-0.1,0.3-0.1c0.1,0,0.1,0,0.2-0.1v0c0.7-0.3,1.3-0.7,1.8-1.4
		c0.2,0.2,0.3,0.4,0.5,0.6c0.1,0.1,0.1,0.1,0.2,0.1c0.2,0.1,0.3,0.2,0.5,0.3c0.1,0,0.2,0.1,0.2,0.1c0.2,0.1,0.4,0.2,0.6,0.2
		c0.1,0,0.2,0.1,0.2,0.1c0.1,0,0.2,0,0.3,0h1.2c0.1,0,0.2,0,0.2,0c0.1,0,0.2,0,0.3-0.1c0.1,0,0.2,0,0.2-0.1v0
		c0.7-0.3,1.3-0.7,1.7-1.3c0.1,0.1,0.2,0.2,0.3,0.3c0.1,0.1,0.1,0.2,0.2,0.3c0.1,0.1,0.2,0.2,0.3,0.3c0.1,0.1,0.2,0.2,0.3,0.2
		c0.1,0.1,0.2,0.1,0.3,0.2c0.1,0.1,0.3,0.1,0.4,0.2c0.1,0,0.2,0.1,0.3,0.1c0.1,0,0.2,0,0.2,0h0.9v0l0,0h0.9c0.1,0,0.2,0,0.2,0
		c0.1,0,0.2-0.1,0.3-0.1c0.1,0,0.3-0.1,0.4-0.2c0.1-0.1,0.2-0.1,0.3-0.2c0.1-0.1,0.2-0.1,0.3-0.2c0.1-0.1,0.2-0.2,0.3-0.3
		c0.1-0.1,0.1-0.2,0.2-0.3c0.1-0.1,0.2-0.2,0.3-0.3c0.4,0.6,1,1.1,1.7,1.3v0c0.1,0,0.2,0,0.2,0.1c0.1,0,0.2,0.1,0.3,0.1
		c0.1,0,0.2,0,0.2,0h1.2c0.1,0,0.2,0,0.3,0c0.1,0,0.2,0,0.2-0.1c0.2-0.1,0.4-0.1,0.6-0.2c0.1,0,0.2-0.1,0.2-0.1
		c0.2-0.1,0.3-0.2,0.5-0.3c0.1,0,0.1-0.1,0.2-0.1c0.2-0.2,0.4-0.4,0.5-0.6c0.4,0.6,1,1.1,1.8,1.4v0c0.1,0,0.1,0,0.2,0.1
		c0.1,0,0.2,0.1,0.3,0.1c0.1,0,0.1,0,0.2,0h1.2c0.1,0,0.2,0,0.2,0c0.1,0,0.2-0.1,0.3-0.1c0.1,0,0.3-0.1,0.4-0.2
		c0.1-0.1,0.2-0.1,0.3-0.2c0.1-0.1,0.2-0.1,0.3-0.2c0.1-0.1,0.2-0.2,0.3-0.3c0.1-0.1,0.1-0.2,0.2-0.3c0.1-0.1,0.2-0.2,0.3-0.3
		c0.4,0.6,1,1.1,1.7,1.3v0c0.1,0,0.2,0,0.2,0.1c0.1,0,0.2,0.1,0.3,0.1c0.1,0,0.2,0,0.2,0h1.2c0.1,0,0.2,0,0.3,0c0.1,0,0.2,0,0.2-0.1
		c0.2-0.1,0.4-0.1,0.6-0.2c0.1,0,0.2-0.1,0.2-0.1c0.2-0.1,0.3-0.2,0.5-0.3c0.1,0,0.1-0.1,0.2-0.1c0.2-0.2,0.4-0.4,0.5-0.6
		c0.4,0.6,1,1.1,1.8,1.4v0c0.1,0,0.1,0,0.2,0.1c0.1,0,0.2,0.1,0.3,0.1c0.1,0,0.1,0,0.2,0h1.2c0.1,0,0.2,0,0.2,0
		c0.1,0,0.2-0.1,0.3-0.1c0.1,0,0.3-0.1,0.4-0.2c0.1-0.1,0.2-0.1,0.4-0.2c0.1-0.1,0.2-0.1,0.3-0.2c0.1-0.1,0.2-0.2,0.3-0.3
		c0.1-0.1,0.1-0.1,0.2-0.2c0.1-0.1,0.2-0.2,0.3-0.3c0.4,0.6,1,1.1,1.7,1.3v0c0.1,0,0.2,0,0.2,0.1c0.1,0,0.2,0.1,0.3,0.1
		c0.1,0,0.2,0,0.2,0h1.2c0.1,0,0.2,0,0.3,0c0.1,0,0.2,0,0.2-0.1c0.2-0.1,0.4-0.1,0.6-0.2c0.1,0,0.2-0.1,0.2-0.1
		c0.2-0.1,0.3-0.2,0.5-0.3c0.1,0,0.1-0.1,0.2-0.1c0.2-0.2,0.4-0.4,0.5-0.6c0.4,0.6,1,1.1,1.8,1.4v0c0.1,0,0.1,0,0.2,0.1
		c0.1,0,0.2,0.1,0.3,0.1c0.1,0,0.1,0,0.2,0h1.2c0.1,0,0.2,0,0.2,0c0.1,0,0.2-0.1,0.3-0.1c0.1,0,0.3-0.1,0.4-0.2
		c0.1-0.1,0.2-0.1,0.3-0.2c0.1-0.1,0.2-0.1,0.3-0.2c0.1-0.1,0.2-0.2,0.3-0.3c0.1-0.1,0.1-0.2,0.2-0.3c0.1-0.1,0.2-0.2,0.3-0.3
		c0.4,0.6,1,1.1,1.7,1.3v0c0.1,0,0.2,0,0.2,0.1c0.1,0,0.2,0.1,0.3,0.1c0.1,0,0.2,0,0.2,0h1.2c0.1,0,0.2,0,0.3,0c0.1,0,0.2,0,0.2-0.1
		c0.2-0.1,0.4-0.1,0.6-0.2c0.1,0,0.2-0.1,0.2-0.1c0.2-0.1,0.3-0.2,0.5-0.3c0.1,0,0.1-0.1,0.2-0.1c0.2-0.2,0.4-0.4,0.5-0.6
		c0.4,0.6,1,1.1,1.8,1.4v0c0.1,0,0.1,0,0.2,0.1c0.1,0,0.2,0.1,0.3,0.1c0.1,0,0.1,0,0.2,0H72c0.1,0,0.2,0,0.2,0
		c0.1,0,0.2-0.1,0.3-0.1c0.2,0,0.3-0.1,0.4-0.2c0.1-0.1,0.2-0.1,0.3-0.2c0.1-0.1,0.2-0.1,0.3-0.2c0.1-0.1,0.2-0.2,0.3-0.3
		c0.1-0.1,0.1-0.2,0.2-0.3c0.1-0.1,0.2-0.2,0.3-0.3c0.4,0.6,1,1.1,1.7,1.3v0c0.1,0,0.2,0,0.2,0.1c0.1,0,0.2,0.1,0.3,0.1
		c0.1,0,0.2,0,0.2,0h1.2c0.1,0,0.2,0,0.3,0c0.1,0,0.2,0,0.2-0.1c0.2-0.1,0.4-0.1,0.6-0.2c0.1,0,0.2-0.1,0.2-0.1
		c0.2-0.1,0.3-0.2,0.5-0.3c0.1,0,0.1-0.1,0.2-0.1c0.2-0.2,0.4-0.4,0.5-0.6c0.4,0.6,1,1.1,1.8,1.4v0c0.1,0,0.1,0,0.2,0.1
		c0.1,0,0.2,0.1,0.3,0.1c0.1,0,0.1,0,0.2,0h1.2c0.1,0,0.2,0,0.2,0c0.1,0,0.2-0.1,0.3-0.1c0.1,0,0.3-0.1,0.4-0.2
		c0.1-0.1,0.2-0.1,0.3-0.2c0.1-0.1,0.2-0.1,0.3-0.2c0.1-0.1,0.2-0.2,0.3-0.3c0.1-0.1,0.1-0.2,0.2-0.3c0.1-0.1,0.2-0.2,0.3-0.3
		c0.4,0.6,1,1.1,1.7,1.3v0c0.1,0,0.2,0,0.2,0.1c0.1,0,0.2,0.1,0.3,0.1c0.1,0,0.2,0,0.2,0h1.2c0.1,0,0.2,0,0.3,0c0.1,0,0.2,0,0.2-0.1
		c0.2-0.1,0.4-0.1,0.6-0.2c0.1,0,0.2-0.1,0.2-0.1c0.2-0.1,0.3-0.2,0.5-0.3c0.1,0,0.1-0.1,0.2-0.1c0.2-0.2,0.4-0.4,0.5-0.6
		c0.6,0.8,1.5,1.4,2.5,1.6h1.3c1.7-0.3,3-1.8,3-3.6h1c0.4,0,0.8-0.3,1-0.7l1-2.1h1c0.6,0,1.1-0.5,1.1-1.1c0-0.6-0.5-1.1-1.1-1.1
		l1.1-2.6C105.1,16.3,105.1,16,104.9,15.7z"/>
</g>
<g>
	<path class="st3" d="M45.2,10h-1.9v5.7h-1.1V10h-1.9V9.1h4.9V10z"/>
	<path class="st3" d="M47.2,15.8c-0.7,0-1.3-0.2-1.7-0.7s-0.7-1-0.7-1.7c0-0.8,0.2-1.4,0.7-1.9c0.5-0.4,1.1-0.7,1.8-0.7
		c0.7,0,1.3,0.2,1.7,0.6s0.6,1,0.6,1.8c0,0.8-0.2,1.4-0.7,1.8C48.5,15.6,47.9,15.8,47.2,15.8z M47.3,11.7c-0.4,0-0.7,0.1-1,0.4
		c-0.2,0.3-0.4,0.7-0.4,1.2c0,0.5,0.1,0.9,0.4,1.2c0.2,0.3,0.6,0.4,1,0.4c0.4,0,0.7-0.1,1-0.4c0.2-0.3,0.3-0.7,0.3-1.2
		c0-0.5-0.1-0.9-0.3-1.2C48,11.9,47.7,11.7,47.3,11.7z"/>
	<path class="st3" d="M54.7,13.6h-3.2c0,0.4,0.1,0.8,0.4,1c0.3,0.2,0.6,0.4,1.1,0.4c0.5,0,1-0.2,1.4-0.5v0.9c-0.4,0.3-1,0.4-1.7,0.4
		c-0.7,0-1.2-0.2-1.6-0.6c-0.4-0.4-0.6-1-0.6-1.8c0-0.7,0.2-1.3,0.7-1.8c0.4-0.5,1-0.7,1.6-0.7c0.6,0,1.1,0.2,1.5,0.6
		c0.4,0.4,0.5,1,0.5,1.7V13.6z M53.7,12.9c0-0.4-0.1-0.7-0.3-0.9c-0.2-0.2-0.4-0.3-0.7-0.3c-0.3,0-0.6,0.1-0.8,0.3
		c-0.2,0.2-0.3,0.5-0.4,0.9H53.7z"/>
	<path class="st3" d="M60,15.3c0,1.7-0.9,2.6-2.6,2.6c-0.6,0-1.1-0.1-1.6-0.3v-1c0.5,0.3,1,0.4,1.5,0.4c1.1,0,1.7-0.5,1.7-1.6v-0.5
		h0c-0.4,0.6-0.9,0.9-1.6,0.9c-0.6,0-1-0.2-1.4-0.6c-0.4-0.4-0.5-1-0.5-1.7c0-0.8,0.2-1.4,0.6-1.9c0.4-0.5,0.9-0.7,1.6-0.7
		c0.6,0,1.1,0.3,1.4,0.8h0V11H60V15.3z M59,13.5v-0.6c0-0.3-0.1-0.6-0.3-0.8c-0.2-0.2-0.5-0.4-0.8-0.4c-0.4,0-0.7,0.1-0.9,0.4
		c-0.2,0.3-0.3,0.7-0.3,1.3c0,0.5,0.1,0.8,0.3,1.1c0.2,0.3,0.5,0.4,0.9,0.4c0.4,0,0.7-0.1,0.9-0.4C58.8,14.3,59,14,59,13.5z"/>
	<path class="st3" d="M65.4,13.6h-3.2c0,0.4,0.1,0.8,0.4,1c0.3,0.2,0.6,0.4,1.1,0.4c0.5,0,1-0.2,1.4-0.5v0.9c-0.4,0.3-1,0.4-1.7,0.4
		c-0.7,0-1.2-0.2-1.6-0.6c-0.4-0.4-0.6-1-0.6-1.8c0-0.7,0.2-1.3,0.7-1.8c0.4-0.5,1-0.7,1.6-0.7c0.6,0,1.1,0.2,1.5,0.6
		c0.4,0.4,0.5,1,0.5,1.7V13.6z M64.4,12.9c0-0.4-0.1-0.7-0.3-0.9c-0.2-0.2-0.4-0.3-0.7-0.3c-0.3,0-0.6,0.1-0.8,0.3
		c-0.2,0.2-0.3,0.5-0.4,0.9H64.4z"/>
	<path class="st3" d="M70.5,11l-1.8,4.7h-1.2L65.8,11h1.2l1,3.3c0.1,0.2,0.1,0.5,0.1,0.6h0c0-0.2,0.1-0.4,0.1-0.6l1.1-3.3H70.5z"/>
	<path class="st3" d="M73.2,15.8c-0.7,0-1.3-0.2-1.7-0.7s-0.7-1-0.7-1.7c0-0.8,0.2-1.4,0.7-1.9c0.5-0.4,1.1-0.7,1.8-0.7
		c0.7,0,1.3,0.2,1.7,0.6c0.4,0.4,0.6,1,0.6,1.8c0,0.8-0.2,1.4-0.7,1.8S73.9,15.8,73.2,15.8z M73.2,11.7c-0.4,0-0.7,0.1-1,0.4
		c-0.2,0.3-0.4,0.7-0.4,1.2c0,0.5,0.1,0.9,0.4,1.2c0.2,0.3,0.6,0.4,1,0.4c0.4,0,0.7-0.1,1-0.4s0.3-0.7,0.3-1.2
		c0-0.5-0.1-0.9-0.3-1.2C74,11.9,73.7,11.7,73.2,11.7z"/>
	<path class="st3" d="M80.7,13.6h-3.2c0,0.4,0.1,0.8,0.4,1c0.3,0.2,0.6,0.4,1.1,0.4c0.5,0,1-0.2,1.4-0.5v0.9c-0.4,0.3-1,0.4-1.7,0.4
		c-0.7,0-1.2-0.2-1.6-0.6c-0.4-0.4-0.6-1-0.6-1.8c0-0.7,0.2-1.3,0.7-1.8c0.4-0.5,1-0.7,1.6-0.7s1.1,0.2,1.5,0.6
		c0.4,0.4,0.5,1,0.5,1.7V13.6z M79.7,12.9c0-0.4-0.1-0.7-0.3-0.9c-0.2-0.2-0.4-0.3-0.7-0.3c-0.3,0-0.6,0.1-0.8,0.3
		c-0.2,0.2-0.3,0.5-0.4,0.9H79.7z"/>
	<path class="st3" d="M86,15.3c0,1.7-0.9,2.6-2.6,2.6c-0.6,0-1.1-0.1-1.6-0.3v-1c0.5,0.3,1,0.4,1.5,0.4c1.1,0,1.7-0.5,1.7-1.6v-0.5
		h0c-0.4,0.6-0.9,0.9-1.6,0.9c-0.6,0-1-0.2-1.4-0.6c-0.4-0.4-0.5-1-0.5-1.7c0-0.8,0.2-1.4,0.6-1.9c0.4-0.5,0.9-0.7,1.6-0.7
		c0.6,0,1.1,0.3,1.4,0.8h0V11H86V15.3z M85,13.5v-0.6c0-0.3-0.1-0.6-0.3-0.8c-0.2-0.2-0.5-0.4-0.8-0.4c-0.4,0-0.7,0.1-0.9,0.4
		c-0.2,0.3-0.3,0.7-0.3,1.3c0,0.5,0.1,0.8,0.3,1.1s0.5,0.4,0.9,0.4c0.4,0,0.7-0.1,0.9-0.4C84.8,14.3,85,14,85,13.5z"/>
	<path class="st3" d="M91.7,15.7h-1.1v-0.8h0c-0.3,0.6-0.9,0.9-1.6,0.9c-0.6,0-1-0.2-1.4-0.6s-0.5-1-0.5-1.7c0-0.8,0.2-1.4,0.6-1.9
		c0.4-0.5,0.9-0.7,1.5-0.7c0.6,0,1.1,0.3,1.4,0.8h0V8.7h1.1V15.7z M90.6,13.5v-0.6c0-0.3-0.1-0.6-0.3-0.9s-0.5-0.3-0.8-0.3
		c-0.4,0-0.7,0.1-0.9,0.4c-0.2,0.3-0.3,0.7-0.3,1.2c0,0.5,0.1,0.9,0.3,1.1c0.2,0.3,0.5,0.4,0.9,0.4c0.4,0,0.7-0.1,0.9-0.4
		C90.5,14.3,90.6,14,90.6,13.5z"/>
</g>
</svg>
