<?xml version="1.0" encoding="utf-8"?>
<!-- Generator: Adobe Illustrator 22.0.1, SVG Export Plug-In . SVG Version: 6.00 Build 0)  -->
<svg version="1.1" id="Laag_1" xmlns="http://www.w3.org/2000/svg" xmlns:xlink="http://www.w3.org/1999/xlink" x="0px" y="0px"
	 viewBox="0 0 1109.7 838.2" style="enable-background:new 0 0 1109.7 838.2;" xml:space="preserve">
<style type="text/css">
	.st0{clip-path:url(#SVGID_2_);fill:#30303A;}
	.st1{clip-path:url(#SVGID_2_);}
	.st2{fill-rule:evenodd;clip-rule:evenodd;fill:#BF2804;}
	.st3{fill-rule:evenodd;clip-rule:evenodd;fill:#FE621E;}
	.st4{fill-rule:evenodd;clip-rule:evenodd;fill:#FF3D05;}
	.st5{fill-rule:evenodd;clip-rule:evenodd;fill:#FEB32A;}
	.st6{fill-rule:evenodd;clip-rule:evenodd;fill:#A80505;}
	.st7{fill-rule:evenodd;clip-rule:evenodd;fill:#FA757B;}
	.st8{fill-rule:evenodd;clip-rule:evenodd;fill:#FE0C0B;}
	.st9{fill-rule:evenodd;clip-rule:evenodd;fill:#0C6377;}
	.st10{fill-rule:evenodd;clip-rule:evenodd;fill:#157A95;}
	.st11{fill-rule:evenodd;clip-rule:evenodd;fill:#1FA9BE;}
	.st12{fill-rule:evenodd;clip-rule:evenodd;fill:#79CBC4;}
	.st13{fill-rule:evenodd;clip-rule:evenodd;fill:#027838;}
	.st14{fill-rule:evenodd;clip-rule:evenodd;fill:#1F9631;}
	.st15{fill-rule:evenodd;clip-rule:evenodd;fill:#50AD26;}
	.st16{fill-rule:evenodd;clip-rule:evenodd;fill:#A3D419;}
</style>
<g>
	<defs>
		<rect id="SVGID_1_" x="-1.1" y="0.1" width="1112" height="838"/>
	</defs>
	<clipPath id="SVGID_2_">
		<use xlink:href="#SVGID_1_"  style="overflow:visible;"/>
	</clipPath>
	<rect x="-1.1" y="0.1" class="st0" width="1112" height="838"/>
	<g class="st1">
		<g>
			<g>
				<polygon class="st2" points="838.3,568.3 951.3,538 1064.4,573 951.3,603.3 				"/>
				<g>
					<polygon class="st3" points="951,603.2 870.6,607.4 887.3,1000.3 951.3,1105 1064.4,1074.6 1064.4,572.8 					"/>
				</g>
				<g>
					<polygon class="st4" points="951,603.2 838.3,568.4 838.3,1070 951,1105 951,603.2 					"/>
				</g>
			</g>
			<g>
				<polygon class="st3" points="1064,552 1064,452.5 951.7,417.8 951.7,517.3 				"/>
				<polygon class="st5" points="839.4,447.9 951.7,417.8 1064,452.5 951.7,482.7 				"/>
				<polygon class="st4" points="951.7,482.7 951.7,353 839.4,318.2 839.4,447.9 				"/>
				<polygon class="st3" points="1064,452.5 1064,322.8 951.7,288.1 951.7,417.8 				"/>
				<polygon class="st5" points="839.4,318.2 951.7,288.1 1064,322.8 951.7,353 				"/>
				<polygon class="st4" points="839.4,547.4 951.7,517.3 1064,552 951.7,582.2 				"/>
			</g>
		</g>
		<g>
			<g>
				<polygon class="st6" points="574.4,351.3 687.5,320.9 800.5,355.9 687.5,386.3 				"/>
				<g>
					<polygon class="st7" points="687.1,386.2 606.7,390.4 623.4,783.3 687.5,1106.1 800.6,1075.7 800.6,355.7 					"/>
				</g>
				<g>
					<polygon class="st8" points="687.1,386.2 574.4,351.3 574.4,1071.1 687.2,1106.1 687.2,386.2 					"/>
				</g>
			</g>
			<g>
				<polygon class="st8" points="686.2,364.6 686.2,234.9 573.9,200.2 573.9,329.8 				"/>
				<polygon class="st7" points="573.9,200.2 630,185.1 742.3,219.8 686.2,234.9 				"/>
			</g>
		</g>
		<g>
			<g>
				<polygon class="st9" points="309.4,589.3 422.5,559 535.6,594 422.5,624.3 				"/>
				<g>
					<polygon class="st10" points="422.1,624.2 341.7,628.4 358.4,1021.3 422.5,1104.3 535.6,1073.9 535.6,593.8 					"/>
				</g>
				<g>
					<polygon class="st11" points="422.1,624.2 309.4,589.4 309.4,1069.3 422.2,1104.3 422.2,624.2 					"/>
				</g>
			</g>
			<g>
				<polygon class="st12" points="422.7,474.1 536,509.2 422.7,539.5 309.4,504.6 				"/>
				<polygon class="st11" points="536,509.2 536,443.8 422.7,408.7 422.7,474.1 				"/>
				<polygon class="st10" points="309.4,570 422.7,539.5 536,574.6 422.7,605 				"/>
				<polygon class="st11" points="422.7,605 422.7,474.2 309.4,439.1 309.4,570 				"/>
				<polygon class="st12" points="309.4,439.1 422.7,408.7 536,443.8 422.7,474.2 				"/>
			</g>
		</g>
		<g>
			<g>
				<polygon class="st13" points="41.2,393 154.3,362.7 267.4,397.7 154.3,428 				"/>
				<g>
					<polygon class="st14" points="153.9,427.9 73.5,432.1 90.2,1019.4 154.3,1102.3 267.4,1071.9 267.4,397.5 					"/>
				</g>
				<g>
					<polygon class="st15" points="153.9,427.9 41.2,393.1 41.2,1067.3 154,1102.3 154,427.9 					"/>
				</g>
			</g>
			<g>
				<polygon class="st16" points="154.4,411.8 267.7,250.7 154.4,215.7 41.2,376.8 				"/>
				<polygon class="st15" points="154.4,411.8 154.4,281.1 41.2,246.1 41.2,376.8 				"/>
			</g>
		</g>
	</g>
</g>
</svg>
