<?xml version="1.0" encoding="utf-8"?>
<!-- Generator: Adobe Illustrator 22.0.1, SVG Export Plug-In . SVG Version: 6.00 Build 0)  -->
<svg version="1.1" id="Laag_1" xmlns="http://www.w3.org/2000/svg" xmlns:xlink="http://www.w3.org/1999/xlink" x="0px" y="0px"
	 viewBox="0 0 536.1 78.3" style="enable-background:new 0 0 536.1 78.3;" xml:space="preserve">
<style type="text/css">
	.st0{fill:#FFC917;}
	.st1{fill:none;}
	.st2{fill:#FFFFFF;}
	.st3{font-family:'SegoeUI';}
	.st4{font-size:23px;}
</style>
<g>
	<polygon class="st0" points="312.1,78.5 281.7,40 316.1,40 316.1,76.5 	"/>
	<rect x="312.1" y="40.7" class="st0" width="226.1" height="37.8"/>
	<rect x="-2.1" y="-0.2" class="st0" width="540.2" height="41.8"/>
</g>
<rect x="450.8" y="25.1" class="st1" width="68.6" height="27.8"/>
<text transform="matrix(1 0 0 1 450.8334 42.1327)" class="st2 st3 st4">5 min</text>
<g>
	<path class="st2" d="M419.8,20L419.8,20c-7.7,0-14,6.2-14,13.9c0,3.8,1.5,7.4,4.1,10s6.1,4.1,9.9,4.1l0,0c3.7,0,7.2-1.5,9.9-4.1
		c2.7-2.6,4.1-6.1,4.1-9.9C433.7,26.3,427.5,20,419.8,20z M431.2,34.1c0,6.3-5.1,11.4-11.4,11.4l0,0c-3.1,0-6-1.2-8.1-3.4
		c-2.2-2.2-3.3-5.1-3.3-8.2c0-6.2,5.2-11.3,11.4-11.3l0,0C426.1,22.6,431.2,27.8,431.2,34.1z"/>
	<path class="st2" d="M421,25.6c-0.1-0.5-0.4-0.9-0.9-1c-0.5-0.2-1,0-1.3,0.4c-0.3,0.3-0.3,0.7-0.3,1v7.8h-4.8c-0.5,0-0.9,0-1.4,0
		c-0.4,0-0.8,0.2-1.1,0.5c-0.2,0.3-0.3,0.6-0.3,1c0.1,0.7,0.6,1.1,1.4,1.1h7.2c1,0,1.5-0.5,1.5-1.5v-8.8C421,25.9,421,25.7,421,25.6
		z"/>
</g>
</svg>
