<?xml version="1.0" encoding="utf-8"?>
<!-- Generator: Adobe Illustrator 22.0.1, SVG Export Plug-In . SVG Version: 6.00 Build 0)  -->
<svg version="1.1" id="Laag_1" xmlns="http://www.w3.org/2000/svg" xmlns:xlink="http://www.w3.org/1999/xlink" x="0px" y="0px"
	 viewBox="0 0 536.1 127.6" style="enable-background:new 0 0 536.1 127.6;" xml:space="preserve">
<style type="text/css">
	.st0{fill:#FFC917;}
	.st1{fill:#FFFFFF;}
</style>
<polygon class="st0" points="253.1,36.7 224,-0.2 -2.1,-0.2 -2.1,36.7 -2.1,37.6 -2.1,129.6 538.1,129.6 538.1,36.7 "/>
<g>
	<path class="st1" d="M97.9,36.2l0.3,0.3c0,0,0,0,0.1,0l0,0c0,0,0.1,0,0.1,0.1c0,0,0,0,0.1,0l0,0c0,0,0,0,0.1,0h0.1l0.1-0.1l0,0v0.1
		c0,0,0,0,0.1,0c0.1,0,0.1,0,0.2,0c0.1,0,0.1,0,0.2,0c0,0,0,0,0.1,0h0.1l0,0l-0.1-0.1l0.1,0.1c0,0,0.1,0,0.1-0.1l0,0l0,0l0.1,0.1
		l0.1-0.1l9.9-9.9c1.5-1.4,2.2-3.3,2.2-5.3c0-4.1-3.4-7.5-7.5-7.5c-2.1,0-4,0.8-5.5,2.4c-1.4-1.5-3.4-2.4-5.5-2.4
		c-4.1,0-7.5,3.4-7.5,7.5c0,2,0.7,3.9,2.2,5.3L97.9,36.2z M99.6,19.1L99.6,19.1C99.7,19.1,99.7,19.1,99.6,19.1
		c0.1-0.1,0.1-0.1,0.2-0.1c0,0,0.1,0,0.1-0.1c0,0,0,0,0.1-0.1c0,0,0-0.1,0.1-0.1l0,0c0.9-1.6,2.6-2.5,4.4-2.5c2.8,0,5.2,2.3,5.2,5.2
		c0,1.4-0.5,2.7-1.6,3.7L99,34.2L90,25.1l0,0l0,0c-1.1-0.9-1.6-2.3-1.6-3.7c0-2.8,2.3-5.2,5.2-5.2c1.8,0,3.6,0.9,4.4,2.5l0,0
		c0,0,0,0.1,0.1,0.1c0,0,0,0.1,0.1,0.1c0,0,0,0,0.1,0.1c0,0,0.1,0,0.1,0.1l0,0l0,0h0.1h0.1h0.1h0.1h0.1l0,0H99h0.1h0.1h0.1
		C99.6,19.1,99.6,19.1,99.6,19.1z"/>
</g>
<path class="st1" d="M40.7,34.6H30v-1.3c0-0.5,0.1-1.1,0.2-1.5c0.1-0.4,0.3-0.9,0.6-1.4c0.2-0.4,0.5-0.8,0.8-1.2
	c0.3-0.3,0.7-0.7,1.1-1.1c0.4-0.3,0.7-0.6,1.2-0.9c0.4-0.3,0.8-0.6,1.2-0.9s0.7-0.6,0.9-0.9c0.3-0.3,0.5-0.6,0.7-0.9
	c0.2-0.3,0.4-0.6,0.5-0.9c0.1-0.3,0.2-0.7,0.2-1.2c0-0.4-0.1-0.8-0.2-1.2c-0.1-0.3-0.3-0.6-0.5-0.8c-0.2-0.2-0.5-0.4-0.8-0.5
	c-0.3-0.1-0.7-0.2-1.2-0.2c-0.7,0-1.4,0.2-2.1,0.5c-0.7,0.3-1.4,0.8-2.1,1.5V19c0.3-0.2,0.7-0.5,1.1-0.6c0.3-0.2,0.7-0.3,1.1-0.5
	c0.4-0.1,0.7-0.2,1.2-0.3c0.4-0.1,0.8-0.1,1.4-0.1c0.7,0,1.5,0.1,2.1,0.3c0.6,0.2,1.2,0.5,1.6,0.8c0.4,0.4,0.7,0.8,1.1,1.5
	c0.2,0.6,0.3,1.3,0.3,2s-0.1,1.3-0.2,1.9c-0.2,0.5-0.4,1.1-0.7,1.6c-0.3,0.4-0.7,0.9-1.2,1.4c-0.4,0.4-0.9,0.8-1.5,1.3
	c-0.4,0.4-0.9,0.7-1.4,1.1c-0.4,0.3-0.8,0.7-1.3,1.1c-0.3,0.3-0.6,0.6-0.8,1.1c-0.2,0.3-0.3,0.6-0.3,1.1v0.1h7.7v2.1H40.7z"/>
<path class="st1" d="M48.9,34.9c-1.8,0-3.2-0.7-4.1-2.2c-0.9-1.5-1.5-3.6-1.5-6.2c0-3,0.5-5.3,1.6-6.9c1.1-1.6,2.5-2.3,4.4-2.3
	c3.7,0,5.6,3,5.6,8.8c0,2.8-0.5,5.1-1.6,6.5C52.3,34.1,50.8,34.9,48.9,34.9z M49.1,19.5c-2.1,0-3.1,2.3-3.1,6.9
	c0,4.2,1.1,6.3,3.1,6.3s3-2.1,3-6.4C52.1,21.7,51.1,19.5,49.1,19.5z"/>
<path class="st1" d="M57.7,34.2v-2.6c1.2,0.7,2.2,1.2,3.4,1.2c1.2,0,2.1-0.3,2.7-0.8c0.7-0.6,1.1-1.4,1.1-2.3c0-0.9-0.3-1.7-1.1-2.2
	c-0.7-0.5-1.7-0.8-3.1-0.8c-0.4,0-1.4,0-2.7,0.1l0.6-9H67v2.3h-6.1l-0.3,4.2c0.5,0,1.1,0,1.5,0c1.8,0,3.2,0.4,4.2,1.4
	c0.9,0.9,1.5,2.2,1.5,3.8c0,1.7-0.5,3.1-1.7,4c-1.2,1.1-2.6,1.5-4.6,1.5C59.7,34.9,58.4,34.7,57.7,34.2z"/>
<g>
	<path class="st1" d="M111.9,46.3H86.4v17.9h5.3v6l7.6-6h12.7V46.3L111.9,46.3z M98.7,62C98.6,62,98.6,62,98.7,62
		c-0.1,0-0.2,0-0.2,0h-0.1h-0.1c0,0-0.1,0-0.1,0.1L94,65.5v-2.4c0-0.6-0.5-1.2-1.2-1.2h-4.1V48.6h21v12.7V62H98.7L98.7,62
		C98.8,62,98.7,62,98.7,62z"/>
	<path class="st1" d="M36.1,46.8v17.4h-2.7v-14c-0.5,0.3-1.1,0.6-1.6,0.9c-0.5,0.2-1.3,0.4-2,0.6v-2.3c0.4-0.1,0.9-0.3,1.4-0.4
		c0.4-0.1,0.8-0.3,1.3-0.5c0.4-0.2,0.8-0.4,1.3-0.7c0.4-0.2,0.8-0.5,1.3-0.8h1.2V46.8z"/>
	<path class="st1" d="M47.1,46.8v17.4h-2.7v-14c-0.5,0.3-1.1,0.6-1.6,0.9c-0.5,0.2-1.3,0.4-2,0.6v-2.3c0.4-0.1,0.9-0.3,1.4-0.4
		c0.4-0.1,0.8-0.3,1.3-0.5c0.4-0.2,0.8-0.4,1.3-0.7c0.4-0.2,0.8-0.5,1.3-0.8h1.2V46.8z"/>
	<path class="st1" d="M58.1,46.8v17.4h-2.7v-14c-0.5,0.3-1.1,0.6-1.6,0.9c-0.5,0.2-1.3,0.4-2,0.6v-2.3c0.4-0.1,0.9-0.3,1.4-0.4
		c0.4-0.1,0.8-0.3,1.3-0.5c0.4-0.2,0.8-0.4,1.3-0.7c0.4-0.2,0.8-0.5,1.3-0.8h1.2V46.8z"/>
</g>
</svg>
